<svg width="233" height="182" viewBox="0 0 233 182" fill="none" xmlns="http://www.w3.org/2000/svg">
<path d="M102.661 142.032C104.859 143.103 107.134 144.053 109.475 144.874C116.194 147.229 123.461 148.515 131.045 148.515C165.343 148.515 193.147 122.208 193.147 89.7571C193.147 75.6209 187.871 62.6506 179.08 52.513C178.625 51.9876 178.16 51.4699 177.686 50.96C166.305 38.7217 149.628 30.999 131.045 30.999C96.7471 30.999 68.9431 57.3059 68.9431 89.7571C68.9431 105.542 75.5218 119.873 86.2265 130.43L86.319 130.521C87.1295 135.037 82.1592 144.343 76.3047 153.613C76.0871 153.957 76.3687 154.394 76.7682 154.314C81.055 153.454 87.3798 150.5 98.8566 140.016L98.9062 140.045C100.131 140.747 101.383 141.41 102.661 142.032ZM177.686 50.96C203.357 59.0721 221.81 81.5055 221.81 107.91C221.81 117.939 219.148 127.395 214.439 135.711L213.977 136.512C223.824 138.941 231.125 147.831 231.125 158.427C231.125 170.893 221.019 180.999 208.553 180.999C197.14 180.999 187.705 172.528 186.193 161.531L184.623 162.246C176.101 165.999 166.559 168.101 156.483 168.101C134.155 168.101 114.443 157.78 102.661 142.032" stroke="white" stroke-width="1.91083"/>
<path d="M131.045 148.515C165.343 148.515 193.147 122.208 193.147 89.7571C193.147 75.6209 187.871 62.6506 179.08 52.513C178.625 51.9876 178.16 51.4699 177.686 50.96C166.305 38.7217 149.628 30.999 131.045 30.999C96.7471 30.999 68.9431 57.3059 68.9431 89.7571C68.9431 105.542 75.5218 119.873 86.2265 130.43L86.319 130.521C87.155 135.179 81.8412 144.932 75.7504 154.486C80.0498 153.889 86.4362 151.362 98.8566 140.016L98.9062 140.045C100.131 140.747 101.383 141.41 102.661 142.032C104.859 143.103 107.134 144.053 109.475 144.874C116.194 147.229 123.461 148.515 131.045 148.515Z" fill="url(#paint0_linear_609_1736)"/>
<path d="M145.137 156.636C177.589 156.636 203.896 130.971 203.896 99.3112C203.896 79.988 194.096 62.8977 179.08 52.513C187.871 62.6506 193.147 75.6209 193.147 89.7571C193.147 122.208 165.343 148.515 131.045 148.515C123.461 148.515 116.194 147.229 109.475 144.874C119.364 152.253 131.726 156.636 145.137 156.636Z" fill="#F2F4F7"/>
<path d="M203.896 99.3112C203.896 130.971 177.589 156.636 145.137 156.636C131.726 156.636 119.364 152.253 109.475 144.874C107.134 144.053 104.859 143.103 102.661 142.032C114.443 157.78 134.155 168.101 156.483 168.101C167.182 168.101 177.28 165.731 186.193 161.53C197.977 155.976 207.688 147.222 213.978 136.511C218.973 128.004 221.81 118.262 221.81 107.91C221.81 81.5055 203.357 59.0721 177.686 50.96C178.16 51.4699 178.625 51.9876 179.08 52.513C194.096 62.8977 203.896 79.988 203.896 99.3112Z" fill="url(#paint1_linear_609_1736)"/>
<path d="M208.553 180.999C221.019 180.999 231.125 170.893 231.125 158.427C231.125 147.831 223.824 138.94 213.978 136.511C207.688 147.222 197.977 155.976 186.193 161.53C187.705 172.528 197.14 180.999 208.553 180.999Z" fill="url(#paint2_linear_609_1736)"/>
<circle cx="208.433" cy="158.547" r="15.0478" fill="#5EBB1C"/>
<path d="M127.153 115.623C227.226 59.0262 168.889 -25.0355 127.04 27.0773C85.1912 -13.8758 27.0793 85.7124 127.153 115.623Z" fill="#DA008A"/>
<path fill-rule="evenodd" clip-rule="evenodd" d="M127.041 29.2892C85.1916 -15.6493 27.0782 82.0071 127.154 115.622C134.822 111.002 141.56 106.243 147.447 101.419C74.6578 111.124 61.6452 16.1323 127.041 29.2892Z" fill="#DA008A"/>
<path d="M127.153 115.623C227.226 59.0262 168.889 -25.0355 127.04 27.0773C85.1912 -13.8758 27.0793 85.7124 127.153 115.623Z" fill="#DA008A"/>
<path d="M128.154 116.623C228.227 60.0257 169.89 -24.036 128.041 28.0768C86.1922 -12.8763 28.0803 86.7119 128.154 116.623Z" fill="#DA008A"/>
<path fill-rule="evenodd" clip-rule="evenodd" d="M128.042 30.2887C86.1925 -14.6498 28.0792 83.0067 128.155 116.622C135.823 112.001 142.561 107.242 148.448 102.418C75.6588 112.123 62.6462 17.1318 128.042 30.2887Z" fill="#DA008A"/>
<path d="M128.154 116.623C228.227 60.0257 169.89 -24.036 128.041 28.0768C86.1922 -12.8763 28.0803 86.7119 128.154 116.623Z" fill="#DA008A"/>
<path d="M123.72 112.188C223.793 55.5909 165.456 -28.4708 123.607 23.642C81.7586 -17.3111 23.6467 82.2771 123.72 112.188Z" fill="#DA008A"/>
<path fill-rule="evenodd" clip-rule="evenodd" d="M123.609 25.8536C81.7589 -19.0848 23.6456 78.5716 123.721 112.187C131.389 107.566 138.127 102.807 144.014 97.983C71.2252 107.688 58.2126 12.6967 123.609 25.8536Z" fill="#DA008A"/>
<path d="M123.72 112.188C223.793 55.5909 165.456 -28.4708 123.607 23.642C81.7586 -17.3111 23.6467 82.2771 123.72 112.188Z" fill="#DA008A"/>
<path d="M120.284 108.753C220.357 52.1561 162.02 -31.9056 120.171 20.2071C78.3223 -20.7459 20.2104 78.8423 120.284 108.753Z" fill="url(#paint3_radial_609_1736)"/>
<path fill-rule="evenodd" clip-rule="evenodd" d="M120.173 22.419C78.3227 -22.5194 20.2093 75.137 120.285 108.752C127.953 104.132 134.691 99.3725 140.578 94.5484C67.7889 104.254 54.7763 9.26217 120.173 22.419Z" fill="url(#paint4_linear_609_1736)"/>
<path d="M88.7803 13.6722C98.0344 9.84102 109.069 11.128 119.291 21.1305L120.171 21.9926L121.052 20.8956C131.273 8.16818 142.322 3.9361 151.598 5.29743C160.938 6.66805 168.765 13.7466 172.317 24.238C179.349 45.0035 169.547 79.4015 120.284 107.444C71.0195 92.5381 61.1601 60.7597 68.1377 38.1257C71.663 26.6908 79.463 17.5298 88.7803 13.6722Z" stroke="url(#paint5_linear_609_1736)" stroke-width="2.4"/>
<path d="M155.001 34.8469C154.941 36.6663 156.349 37.9957 158.145 37.8161C159.94 37.6365 161.444 36.0159 161.503 34.1965L158.252 34.5217L155.001 34.8469ZM156.796 27.6061L153.854 29.3977L156.796 27.6061ZM152.286 22.5497L154.273 19.6858L152.286 22.5497ZM145.716 20.4653L146.309 17.1593L145.716 20.4653ZM137.599 18.791C135.877 19.5392 134.899 21.498 135.413 23.1662C135.927 24.8344 137.739 25.5801 139.461 24.8319L138.53 21.8114L137.599 18.791ZM158.252 34.5217L161.503 34.1965C161.601 31.2105 160.996 28.3374 159.739 25.8144L156.796 27.6061L153.854 29.3977C154.671 31.0379 155.064 32.9057 155.001 34.8469L158.252 34.5217ZM156.796 27.6061L159.739 25.8144C158.481 23.2913 156.608 21.1907 154.273 19.6858L152.286 22.5497L150.3 25.4136C151.818 26.3919 153.036 27.7575 153.854 29.3977L156.796 27.6061ZM152.286 22.5497L154.273 19.6858C151.938 18.1809 149.208 17.3149 146.309 17.1593L145.716 20.4653L145.123 23.7712C147.008 23.8723 148.782 24.4353 150.3 25.4136L152.286 22.5497ZM145.716 20.4653L146.309 17.1593C143.409 17.0037 140.424 17.563 137.599 18.791L138.53 21.8114L139.461 24.8319C141.297 24.0336 143.238 23.67 145.123 23.7712L145.716 20.4653Z" fill="url(#paint6_linear_609_1736)"/>
<path d="M81.005 87.9432L19.2524 112.598L18.1427 112.992C14.0564 114.443 15.0566 119.775 19.4886 120.167L47.6557 122.657C49.5746 122.826 51.1545 124.103 51.5077 125.77L56.1216 147.541C56.92 151.308 62.865 151.834 64.3119 148.265L86.8509 92.6677C88.1108 89.5599 84.4222 86.5789 81.005 87.9432Z" fill="white"/>
<path d="M81.2123 86.6209L19.4597 111.276L18.35 111.67C14.2636 113.121 15.2638 118.453 19.6959 118.845L47.863 121.334C49.7818 121.504 51.3617 122.781 51.715 124.447L56.3289 146.219C57.1273 149.986 63.0723 150.511 64.5191 146.943L87.0582 91.3455C88.3181 88.2377 84.6295 85.2566 81.2123 86.6209Z" fill="white"/>
<path d="M81.4171 85.2979L19.6645 109.953L18.5548 110.347C14.4685 111.798 15.4687 117.13 19.9007 117.522L48.0678 120.011C49.9867 120.181 51.5666 121.458 51.9198 123.124L56.5337 144.896C57.3321 148.663 63.2771 149.188 64.724 145.62L87.263 90.0225C88.5229 86.9147 84.8343 83.9336 81.4171 85.2979Z" fill="white"/>
<path d="M81.6246 83.9749L19.872 108.63L18.7624 109.024C14.676 110.475 15.6762 115.807 20.1082 116.199L48.2753 118.688C50.1942 118.858 51.7741 120.135 52.1273 121.801L56.7412 143.573C57.5396 147.34 63.4846 147.865 64.9315 144.297L87.4705 88.6995C88.7304 85.5917 85.0418 82.6106 81.6246 83.9749Z" fill="white"/>
<path d="M81.8295 82.6524L20.0769 107.307L18.9672 107.702C14.8808 109.153 15.881 114.484 20.3131 114.876L48.4802 117.366C50.399 117.535 51.9789 118.812 52.3321 120.479L56.946 142.25C57.7445 146.018 63.6895 146.543 65.1363 142.974L87.6754 87.377C88.9353 84.2692 85.2467 81.2881 81.8295 82.6524Z" fill="url(#paint7_linear_609_1736)"/>
<defs>
<linearGradient id="paint0_linear_609_1736" x1="145.376" y1="30.999" x2="145.376" y2="168.101" gradientUnits="userSpaceOnUse">
<stop stop-color="white"/>
<stop offset="1" stop-color="#FEFEFE" stop-opacity="0.54"/>
</linearGradient>
<linearGradient id="paint1_linear_609_1736" x1="145.376" y1="30.999" x2="145.376" y2="168.101" gradientUnits="userSpaceOnUse">
<stop stop-color="#FEFEFE"/>
<stop offset="1" stop-color="white" stop-opacity="0.54"/>
</linearGradient>
<linearGradient id="paint2_linear_609_1736" x1="145.376" y1="30.999" x2="145.376" y2="168.101" gradientUnits="userSpaceOnUse">
<stop stop-color="#FEFEFE"/>
<stop offset="1" stop-color="white" stop-opacity="0.54"/>
</linearGradient>
<radialGradient id="paint3_radial_609_1736" cx="0" cy="0" r="1" gradientTransform="matrix(0.300482 98.2584 -107.147 14.6199 119.942 10.5)" gradientUnits="userSpaceOnUse">
<stop stop-color="#FF45BB"/>
<stop offset="1" stop-color="#F2F4F7"/>
</radialGradient>
<linearGradient id="paint4_linear_609_1736" x1="79.4424" y1="26.4995" x2="100.055" y2="97.7685" gradientUnits="userSpaceOnUse">
<stop stop-color="#F2F4F7"/>
<stop offset="1" stop-color="white" stop-opacity="0"/>
</linearGradient>
<linearGradient id="paint5_linear_609_1736" x1="120.243" y1="7.37367" x2="133.525" y2="106.987" gradientUnits="userSpaceOnUse">
<stop stop-color="#FF45BB"/>
<stop offset="1" stop-color="#FA009E"/>
</linearGradient>
<linearGradient id="paint6_linear_609_1736" x1="138.91" y1="21.6517" x2="150.098" y2="49.1708" gradientUnits="userSpaceOnUse">
<stop stop-color="#FEFEFF"/>
<stop offset="1" stop-color="#F2F4F7" stop-opacity="0"/>
</linearGradient>
<linearGradient id="paint7_linear_609_1736" x1="97.9334" y1="86.1055" x2="34.8103" y2="146.525" gradientUnits="userSpaceOnUse">
<stop/>
<stop offset="1" stop-color="#FEFEFE"/>
</linearGradient>
</defs>
</svg>
