<svg width="241" height="210" viewBox="0 0 241 210" fill="none" xmlns="http://www.w3.org/2000/svg">
<path d="M71.3547 149.163C107.759 151.659 142.859 126.259 149.753 92.4287C152.756 77.6918 149.911 63.7865 142.734 52.5782C142.362 51.9974 141.979 51.4238 141.584 50.8577C132.104 37.271 116.043 28.0064 96.319 26.6537C59.9144 24.1572 24.8143 49.5579 17.9206 83.3879C14.5673 99.8436 18.5056 115.263 27.6252 127.047C27.6765 127.113 27.7037 127.193 27.6995 127.281C27.5104 131.271 22.5189 138.327 16.1891 145.846C14.3371 148.046 15.6686 150.753 18.3521 149.767C22.9827 148.064 29.4144 144.667 38.9406 137.998C38.9722 137.976 39.0135 137.973 39.0412 137.993C40.1917 138.814 41.3799 139.597 42.604 140.339C44.71 141.615 46.9226 142.771 49.2334 143.797C55.8647 146.741 63.3045 148.611 71.3547 149.163Z" fill="#EDEDED"/>
<path d="M70.5247 147.908C106.929 150.404 142.029 125.004 148.923 91.1738C151.926 76.437 149.081 62.5316 141.904 51.3233C141.532 50.7425 141.149 50.1689 140.754 49.6028C131.274 36.0161 115.213 26.7515 95.4889 25.3988C59.0843 22.9023 23.9842 48.303 17.0905 82.133C13.7373 98.5887 17.6756 114.008 26.7951 125.792C26.8464 125.858 26.8736 125.938 26.8694 126.026C26.6804 130.016 21.6888 137.072 15.359 144.591C13.507 146.791 14.8385 149.498 17.522 148.512C22.1527 146.809 28.5843 143.412 38.1105 136.743C38.1421 136.721 38.1834 136.719 38.2111 136.738C39.3616 137.559 40.5498 138.342 41.7739 139.084C43.88 140.36 46.0925 141.516 48.4033 142.542C55.0346 145.486 62.4745 147.356 70.5247 147.908Z" fill="#EDEDED"/>
<path d="M69.6947 146.653C106.099 149.149 141.199 123.748 148.093 89.9184C151.096 75.1816 148.251 61.2762 141.074 50.068C140.702 49.4871 140.319 48.9136 139.924 48.3475C130.444 34.7607 114.383 25.4961 94.6589 24.1434C58.2544 21.6469 23.1542 47.0477 16.2606 80.8776C12.9073 97.3333 16.8456 112.752 25.9652 124.537C26.0165 124.603 26.0436 124.683 26.0395 124.771C25.8504 128.761 20.8588 135.817 14.5291 143.336C12.6771 145.536 14.0085 148.243 16.6921 147.256C21.3227 145.554 27.7544 142.157 37.2806 135.488C37.3122 135.465 37.3534 135.463 37.3812 135.483C38.5317 136.304 39.7198 137.086 40.944 137.828C43.05 139.105 45.2626 140.261 47.5734 141.287C54.2046 144.231 61.6445 146.1 69.6947 146.653Z" fill="#EDEDED"/>
<path d="M68.8646 145.397C105.269 147.894 140.369 122.493 147.263 88.6633C150.266 73.9265 147.421 60.0211 140.244 48.8128C139.872 48.232 139.489 47.6584 139.094 47.0923C129.614 33.5056 113.553 24.241 93.8288 22.8883C57.4243 20.3918 22.3242 45.7925 15.4305 79.6225C12.0772 96.0782 16.0155 111.497 25.1351 123.282C25.1864 123.348 25.2136 123.428 25.2094 123.516C25.0203 127.506 20.0288 134.562 13.699 142.081C11.847 144.281 13.1785 146.988 15.862 146.001C20.4926 144.299 26.9243 140.902 36.4505 134.232C36.4821 134.21 36.5233 134.208 36.5511 134.228C37.7016 135.049 38.8898 135.831 40.1139 136.573C42.2199 137.849 44.4325 139.006 46.7433 140.032C53.3746 142.975 60.8144 144.845 68.8646 145.397Z" fill="#EDEDED"/>
<path d="M92.793 22.6446C112.229 23.9776 128.041 33.105 137.369 46.4741C137.758 47.0311 138.135 47.5958 138.501 48.1672C145.561 59.1927 148.354 72.8594 145.404 87.3378C138.634 120.557 104.131 145.593 68.2409 143.131C60.3076 142.587 52.9788 140.744 46.4485 137.845C44.1728 136.835 41.9936 135.697 39.9199 134.44C39.0158 133.892 38.1315 133.322 37.2681 132.73L36.4122 132.131C36.0762 131.891 35.6197 131.892 35.2376 132.087L35.0788 132.183C25.5963 138.822 19.2639 142.152 14.7727 143.804C13.9015 144.124 13.4128 143.84 13.1983 143.434C12.9577 142.978 12.9833 142.194 13.6499 141.402C16.8289 137.626 19.6965 133.936 21.7993 130.672C23.74 127.659 25.1352 124.849 25.3918 122.617L25.428 122.178L25.4288 122.057C25.417 121.783 25.3201 121.543 25.1746 121.356L25.1736 121.356C16.2007 109.76 12.3362 94.6039 15.6303 78.4382C22.3996 45.2188 56.9027 20.1834 92.793 22.6446Z" fill="url(#paint0_linear_609_1794)" stroke="white" stroke-width="2.06399"/>
<path d="M171.818 181.229C135.329 181.024 102.205 153.094 97.8352 118.847C95.9314 103.928 99.7978 90.2715 107.785 79.6253C108.199 79.0736 108.624 78.53 109.06 77.9947C119.519 65.1471 136.222 57.0968 155.992 57.208C192.481 57.4134 225.605 85.3429 229.975 119.59C232.101 136.249 227.032 151.334 217.065 162.411C217.009 162.474 216.976 162.551 216.974 162.639C216.867 166.632 221.322 174.038 227.078 182.005C228.762 184.336 227.234 186.938 224.631 185.755C220.139 183.714 213.976 179.85 204.97 172.494C204.94 172.47 204.899 172.465 204.87 172.482C203.662 173.216 202.419 173.908 201.143 174.557C198.949 175.674 196.657 176.664 194.276 177.516C187.445 179.96 179.887 181.275 171.818 181.229Z" fill="#5EBB1C"/>
<path d="M170.898 182.419C134.408 182.213 101.285 154.284 96.9146 120.036C95.0108 105.118 98.8773 91.4609 106.864 80.8148C107.278 80.2631 107.703 79.7194 108.139 79.1842C118.599 66.3365 135.301 58.2862 155.071 58.3975C191.561 58.6028 224.684 86.5323 229.055 120.78C231.181 137.439 226.112 152.524 216.145 163.601C216.089 163.663 216.056 163.741 216.053 163.829C215.946 167.822 220.402 175.228 226.158 183.195C227.842 185.526 226.313 188.127 223.71 186.945C219.218 184.904 213.056 181.04 204.05 173.684C204.02 173.659 203.979 173.654 203.95 173.672C202.741 174.405 201.499 175.098 200.223 175.747C198.028 176.864 195.736 177.853 193.356 178.705C186.525 181.15 178.967 182.464 170.898 182.419Z" fill="#5EBB1C"/>
<path d="M169.977 183.609C133.488 183.403 100.364 155.474 95.9939 121.226C94.0901 106.308 97.9565 92.6511 105.944 82.005C106.357 81.4532 106.782 80.9096 107.218 80.3743C117.678 67.5267 134.38 59.4764 154.151 59.5877C190.64 59.793 223.764 87.7225 228.134 121.97C230.26 138.629 225.191 153.714 215.224 164.791C215.168 164.853 215.135 164.931 215.132 165.019C215.026 169.012 219.481 176.418 225.237 184.385C226.921 186.716 225.393 189.317 222.79 188.135C218.298 186.094 212.135 182.23 203.129 174.874C203.099 174.85 203.058 174.844 203.029 174.862C201.821 175.596 200.578 176.288 199.302 176.937C197.107 178.054 194.815 179.043 192.435 179.895C185.604 182.34 178.046 183.654 169.977 183.609Z" fill="#5EBB1C"/>
<path d="M169.057 184.799C132.567 184.593 99.4437 156.664 95.0733 122.416C93.1695 107.498 97.036 93.8411 105.023 83.1949C105.437 82.6432 105.862 82.0996 106.298 81.5643C116.758 68.7166 133.46 60.6664 153.23 60.7776C189.72 60.983 222.843 88.9125 227.213 123.16C229.339 139.819 224.27 154.904 214.303 165.981C214.247 166.043 214.214 166.121 214.212 166.209C214.105 170.202 218.561 177.608 224.316 185.575C226 187.906 224.472 190.507 221.869 189.325C217.377 187.284 211.215 183.42 202.208 176.064C202.178 176.039 202.137 176.034 202.108 176.052C200.9 176.785 199.657 177.478 198.382 178.127C196.187 179.244 193.895 180.233 191.514 181.085C184.683 183.53 177.126 184.844 169.057 184.799Z" fill="#5EBB1C"/>
<path d="M168.136 185.989C131.646 185.784 98.5229 157.854 94.1525 123.607C92.2488 108.688 96.1152 95.0312 104.102 84.3851C104.516 83.8334 104.941 83.2898 105.377 82.7545C115.837 69.9068 132.539 61.8566 152.309 61.9678C188.799 62.1731 221.922 90.1027 226.293 124.35C228.418 141.009 223.349 156.094 213.382 167.171C213.326 167.233 213.293 167.311 213.291 167.399C213.184 171.392 217.64 178.798 223.396 186.765C225.08 189.096 223.551 191.697 220.948 190.515C216.456 188.474 210.294 184.61 201.287 177.254C201.258 177.23 201.217 177.224 201.187 177.242C199.979 177.976 198.737 178.668 197.461 179.317C195.266 180.434 192.974 181.423 190.594 182.275C183.763 184.72 176.205 186.034 168.136 185.989Z" fill="#5EBB1C"/>
<path d="M172.739 180.039C136.25 179.834 103.126 151.904 98.7559 117.657C96.8522 102.738 100.719 89.0813 108.706 78.4351C109.12 77.8834 109.545 77.3398 109.98 76.8045C120.44 63.9569 137.142 55.9066 156.913 56.0179C193.402 56.2232 226.526 84.1527 230.896 118.4C233.022 135.059 227.953 150.144 217.986 161.221C217.93 161.283 217.897 161.361 217.894 161.449C217.788 165.442 222.243 172.848 227.999 180.815C229.683 183.146 228.155 185.748 225.552 184.565C221.06 182.524 214.897 178.66 205.891 171.304C205.861 171.28 205.82 171.274 205.791 171.292C204.583 172.026 203.34 172.718 202.064 173.367C199.87 174.484 197.577 175.473 195.197 176.325C188.366 178.77 180.808 180.084 172.739 180.039Z" fill="url(#paint1_linear_609_1794)"/>
<g opacity="0.4" style="mix-blend-mode:plus-lighter">
<path d="M157.043 57.0415C137.562 56.932 121.118 64.8638 110.825 77.5056C110.396 78.0323 109.978 78.5675 109.571 79.1103C101.714 89.5829 97.9173 103.005 99.7877 117.662C104.079 151.292 136.634 178.813 172.608 179.015C180.56 179.06 188.005 177.764 194.732 175.357C197.077 174.518 199.334 173.544 201.495 172.444C202.437 171.965 203.361 171.462 204.266 170.935L205.164 170.401C205.517 170.187 205.972 170.222 206.339 170.445L206.49 170.552C215.455 177.874 221.523 181.665 225.88 183.644C226.725 184.028 227.233 183.781 227.477 183.392C227.751 182.954 227.784 182.171 227.178 181.332C224.287 177.331 221.7 173.439 219.845 170.028C218.133 166.879 216.949 163.974 216.859 161.729L216.855 161.288L216.863 161.168C216.895 160.895 217.01 160.664 217.169 160.488L217.169 160.488C226.976 149.588 231.952 134.76 229.864 118.394C225.572 84.765 193.017 57.244 157.043 57.0415Z" fill="url(#paint2_linear_609_1794)"/>
<path d="M157.043 57.0415C137.562 56.932 121.118 64.8638 110.825 77.5056C110.396 78.0323 109.978 78.5675 109.571 79.1103C101.714 89.5829 97.9173 103.005 99.7877 117.662C104.079 151.292 136.634 178.813 172.608 179.015C180.56 179.06 188.005 177.764 194.732 175.357C197.077 174.518 199.334 173.544 201.495 172.444C202.437 171.965 203.361 171.462 204.266 170.935L205.164 170.401C205.517 170.187 205.972 170.222 206.339 170.445L206.49 170.552C215.455 177.874 221.523 181.665 225.88 183.644C226.725 184.028 227.233 183.781 227.477 183.392C227.751 182.954 227.784 182.171 227.178 181.332C224.287 177.331 221.7 173.439 219.845 170.028C218.133 166.879 216.949 163.974 216.859 161.729L216.855 161.288L216.863 161.168C216.895 160.895 217.01 160.664 217.169 160.488L217.169 160.488C226.976 149.588 231.952 134.76 229.864 118.394C225.572 84.765 193.017 57.244 157.043 57.0415Z" stroke="url(#paint3_linear_609_1794)" stroke-width="2.06399"/>
</g>
<defs>
<linearGradient id="paint0_linear_609_1794" x1="89.2127" y1="21.3735" x2="81.0691" y2="140.124" gradientUnits="userSpaceOnUse">
<stop stop-color="white"/>
<stop offset="1" stop-color="#FEFEFE" stop-opacity="0.54"/>
</linearGradient>
<linearGradient id="paint1_linear_609_1794" x1="173.543" y1="186.341" x2="314.185" y2="14.5003" gradientUnits="userSpaceOnUse">
<stop stop-color="#5EBB1C"/>
<stop offset="1" stop-color="#F2F4F7"/>
</linearGradient>
<linearGradient id="paint2_linear_609_1794" x1="173.543" y1="186.341" x2="135.618" y2="-18.67" gradientUnits="userSpaceOnUse">
<stop/>
<stop offset="1" stop-color="#F2F4F7"/>
</linearGradient>
<linearGradient id="paint3_linear_609_1794" x1="173.543" y1="186.341" x2="174.276" y2="56.1153" gradientUnits="userSpaceOnUse">
<stop stop-color="#999999" stop-opacity="0"/>
<stop offset="1" stop-color="white"/>
</linearGradient>
</defs>
</svg>
