<svg width="714" height="191" viewBox="0 0 714 191" fill="none" xmlns="http://www.w3.org/2000/svg">
<path d="M178.692 10.5558C193.486 -7.98364 223.189 -0.882322 227.997 22.3439L244.267 100.931C245.858 108.618 250.603 115.284 257.345 119.304L337.448 167.069C359.692 180.332 353.554 214.09 328.065 218.675L33.0498 271.74C7.61104 276.316 -9.91414 246.922 6.20701 226.719L178.692 10.5558ZM529.53 22.3439C534.339 -0.882366 564.041 -7.98376 578.835 10.5558L751.32 226.719C767.442 246.922 749.915 276.316 724.477 271.74L429.462 218.675C403.973 214.09 397.835 180.332 420.079 167.069L500.183 119.304C506.925 115.284 511.669 108.618 513.261 100.931L529.53 22.3439Z" fill="url(#paint0_linear_651_5548)"/>
<defs>
<linearGradient id="paint0_linear_651_5548" x1="652.761" y1="-36.0771" x2="652.761" y2="192.923" gradientUnits="userSpaceOnUse">
<stop stop-color="white"/>
<stop offset="1" stop-color="#F2F4F7"/>
</linearGradient>
</defs>
</svg>
