<svg width="68" height="18" viewBox="0 0 68 18" fill="none" xmlns="http://www.w3.org/2000/svg">
<path d="M8.70002 2.56191V8.30271M8.7 9.18974V14.9305M14.761 8.74352H9.1354M8.26453 8.74362L2.6389 8.74362M0.699951 1.59355L0.699951 8.22377M0.699992 9.26972L0.699991 15.8999M16.6999 1.59358V8.2238M16.6997 9.26972V15.8999M9.17259 0.700424L15.6042 0.700424M1.71958 0.700195L8.15118 0.700195M9.17259 16.7171H15.6042M1.71958 16.7173H8.15118" stroke="#2A1B00" stroke-opacity="0.4" stroke-width="1.4"/>
<path d="M24.556 12.2022H28.63V13.7002H22.946V3.9002H24.556V12.2022ZM35.5603 6.1402H36.7643V13.7002H35.5043L35.3503 12.7762C34.6223 13.5135 33.7123 13.8822 32.6203 13.8822C31.4909 13.8822 30.5483 13.5042 29.7923 12.7482C29.0456 11.9922 28.6723 11.0495 28.6723 9.9202C28.6723 8.78153 29.0456 7.83886 29.7923 7.0922C30.5483 6.3362 31.4909 5.9582 32.6203 5.9582C33.7309 5.9582 34.6503 6.33153 35.3783 7.0782L35.5603 6.1402ZM30.9543 11.6982C31.4303 12.1649 32.0229 12.3982 32.7323 12.3982C33.4509 12.3982 34.0389 12.1649 34.4963 11.6982C34.9629 11.2222 35.1963 10.6295 35.1963 9.9202C35.1963 9.20153 34.9629 8.60886 34.4963 8.1422C34.0389 7.67553 33.4509 7.4422 32.7323 7.4422C32.2656 7.4422 31.8409 7.54953 31.4583 7.7642C31.0849 7.97886 30.7909 8.27753 30.5763 8.6602C30.3616 9.03353 30.2543 9.45353 30.2543 9.9202C30.2543 10.6295 30.4876 11.2222 30.9543 11.6982ZM43.8103 6.1402H45.4763L42.0043 13.8402C41.5657 14.8015 41.1177 15.4689 40.6603 15.8422C40.2123 16.2249 39.6103 16.4162 38.8543 16.4162H38.0843V15.0162H38.7283C39.223 15.0162 39.587 14.9182 39.8203 14.7222C40.0537 14.5262 40.3103 14.1202 40.5903 13.5042L40.7583 13.1542L37.4683 6.1402H39.1623L41.5563 11.4182L43.8103 6.1402ZM52.2284 12.7622C51.463 13.5089 50.5017 13.8822 49.3444 13.8822C48.187 13.8822 47.221 13.5089 46.4464 12.7622C45.681 12.0062 45.2984 11.0589 45.2984 9.9202C45.2984 9.17353 45.471 8.49686 45.8164 7.8902C46.171 7.28353 46.6564 6.8122 47.2724 6.4762C47.8977 6.13086 48.5884 5.9582 49.3444 5.9582C50.1004 5.9582 50.7864 6.13086 51.4024 6.4762C52.0277 6.8122 52.513 7.28353 52.8584 7.8902C53.213 8.49686 53.3904 9.17353 53.3904 9.9202C53.3904 11.0589 53.003 12.0062 52.2284 12.7622ZM49.3444 12.3982C49.8204 12.3982 50.245 12.2955 50.6184 12.0902C50.9917 11.8755 51.281 11.5815 51.4864 11.2082C51.701 10.8255 51.8084 10.3962 51.8084 9.9202C51.8084 9.20153 51.575 8.60886 51.1084 8.1422C50.651 7.67553 50.063 7.4422 49.3444 7.4422C48.6257 7.4422 48.033 7.67553 47.5664 8.1422C47.109 8.60886 46.8804 9.20153 46.8804 9.9202C46.8804 10.6389 47.109 11.2315 47.5664 11.6982C48.033 12.1649 48.6257 12.3982 49.3444 12.3982ZM57.8039 13.8822C56.7679 13.8822 55.9372 13.5742 55.3119 12.9582C54.6865 12.3422 54.3739 11.5255 54.3739 10.5082V6.1402H55.9279V10.2842C55.9279 10.9469 56.0959 11.4649 56.4319 11.8382C56.7679 12.2115 57.2252 12.3982 57.8039 12.3982C58.3919 12.3982 58.8539 12.2115 59.1899 11.8382C59.5259 11.4555 59.6939 10.9375 59.6939 10.2842V6.1402H61.2479V10.5082C61.2479 11.5255 60.9352 12.3422 60.3099 12.9582C59.6845 13.5742 58.8492 13.8822 57.8039 13.8822ZM66.1456 12.2862H66.9996V13.7002H65.8516C65.3009 13.7002 64.8249 13.5929 64.4236 13.3782C64.0222 13.1635 63.7142 12.8555 63.4996 12.4542C63.2849 12.0435 63.1776 11.5629 63.1776 11.0122V7.4702H61.8196V7.1762L64.4516 4.3762H64.7176V6.1402H66.9576V7.4702H64.7316V10.8862C64.7316 11.3342 64.8529 11.6795 65.0956 11.9222C65.3382 12.1649 65.6882 12.2862 66.1456 12.2862Z" fill="#2A1B00" fill-opacity="0.4"/>
<a href="https://layout.pics/">
<rect fill="black" fill-opacity="0" x="6.42633" y="0.554" width="39.2793" height="17.892"/>
</a>
</svg>
