<svg width="68" height="20" viewBox="0 0 68 20" fill="none" xmlns="http://www.w3.org/2000/svg">
<path d="M8.70002 2.56171V8.30251M8.7 9.18954V14.9303M14.761 8.74332H9.1354M8.26453 8.74342L2.6389 8.74342M0.699951 1.59335L0.699951 8.22357M0.699992 9.26952L0.699991 15.8997M16.6999 1.59338V8.2236M16.6997 9.26952V15.8997M9.17259 0.700225L15.6042 0.700225M1.71958 0.699997L8.15118 0.699997M9.17259 16.7169H15.6042M1.71958 16.7171H8.15118" stroke="#2A1B00" stroke-opacity="0.4" stroke-width="1.4"/>
<path d="M24.556 12.202H28.63V13.7H22.946V3.9H24.556V12.202ZM35.5603 6.14H36.7643V13.7H35.5043L35.3503 12.776C34.6223 13.5133 33.7123 13.882 32.6203 13.882C31.4909 13.882 30.5483 13.504 29.7923 12.748C29.0456 11.992 28.6723 11.0493 28.6723 9.92C28.6723 8.78133 29.0456 7.83866 29.7923 7.092C30.5483 6.336 31.4909 5.958 32.6203 5.958C33.7309 5.958 34.6503 6.33133 35.3783 7.078L35.5603 6.14ZM30.9543 11.698C31.4303 12.1647 32.0229 12.398 32.7323 12.398C33.4509 12.398 34.0389 12.1647 34.4963 11.698C34.9629 11.222 35.1963 10.6293 35.1963 9.92C35.1963 9.20133 34.9629 8.60866 34.4963 8.142C34.0389 7.67533 33.4509 7.442 32.7323 7.442C32.2656 7.442 31.8409 7.54933 31.4583 7.764C31.0849 7.97866 30.7909 8.27733 30.5763 8.66C30.3616 9.03333 30.2543 9.45333 30.2543 9.92C30.2543 10.6293 30.4876 11.222 30.9543 11.698ZM43.8103 6.14H45.4763L42.0043 13.84C41.5657 14.8013 41.1177 15.4687 40.6603 15.842C40.2123 16.2247 39.6103 16.416 38.8543 16.416H38.0843V15.016H38.7283C39.223 15.016 39.587 14.918 39.8203 14.722C40.0537 14.526 40.3103 14.12 40.5903 13.504L40.7583 13.154L37.4683 6.14H39.1623L41.5563 11.418L43.8103 6.14ZM52.2284 12.762C51.463 13.5087 50.5017 13.882 49.3444 13.882C48.187 13.882 47.221 13.5087 46.4464 12.762C45.681 12.006 45.2984 11.0587 45.2984 9.92C45.2984 9.17333 45.471 8.49666 45.8164 7.89C46.171 7.28333 46.6564 6.812 47.2724 6.476C47.8977 6.13066 48.5884 5.958 49.3444 5.958C50.1004 5.958 50.7864 6.13066 51.4024 6.476C52.0277 6.812 52.513 7.28333 52.8584 7.89C53.213 8.49666 53.3904 9.17333 53.3904 9.92C53.3904 11.0587 53.003 12.006 52.2284 12.762ZM49.3444 12.398C49.8204 12.398 50.245 12.2953 50.6184 12.09C50.9917 11.8753 51.281 11.5813 51.4864 11.208C51.701 10.8253 51.8084 10.396 51.8084 9.92C51.8084 9.20133 51.575 8.60866 51.1084 8.142C50.651 7.67533 50.063 7.442 49.3444 7.442C48.6257 7.442 48.033 7.67533 47.5664 8.142C47.109 8.60866 46.8804 9.20133 46.8804 9.92C46.8804 10.6387 47.109 11.2313 47.5664 11.698C48.033 12.1647 48.6257 12.398 49.3444 12.398ZM57.8039 13.882C56.7679 13.882 55.9372 13.574 55.3119 12.958C54.6865 12.342 54.3739 11.5253 54.3739 10.508V6.14H55.9279V10.284C55.9279 10.9467 56.0959 11.4647 56.4319 11.838C56.7679 12.2113 57.2252 12.398 57.8039 12.398C58.3919 12.398 58.8539 12.2113 59.1899 11.838C59.5259 11.4553 59.6939 10.9373 59.6939 10.284V6.14H61.2479V10.508C61.2479 11.5253 60.9352 12.342 60.3099 12.958C59.6845 13.574 58.8492 13.882 57.8039 13.882ZM66.1456 12.286H66.9996V13.7H65.8516C65.3009 13.7 64.8249 13.5927 64.4236 13.378C64.0222 13.1633 63.7142 12.8553 63.4996 12.454C63.2849 12.0433 63.1776 11.5627 63.1776 11.012V7.47H61.8196V7.176L64.4516 4.376H64.7176V6.14H66.9576V7.47H64.7316V10.886C64.7316 11.334 64.8529 11.6793 65.0956 11.922C65.3382 12.1647 65.6882 12.286 66.1456 12.286Z" fill="#2A1B00" fill-opacity="0.4"/>
<a href="https://layout.pics/">
<rect fill="black" fill-opacity="0" x="6.42633" y="0.554" width="39.2793" height="17.892"/>
</a>
</svg>
