<svg width="138" height="34" viewBox="0 0 138 34" fill="none" xmlns="http://www.w3.org/2000/svg">
<g clip-path="url(#clip0_3187_700)">
<g filter="url(#filter0_d_3187_700)">
<path d="M14.7379 26.7742C22.5677 26.7742 28.9152 20.9033 28.9152 13.6613C28.9152 10.5065 27.7106 7.61196 25.7039 5.34957C25.5999 5.23232 25.4938 5.11678 25.3855 5.00299C22.7873 2.27178 18.9802 0.54834 14.7379 0.54834C6.90795 0.54834 0.560547 6.41919 0.560547 13.6613C0.560547 17.184 2.0624 20.3822 4.50619 22.7382L4.5273 22.7585C4.71814 23.798 3.50506 25.9746 2.1146 28.1068C3.0961 27.9735 4.55405 27.4094 7.38952 24.8775L7.40084 24.8839C7.68036 25.0405 7.96621 25.1885 8.25794 25.3274C8.75983 25.5664 9.27913 25.7784 9.81363 25.9616C11.3474 26.4871 13.0065 26.7742 14.7379 26.7742Z" fill="#FEFEFE"/>
<path d="M17.9549 28.5865C25.3631 28.5865 31.3688 22.8589 31.3688 15.7934C31.3688 11.4811 29.1316 7.66715 25.7038 5.34961C27.7105 7.612 28.915 10.5065 28.915 13.6613C28.915 20.9033 22.5676 26.7742 14.7377 26.7742C13.0063 26.7742 11.3473 26.4871 9.81348 25.9616C12.0711 27.6083 14.8932 28.5865 17.9549 28.5865Z" fill="#F1D7E6"/>
<path d="M20.545 31.1451C28.7814 31.1451 35.4584 25.1311 35.4584 17.7124C35.4584 11.8197 31.2459 6.81329 25.3854 5.00293C25.4937 5.11672 25.5998 5.23227 25.7038 5.34951C29.1316 7.66705 31.3689 11.481 31.3689 15.7933C31.3689 22.8588 25.3632 28.5864 17.9549 28.5864C14.8932 28.5864 12.0711 27.6082 9.8135 25.9615C9.279 25.7784 8.75971 25.5664 8.25781 25.3274C10.9476 28.8417 15.4476 31.1451 20.545 31.1451Z" fill="#FEFEFE"/>
<path d="M25.3855 5.00299C22.7873 2.27178 18.9802 0.54834 14.7379 0.54834C6.90795 0.54834 0.560547 6.41919 0.560547 13.6613C0.560547 17.184 2.0624 20.3822 4.50619 22.7382L4.5273 22.7585C4.71233 23.7663 3.57766 25.843 2.24113 27.9119C2.19146 27.9888 2.25575 28.0861 2.34694 28.0683C3.32558 27.8764 4.76947 27.2171 7.38952 24.8775L7.40084 24.8839C7.68036 25.0405 7.96621 25.1885 8.25794 25.3274C8.75983 25.5664 9.27913 25.7784 9.81363 25.9616C11.3474 26.4871 13.0065 26.7742 14.7379 26.7742C22.5677 26.7742 28.9152 20.9033 28.9152 13.6613C28.9152 10.5065 27.7106 7.61196 25.7039 5.34957C25.5999 5.23232 25.4938 5.11678 25.3855 5.00299ZM8.25794 25.3274C10.9477 28.8417 15.4477 31.1452 20.5451 31.1452C28.7815 31.1452 35.4585 25.1311 35.4585 17.7124C35.4585 11.8198 31.246 6.81334 25.3855 5.00299" stroke="#7F0851" stroke-width="1.12195"/>
<path d="M32.4332 34.0228C35.2791 34.0228 37.5861 31.7675 37.5861 28.9855C37.5861 26.2035 35.2791 23.9482 32.4332 23.9482C29.5873 23.9482 27.2803 26.2035 27.2803 28.9855C27.2803 31.7675 29.5873 34.0228 32.4332 34.0228Z" fill="#FEFDFE"/>
<path d="M32.406 32.3711C34.3032 32.3711 35.8412 30.8676 35.8412 29.013C35.8412 27.1583 34.3032 25.6548 32.406 25.6548C30.5087 25.6548 28.9707 27.1583 28.9707 29.013C28.9707 30.8676 30.5087 32.3711 32.406 32.3711Z" fill="#5CBA1A"/>
<path d="M14.6887 20.3241C28.1083 14.7038 20.2854 3.72979 14.6736 9.77619C9.06178 3.72979 1.26915 14.7038 14.6887 20.3241Z" fill="#FF239E" stroke="#7F0851" stroke-width="1.12195"/>
<path fill-rule="evenodd" clip-rule="evenodd" d="M14.6736 9.98873C9.06178 3.94233 1.26915 14.7031 14.6887 20.3234C15.7169 19.8928 16.6205 19.4308 17.4098 18.9473C7.64927 18.9473 5.90438 7.37042 14.6736 9.98873Z" fill="#C70E79"/>
<path d="M14.6887 20.3241C28.1083 14.7038 20.2854 3.72979 14.6736 9.77619C9.06178 3.72979 1.26915 14.7038 14.6887 20.3241Z" stroke="#7F0851" stroke-width="1.12195"/>
<path d="M20.047 11.8977C20.0578 11.579 19.9909 11.2622 19.8518 10.9738C19.7127 10.6854 19.5054 10.4334 19.2471 10.2387C18.9887 10.044 18.6868 9.91211 18.366 9.85399C18.0452 9.79587 17.7149 9.81316 17.4023 9.90441" stroke="#FEFEFF" stroke-width="0.872451" stroke-linecap="round"/>
</g>
<path d="M55.3418 26.3384C53.4486 26.3384 51.9428 25.9801 50.8248 25.2635C49.7097 24.5388 49.0299 23.5041 48.7855 22.1595C48.5441 20.8068 48.7771 19.1803 49.4846 17.28L49.4891 17.268C50.1937 15.3758 51.1688 13.7574 52.4145 12.4128C53.6718 11.0601 55.1221 10.0254 56.765 9.3088C58.4168 8.59219 60.1892 8.23389 62.0825 8.23389C63.7217 8.23389 65.0614 8.5318 66.1017 9.12764C67.1451 9.71542 67.8445 10.5206 68.2001 11.5431C68.5556 12.5658 68.5213 13.7292 68.097 15.0336L68.0606 15.1664H63.4063L63.4429 14.9974C63.5714 14.3935 63.5516 13.8581 63.3837 13.3911C63.2245 12.9241 62.9211 12.5617 62.4735 12.3041C62.029 12.0383 61.443 11.9055 60.7155 11.9055C59.8302 11.9055 58.9882 12.1188 58.1895 12.5456C57.3908 12.9723 56.6677 13.5843 56.0202 14.3815C55.3728 15.1786 54.8408 16.1368 54.4241 17.2559L54.4196 17.268C53.9999 18.3952 53.8154 19.3615 53.8663 20.1666C53.9171 20.9719 54.1814 21.5918 54.6595 22.0267C55.1492 22.4534 55.8323 22.6667 56.7088 22.6667C57.4101 22.6667 58.0789 22.5419 58.7152 22.2923C59.3546 22.0347 59.9366 21.6724 60.461 21.2054C60.9855 20.7384 61.4232 20.1868 61.7739 19.5507L61.8366 19.4179H66.4909L66.4369 19.5628C65.8811 20.8671 65.0403 22.0306 63.9146 23.0532C62.8006 24.0678 61.503 24.8689 60.022 25.4567C58.541 26.0445 56.9809 26.3384 55.3418 26.3384Z" fill="#2A1B00"/>
<path d="M65.4805 26.0002L72.0414 8.37891H76.6957L74.1865 15.1183H74.318C74.9804 14.2809 75.7592 13.6367 76.6547 13.1859C77.5588 12.735 78.5456 12.5095 79.6149 12.5095C80.6668 12.5095 81.4843 12.7148 82.0677 13.1254C82.6542 13.5281 82.9993 14.1078 83.1031 14.8646C83.2187 15.6135 83.0787 16.5193 82.683 17.5821L79.5487 26.0002H74.8812L77.6737 18.5001C77.9645 17.7189 77.9952 17.107 77.7656 16.6642C77.5361 16.2214 77.0356 16 76.2642 16C75.7734 16 75.3079 16.1087 74.8675 16.326C74.4302 16.5354 74.0403 16.8292 73.6978 17.2077C73.367 17.5781 73.1087 18.0129 72.9228 18.5121L70.1348 26.0002H65.4805Z" fill="#2A1B00"/>
<path d="M85.3617 26.1928C84.415 26.1928 83.6424 26.0197 83.0437 25.6735C82.4539 25.3272 82.0639 24.8563 81.8739 24.2604C81.6955 23.6565 81.7502 22.9681 82.038 22.1951L82.0425 22.183C82.3513 21.3537 82.8371 20.6492 83.5 20.0694C84.1716 19.4896 84.9984 19.0348 85.9803 18.7047C86.9652 18.3664 88.0891 18.1611 89.352 18.0887L95.1533 17.7626L94.2314 20.2385L89.1885 20.5405C88.5162 20.5807 87.9684 20.7217 87.5454 20.9632C87.1342 21.1967 86.8567 21.5067 86.7127 21.8931L86.7038 21.9174C86.5508 22.328 86.6033 22.6461 86.8613 22.8714C87.128 23.0969 87.5505 23.2096 88.129 23.2096C88.6198 23.2096 89.0896 23.1251 89.5382 22.956C89.9868 22.7869 90.3747 22.5574 90.7017 22.2676C91.0405 21.9697 91.2774 21.6395 91.4124 21.2772L92.9368 17.1829C93.1137 16.7078 93.0806 16.3374 92.8377 16.0717C92.6066 15.7979 92.171 15.661 91.5312 15.661C90.9001 15.661 90.36 15.7697 89.911 15.9872C89.4706 16.2046 89.1422 16.4864 88.9255 16.8326L88.8588 16.9413H84.6515L84.7231 16.7843C85.1198 15.9308 85.7082 15.186 86.4886 14.5499C87.2718 13.9058 88.2114 13.4066 89.3076 13.0522C90.4066 12.69 91.618 12.5088 92.9415 12.5088C94.2388 12.5088 95.2961 12.6939 96.1137 13.0644C96.9311 13.4348 97.4726 13.9581 97.7379 14.6344C98.015 15.3027 97.9856 16.0878 97.65 16.9897L94.2953 25.9995H89.654L90.3376 24.1638H90.2061C89.793 24.5905 89.3279 24.9568 88.8108 25.2628C88.2967 25.5607 87.7467 25.7903 87.1608 25.9513C86.5837 26.1123 85.984 26.1928 85.3617 26.1928Z" fill="#2A1B00"/>
<path d="M102.146 26.2294C100.385 26.2294 99.2071 25.9193 98.6141 25.2993C98.0209 24.6793 97.9956 23.6407 98.5383 22.1833L100.863 15.9391H98.8778L100.047 12.799H102.032L103.166 9.75537H107.846L106.713 12.799H109.343L108.173 15.9391H105.544L103.462 21.5311C103.255 22.0867 103.247 22.4852 103.437 22.7269C103.631 22.9604 104.013 23.0771 104.582 23.0771C104.793 23.0771 104.969 23.073 105.113 23.065C105.259 23.0489 105.401 23.0327 105.538 23.0167L104.401 26.0723C104.131 26.1126 103.807 26.1488 103.427 26.181C103.055 26.2133 102.629 26.2294 102.146 26.2294Z" fill="#2A1B00"/>
<path d="M110.519 26.2901C109.459 26.2901 108.634 26.0929 108.044 25.6983C107.464 25.3037 107.12 24.7321 107.013 23.9832C106.915 23.2345 107.059 22.3407 107.446 21.3019L110.612 12.7993H115.279L112.46 20.372C112.175 21.137 112.142 21.7328 112.36 22.1595C112.586 22.5863 113.081 22.7996 113.844 22.7996C114.221 22.7996 114.577 22.7393 114.91 22.6185C115.253 22.4977 115.571 22.3286 115.861 22.1113C116.165 21.8858 116.426 21.62 116.646 21.3141C116.864 21.0081 117.043 20.67 117.181 20.2996L119.973 12.7993H124.641L119.725 26.0002H115.058L115.904 23.7297H115.785C115.351 24.261 114.859 24.72 114.313 25.1064C113.775 25.4929 113.188 25.7869 112.552 25.9881C111.915 26.1894 111.238 26.2901 110.519 26.2901Z" fill="#2A1B00"/>
<path d="M127.605 26.2894C126.176 26.2894 125.038 26.1082 124.192 25.746C123.345 25.3836 122.768 24.8844 122.462 24.2483C122.155 23.6122 122.107 22.8714 122.316 22.026L122.339 21.9294H126.861L126.852 22.026C126.819 22.4447 126.944 22.7789 127.228 23.0285C127.524 23.27 128.009 23.3908 128.685 23.3908C129.096 23.3908 129.468 23.3466 129.799 23.2579C130.13 23.1693 130.404 23.0446 130.622 22.8835C130.851 22.7145 131.008 22.5172 131.092 22.2917L131.097 22.2796C131.208 21.9817 131.164 21.7442 130.968 21.567C130.774 21.3819 130.379 21.2289 129.784 21.1082L127.43 20.6492C126.555 20.48 125.863 20.2224 125.351 19.8761C124.85 19.53 124.532 19.0992 124.4 18.5838C124.279 18.0606 124.343 17.4647 124.592 16.7964L124.596 16.7843C124.926 15.8986 125.468 15.1376 126.222 14.5016C126.976 13.8655 127.895 13.3744 128.98 13.0281C130.072 12.6819 131.267 12.5088 132.565 12.5088C133.959 12.5088 135.05 12.7061 135.841 13.1006C136.645 13.4871 137.168 14.0024 137.41 14.6465C137.66 15.2906 137.651 15.9993 137.381 16.7722L137.345 16.8688H133.085L133.112 16.7601C133.195 16.3978 133.107 16.0798 132.849 15.806C132.592 15.5323 132.139 15.3954 131.491 15.3954C131.114 15.3954 130.767 15.4436 130.45 15.5403C130.136 15.6289 129.869 15.7577 129.649 15.9268C129.428 16.0959 129.275 16.2972 129.187 16.5307L129.183 16.5427C129.111 16.736 129.101 16.9051 129.152 17.05C129.215 17.1869 129.357 17.3117 129.578 17.4244C129.802 17.5291 130.125 17.6257 130.548 17.7143L132.902 18.1732C134.316 18.4469 135.261 18.8737 135.738 19.4535C136.215 20.0332 136.27 20.8142 135.904 21.7965L135.9 21.8087C135.561 22.7184 134.985 23.5116 134.173 24.1879C133.372 24.8563 132.403 25.3756 131.265 25.746C130.14 26.1082 128.92 26.2894 127.605 26.2894Z" fill="#2A1B00"/>
</g>
<defs>
<filter id="filter0_d_3187_700" x="0" y="-0.0126953" width="37.5859" height="36.0005" filterUnits="userSpaceOnUse" color-interpolation-filters="sRGB">
<feFlood flood-opacity="0" result="BackgroundImageFix"/>
<feColorMatrix in="SourceAlpha" type="matrix" values="0 0 0 0 0 0 0 0 0 0 0 0 0 0 0 0 0 0 127 0" result="hardAlpha"/>
<feOffset dy="1.96482"/>
<feComposite in2="hardAlpha" operator="out"/>
<feColorMatrix type="matrix" values="0 0 0 0 0 0 0 0 0 0 0 0 0 0 0 0 0 0 0.15 0"/>
<feBlend mode="normal" in2="BackgroundImageFix" result="effect1_dropShadow_3187_700"/>
<feBlend mode="normal" in="SourceGraphic" in2="effect1_dropShadow_3187_700" result="shape"/>
</filter>
<clipPath id="clip0_3187_700">
<rect width="138" height="34" fill="white"/>
</clipPath>
</defs>
</svg>
