<svg width="66" height="19" viewBox="0 0 66 19" fill="none" xmlns="http://www.w3.org/2000/svg">
<path d="M28.4757 6.06022C29.5414 6.06022 30.2656 6.40878 30.6946 7.10593C31.1167 7.80305 31.2844 8.68784 31.2844 9.95475V13.7286H29.0322V9.95475C29.0322 8.63422 28.5696 7.97063 27.6512 7.97063C26.639 7.97063 26.0559 8.72808 26.0559 9.95475V13.7286H23.8037V9.95475C23.8037 8.66105 23.3814 7.97063 22.4362 7.97063C21.424 7.97063 20.8409 8.72808 20.8409 9.95475V13.7286H18.5886V6.1809H20.7403L20.8409 7.17966C21.2297 6.4356 22.034 6.06022 23.2607 6.06022C24.5008 6.06022 25.3253 6.57637 25.7207 7.60866C26.2369 6.57637 27.1551 6.06022 28.4757 6.06022ZM35.8091 6.06022C36.9886 6.06022 37.9137 6.47581 38.3226 7.17966L38.4166 6.1809H40.5682V13.7286H38.4166L38.3226 12.7231C37.9271 13.4672 37.0892 13.8425 35.8091 13.8425C33.8718 13.8828 32.263 12.2204 32.2899 9.95475C32.263 7.68908 33.8718 6.02002 35.8091 6.06022ZM35.0918 11.3825C35.4537 11.7512 35.9028 11.9389 36.4324 11.9389C36.9619 11.9389 37.411 11.7512 37.7795 11.3825C38.1418 11.0138 38.3226 10.5379 38.3226 9.95475C38.3226 9.37158 38.1418 8.88896 37.7795 8.52028C37.411 8.15161 36.9619 7.97063 36.4324 7.97063C35.9028 7.97063 35.4537 8.15161 35.0918 8.52028C34.7298 8.88896 34.5487 9.37158 34.5487 9.95475C34.5487 10.5379 34.7298 11.0138 35.0918 11.3825ZM41.9558 13.7286V3.4326H44.2079V13.7286H41.9558ZM46.7484 5.30278C46.3799 5.30278 46.0715 5.17543 45.8168 4.91399C45.5554 4.65258 45.4279 4.34422 45.4279 3.98225C45.4279 3.62028 45.5554 3.31196 45.8168 3.05052C46.0715 2.79581 46.3799 2.66846 46.7484 2.66846C47.1038 2.66846 47.4121 2.79581 47.6735 3.05052C47.9282 3.31196 48.0555 3.62028 48.0555 3.98225C48.0555 4.34422 47.9282 4.65258 47.6735 4.91399C47.4121 5.17543 47.1038 5.30278 46.7484 5.30278ZM45.6156 6.1809H47.8678V13.8895C47.8678 14.8413 47.6735 15.5385 47.278 15.9808C46.8825 16.4233 46.2188 16.6445 45.2938 16.6445C44.8782 16.6445 44.3957 16.6043 43.8394 16.5305V14.8279C44.275 14.915 44.6504 14.915 44.9722 14.8413C45.4012 14.7542 45.6156 14.4391 45.6156 13.8962V6.1809ZM53.0026 13.8425C51.8829 13.8425 50.8576 13.4739 50.0999 12.8237C49.3425 12.1735 48.8599 11.1412 48.8599 9.95475C48.8599 8.76828 49.3425 7.72931 50.0999 7.07911C50.8576 6.43561 51.8829 6.06022 53.0026 6.06022C54.1085 6.06022 55.1407 6.43561 55.8981 7.07911C56.6555 7.72931 57.1384 8.76828 57.1384 9.95475C57.1384 11.1412 56.6555 12.1735 55.8981 12.8237C55.1407 13.4739 54.1085 13.8425 53.0026 13.8425ZM51.6617 11.3892C52.0239 11.7579 52.473 11.9456 53.0026 11.9456C53.5319 11.9456 53.9812 11.7579 54.3498 11.3892C54.7117 11.0205 54.8928 10.5379 54.8928 9.95475C54.8928 9.37158 54.7117 8.88896 54.3498 8.52028C53.9812 8.15161 53.5319 7.96393 53.0026 7.96393C52.473 7.96393 52.0239 8.15161 51.6617 8.52028C51.2932 8.88896 51.1121 9.37158 51.1121 9.95475C51.1121 10.5379 51.2932 11.0205 51.6617 11.3892ZM61.4751 11.7981L63.1845 6.1809H65.6379L62.7891 13.5744C62.3801 14.6402 61.817 15.3843 61.1132 15.8133C60.4094 16.2423 59.4777 16.3898 58.318 16.2557L58.2042 14.6C59.4576 14.6469 60.0474 14.3855 60.0944 13.628L57.3058 6.1809H59.7591L61.4751 11.7981Z" fill="#665D4B"/>
<path d="M0 2.80903C0 2.01359 0.846186 1.50358 1.54942 1.87526L9.33368 5.99038C8.99418 5.87237 8.62953 5.80812 8.24985 5.80812C6.42733 5.80812 4.94991 7.28554 4.94991 9.10806C4.94991 11.9514 9.46507 12.363 6.78499 14.5725L1.55561 17.3806C0.852145 17.7583 4.94294e-05 17.2488 0 16.4504V2.80903ZM13.9134 8.41172C14.8474 8.90549 14.8517 10.2418 13.9208 10.7415L10.5467 12.5529C11.1103 11.6775 11.5498 9.95759 11.5498 9.10806C11.5498 8.02013 11.023 7.05557 10.211 6.45443L13.9134 8.41172Z" fill="#665D4B"/>
<mask id="mask0_1232_2672" style="mask-type:alpha" maskUnits="userSpaceOnUse" x="0" y="0" width="15" height="17">
<path d="M0 2.01739V15.6588C0 16.4573 0.852015 16.9669 1.5555 16.5892L13.9209 9.94999C14.8517 9.45022 14.8474 8.11386 13.9134 7.62011L1.54951 1.08383C0.84625 0.71205 0 1.2219 0 2.01739Z" fill="#D9D9D9"/>
</mask>
<g mask="url(#mask0_1232_2672)">
<path d="M4.22376 0.528809H-0.26416V7.12869H4.22376V0.528809Z" fill="#7B7B7B"/>
</g>
<mask id="mask1_1232_2672" style="mask-type:alpha" maskUnits="userSpaceOnUse" x="0" y="1" width="16" height="17">
<path d="M0 2.16832V16.4506C0 17.249 0.852015 17.7587 1.5555 17.3809L14.7634 10.2894C15.4709 9.90953 15.6781 8.9912 15.2023 8.3443L10.2298 1.58442L1.11041 1.11374C0.50663 1.08258 0 1.56373 0 2.16832Z" fill="#D9D9D9"/>
</mask>
<g mask="url(#mask1_1232_2672)">
<path d="M6.00629 2.37598C9.5055 2.37598 12.3422 5.21266 12.3422 8.71186C12.3422 11.0523 11.073 13.096 9.18559 14.1931C9.73868 13.7228 9.93837 13.1856 10.2302 12.9358C10.9373 12.3305 11.5502 10.1115 11.5502 9.10785C11.5502 7.28534 10.0728 5.80791 8.25025 5.80791C6.42773 5.80791 4.95031 7.28534 4.95031 9.10785C4.95031 12.1432 10.096 12.4075 6.14061 15.0459C6.09595 15.0469 6.05117 15.0477 6.00629 15.0477C2.50708 15.0477 -0.32959 12.2111 -0.32959 8.71186C-0.32959 5.21266 2.50708 2.37598 6.00629 2.37598Z" fill="#665D4B"/>
</g>
<path d="M9.1748 9.24071C9.6122 9.24071 9.96678 8.88613 9.96678 8.44872C9.96678 8.01132 9.6122 7.65674 9.1748 7.65674C8.7374 7.65674 8.38281 8.01132 8.38281 8.44872C8.38281 8.88613 8.7374 9.24071 9.1748 9.24071Z" fill="#665D4B"/>
<path d="M46.8582 5.54408C47.6601 5.54408 48.3102 4.89401 48.3102 4.09211C48.3102 3.29021 47.6601 2.64014 46.8582 2.64014C46.0563 2.64014 45.4062 3.29021 45.4062 4.09211C45.4062 4.89401 46.0563 5.54408 46.8582 5.54408Z" fill="#7B7B7B"/>
</svg>
