<svg width="50" height="50" viewBox="0 0 50 50" fill="none" xmlns="http://www.w3.org/2000/svg">
<g opacity="0.2">
<path d="M25 0C25.8284 0 26.5 0.671573 26.5 1.5C26.5 2.60558 25.5 3.65109 25.5 4.75667V20.1869C25.5 21.2571 26.3646 22.1215 27.1211 22.8785C27.8776 23.6354 28.7419 24.5 29.8121 24.5H45.2415C46.3476 24.5 47.394 23.5 48.5 23.5C49.3284 23.5 50 24.1716 50 25C50 25.8284 49.3284 26.5 48.5 26.5C47.394 26.5 46.3476 25.5 45.2415 25.5H29.8118C28.7418 25.5 27.8776 26.3644 27.121 27.121C26.3644 27.8776 25.5 28.7418 25.5 29.8118V45.2415C25.5 46.3476 26.5 47.394 26.5 48.5C26.5 49.3284 25.8284 50 25 50C24.1716 50 23.5 49.3284 23.5 48.5C23.5 47.394 24.5 46.3476 24.5 45.2415V29.8118C24.5 28.7418 23.6356 27.8776 22.879 27.121C22.1224 26.3644 21.2582 25.5 20.1882 25.5H4.75848C3.65244 25.5 2.60603 26.5 1.5 26.5C0.671573 26.5 0 25.8284 0 25C0 24.1716 0.671573 23.5 1.5 23.5C2.60604 23.5 3.65244 24.5 4.75848 24.5H20.1879C21.2581 24.5 22.1224 23.6354 22.8789 22.8785C23.6354 22.1215 24.5 21.2571 24.5 20.1869V4.75667C24.5 3.65108 23.5 2.60558 23.5 1.5C23.5 0.671573 24.1716 0 25 0Z" fill="white"/>
<path d="M25 0C25.8284 0 26.5 0.671573 26.5 1.5C26.5 2.60558 25.5 3.65109 25.5 4.75667V20.1869C25.5 21.2571 26.3646 22.1215 27.1211 22.8785C27.8776 23.6354 28.7419 24.5 29.8121 24.5H45.2415C46.3476 24.5 47.394 23.5 48.5 23.5C49.3284 23.5 50 24.1716 50 25C50 25.8284 49.3284 26.5 48.5 26.5C47.394 26.5 46.3476 25.5 45.2415 25.5H29.8118C28.7418 25.5 27.8776 26.3644 27.121 27.121C26.3644 27.8776 25.5 28.7418 25.5 29.8118V45.2415C25.5 46.3476 26.5 47.394 26.5 48.5C26.5 49.3284 25.8284 50 25 50C24.1716 50 23.5 49.3284 23.5 48.5C23.5 47.394 24.5 46.3476 24.5 45.2415V29.8118C24.5 28.7418 23.6356 27.8776 22.879 27.121C22.1224 26.3644 21.2582 25.5 20.1882 25.5H4.75848C3.65244 25.5 2.60603 26.5 1.5 26.5C0.671573 26.5 0 25.8284 0 25C0 24.1716 0.671573 23.5 1.5 23.5C2.60604 23.5 3.65244 24.5 4.75848 24.5H20.1879C21.2581 24.5 22.1224 23.6354 22.8789 22.8785C23.6354 22.1215 24.5 21.2571 24.5 20.1869V4.75667C24.5 3.65108 23.5 2.60558 23.5 1.5C23.5 0.671573 24.1716 0 25 0Z" fill="#2A1B00"/>
</g>
</svg>
