<svg width="1440" height="1157" viewBox="0 0 1440 1157" fill="none" xmlns="http://www.w3.org/2000/svg">
<g opacity="0.4">
<path d="M255.87 270.142C250.298 295.253 266.598 315.147 292.277 314.576L553.816 308.755C579.495 308.183 604.829 287.363 610.401 262.251L686.908 -82.5539C692.48 -107.666 676.18 -127.559 650.501 -126.988L388.962 -121.167C363.283 -120.596 337.949 -99.7753 332.377 -74.6635L255.87 270.142Z" fill="white"/>
<path d="M-76.0237 716.73C-81.0052 739.181 -66.4326 756.967 -43.4747 756.456L190.35 751.252C213.308 750.741 235.957 732.127 240.939 709.676L309.339 401.408C314.32 378.958 299.747 361.172 276.79 361.683L42.9648 366.887C20.0069 367.398 -2.64235 386.012 -7.62384 408.463L-76.0237 716.73Z" fill="white"/>
<path d="M193.845 1124.46C195.883 1142.84 212.499 1157.4 230.956 1156.99L418.944 1152.81C437.402 1152.4 450.712 1137.17 448.673 1118.79L420.679 866.459C418.64 848.082 402.024 833.517 383.567 833.928L195.579 838.112C177.122 838.523 163.812 853.753 165.85 872.13L193.845 1124.46Z" fill="url(#paint0_linear_609_2342)"/>
</g>
<g opacity="0.5">
<path d="M1257.87 744.023C1263.41 719.049 1247.2 699.263 1221.65 699.832L961.482 705.621C935.937 706.189 910.736 726.896 905.193 751.871L829.086 1094.8C823.543 1119.77 839.758 1139.56 865.303 1138.99L1125.47 1133.2C1151.02 1132.63 1176.22 1111.92 1181.76 1086.95L1257.87 744.023Z" fill="url(#paint1_linear_609_2342)"/>
<path d="M1588.03 299.87C1592.98 277.541 1578.49 259.852 1555.65 260.361L1323.05 265.536C1300.21 266.044 1277.68 284.557 1272.72 306.885L1204.68 613.472C1199.73 635.801 1214.22 653.49 1237.06 652.981L1469.66 647.806C1492.5 647.298 1515.03 628.785 1519.99 606.457L1588.03 299.87Z" fill="url(#paint2_linear_609_2342)"/>
<path d="M1319.57 -105.638C1317.54 -123.915 1301.01 -138.4 1282.65 -137.992L1095.65 -133.831C1077.29 -133.422 1064.05 -118.275 1066.08 -99.9978L1093.92 150.957C1095.95 169.234 1112.48 183.719 1130.84 183.31L1317.85 179.149C1336.21 178.741 1349.45 163.594 1347.42 145.317L1319.57 -105.638Z" fill="url(#paint3_linear_609_2342)"/>
</g>
<defs>
<linearGradient id="paint0_linear_609_2342" x1="324.951" y1="1154.9" x2="317.84" y2="835.39" gradientUnits="userSpaceOnUse">
<stop stop-color="#F2F4F7"/>
<stop offset="1" stop-color="white"/>
</linearGradient>
<linearGradient id="paint1_linear_609_2342" x1="1189.15" y1="-135.91" x2="1203.83" y2="894.299" gradientUnits="userSpaceOnUse">
<stop offset="0.0507679" stop-color="#F2F4F7"/>
<stop offset="0.355769" stop-color="white"/>
<stop offset="0.971154" stop-color="#F2F4F7"/>
</linearGradient>
<linearGradient id="paint2_linear_609_2342" x1="1189.15" y1="-135.91" x2="1203.83" y2="894.299" gradientUnits="userSpaceOnUse">
<stop offset="0.0507679" stop-color="#F2F4F7"/>
<stop offset="0.355769" stop-color="white"/>
<stop offset="0.971154" stop-color="#F2F4F7"/>
</linearGradient>
<linearGradient id="paint3_linear_609_2342" x1="1189.15" y1="-135.91" x2="1203.83" y2="894.299" gradientUnits="userSpaceOnUse">
<stop offset="0.0507679" stop-color="#F2F4F7"/>
<stop offset="0.355769" stop-color="white"/>
<stop offset="0.971154" stop-color="#F2F4F7"/>
</linearGradient>
</defs>
</svg>
