<svg width="64" height="64" viewBox="0 0 64 64" fill="none" xmlns="http://www.w3.org/2000/svg">
<g clip-path="url(#clip0_647_569)">
<path d="M14.2222 8.76469L0 25.6364L14.2222 30.8725L22.5185 11.0918L14.2222 8.76469Z" fill="#FA3198"/>
<path d="M22.5185 11.0918L14.2222 30.8725H49.7778L41.4815 11.0918H22.5185Z" fill="#FEBEDF"/>
<path d="M14.2222 30.8725L32 60.5435L49.7778 30.8725H14.2222Z" fill="#FE53AB"/>
<path d="M0 25.6364L32 60.5435L14.2222 30.8725L0 25.6364Z" fill="#FA3198"/>
<path d="M32 60.5435L64 25.6364L49.7778 30.8725L32 60.5435Z" fill="#FA3198"/>
<path d="M64 25.6364L56.8889 17.2006L49.7778 8.76469L41.4815 11.0918L49.7778 30.8725L64 25.6364Z" fill="#FA3198"/>
<path d="M14.2222 8.76469L22.5185 11.0918H41.4815L49.7778 8.76469L32 6.97827L14.2222 8.76469Z" fill="#FE93CA"/>
<path d="M64 25.6364L32 60.5435L0 25.6364L14.2222 8.76469L32 6.97827L49.7778 8.76469L56.8889 17.2006L64 25.6364ZM0 25.6364L14.2222 30.8725M32 60.5435L14.2222 30.8725M32 60.5435L49.7778 30.8725M14.2222 8.76469L22.5185 11.0918M22.5185 11.0918L14.2222 30.8725M22.5185 11.0918H41.4815M14.2222 30.8725H49.7778M64 25.6364L49.7778 30.8725M49.7778 8.76469L41.4815 11.0918M41.4815 11.0918L49.7778 30.8725" stroke="#DA008A" stroke-width="1.3913"/>
</g>
<defs>
<clipPath id="clip0_647_569">
<rect width="64" height="64" fill="white"/>
</clipPath>
</defs>
</svg>
