<svg width="95" height="80" viewBox="0 0 95 80" fill="none" xmlns="http://www.w3.org/2000/svg">
<path d="M21.7756 3.5731L1.33118 27.8262L21.7756 35.3531L33.7015 6.91836L21.7756 3.5731Z" fill="#FA3198"/>
<path d="M33.7015 6.91836L21.7756 35.3531H72.8867L60.9608 6.91836H33.7015Z" fill="#FEBEDF"/>
<path d="M21.7756 35.3531L47.3312 78.0051L72.8867 35.3531H21.7756Z" fill="#FE53AB"/>
<path d="M1.33118 27.8262L47.3312 78.0051L21.7756 35.3531L1.33118 27.8262Z" fill="#FA3198"/>
<path d="M47.3312 78.0051L93.3312 27.8262L72.8867 35.3531L47.3312 78.0051Z" fill="#FA3198"/>
<path d="M93.3312 27.8262L83.109 15.6997L72.8867 3.5731L60.9608 6.91836L72.8867 35.3531L93.3312 27.8262Z" fill="#FA3198"/>
<path d="M21.7756 3.5731L33.7015 6.91836H60.9608L72.8867 3.5731L47.3312 1.00513L21.7756 3.5731Z" fill="#FE93CA"/>
<path d="M93.3312 27.8262L47.3312 78.0051L1.33118 27.8262L21.7756 3.5731L47.3312 1.00513L72.8867 3.5731L83.109 15.6997L93.3312 27.8262ZM1.33118 27.8262L21.7756 35.3531M47.3312 78.0051L21.7756 35.3531M47.3312 78.0051L72.8867 35.3531M21.7756 3.5731L33.7015 6.91836M33.7015 6.91836L21.7756 35.3531M33.7015 6.91836H60.9608M21.7756 35.3531H72.8867M93.3312 27.8262L72.8867 35.3531M72.8867 3.5731L60.9608 6.91836M60.9608 6.91836L72.8867 35.3531" stroke="#DA008A" stroke-width="2"/>
</svg>
