<svg width="62" height="79" viewBox="0 0 62 79" fill="none" xmlns="http://www.w3.org/2000/svg">
<path d="M50.7662 19.6986L46.5926 16.0951L16.9977 9.43981L13.9623 8.75721L5.80478 6.92273L1.06201 60.6469L43.5572 77.3538L46.2029 49.1813L50.7662 19.6986Z" fill="#FEE8BE"/>
<path d="M43.5572 77.3538L60.062 67.1986L46.2029 49.1813L43.5572 77.3538Z" fill="#2A1B00"/>
<path d="M46.5926 16.0951L50.7662 19.6986L46.2029 49.1813L60.062 67.1986L55.509 14.1296L46.5926 16.0951Z" fill="#A05F3F"/>
<path d="M46.5926 16.0951L55.509 14.1296L13.9623 1.35376L16.9977 9.43981L46.5926 16.0951Z" fill="#6D412B"/>
<path d="M16.9977 9.43981L13.9623 1.35376V8.75721L16.9977 9.43981Z" fill="#FF894E"/>
<path d="M13.9623 8.75721L5.80478 6.92273L1.06201 60.6469L43.5572 77.3538L60.062 67.1986L55.509 14.1296L13.9623 1.35376V8.75721ZM46.5926 16.0951L50.7662 19.6986L46.2029 49.1813L43.5572 77.3538M46.5926 16.0951L55.509 14.1296M13.9623 8.75721L16.9977 9.43981L46.5926 16.0951M60.062 67.1986L46.2029 49.1813M16.9977 9.43981L13.9623 1.35376" stroke="#2A1B00" stroke-width="2"/>
</svg>
