<svg width="179" height="45" viewBox="0 0 179 45" fill="none" xmlns="http://www.w3.org/2000/svg">
<g opacity="0.4">
<path d="M27.832 44.184C24.808 44.184 22.6053 43.568 21.224 42.336C19.8427 41.104 19.0587 39.3866 18.872 37.184C18.6853 34.9813 18.9093 32.0693 19.544 28.448C20.1787 24.7146 21 21.728 22.008 19.488C23.016 17.248 24.3787 15.568 26.096 14.448C27.8133 13.2906 30.0347 12.712 32.76 12.712C34.2907 12.712 35.7093 13.0106 37.016 13.608C38.36 14.168 39.4613 15.0826 40.32 16.352C41.1787 17.6213 41.6453 19.2266 41.72 21.168H42.392C42.6907 19.3013 42.5973 17.5093 42.112 15.792C41.6267 14.0373 40.6 12.6 39.032 11.48C37.464 10.36 35.2987 9.79997 32.536 9.79997C27.944 9.79997 24.4347 11.0133 22.008 13.44C19.6187 15.8666 17.976 19.6186 17.08 24.696L13.776 43.456H7.24363e-06L2.57601 28.84C3.69601 22.6426 5.13334 17.5653 6.88801 13.608C8.68001 9.6133 11.704 6.34663 15.96 3.80797C20.2533 1.2693 26.264 -2.87781e-05 33.992 -2.87781e-05C40.0027 -2.87781e-05 44.688 0.933303 48.048 2.79997C51.4453 4.66663 53.6667 7.01864 54.712 9.85597C55.7947 12.656 56.0747 15.6053 55.552 18.704C55.328 20.0106 55.0853 21.3173 54.824 22.624C54.6 23.9306 54.3573 25.2373 54.096 26.544C53.6853 29.008 53.2187 31.64 52.696 34.44C52.2107 37.2026 51.688 40.264 51.128 43.624H37.576L39.76 35.728H39.144C38.0987 38.1546 36.5493 40.1706 34.496 41.776C32.48 43.3813 30.2587 44.184 27.832 44.184ZM36.176 36.344C36.8107 36.344 37.3707 36.1946 37.856 35.896C38.3787 35.56 38.8827 35.056 39.368 34.384C39.48 33.8613 39.5733 33.3386 39.648 32.816C39.76 32.256 39.8533 31.696 39.928 31.136C40.04 30.6133 40.1333 30.0906 40.208 29.568C40.32 29.008 40.4133 28.4666 40.488 27.944C40.7867 26.2266 40.8053 24.8266 40.544 23.744C40.32 22.6613 39.8347 21.8586 39.088 21.336C38.3413 20.8133 37.3147 20.552 36.008 20.552C35.5973 20.552 35.224 20.608 34.888 20.72C34.552 20.7946 34.2347 20.9253 33.936 21.112C33.5627 22.12 33.208 23.2586 32.872 24.528C32.536 25.76 32.256 27.0666 32.032 28.448C31.7333 29.9786 31.64 31.3413 31.752 32.536C31.9013 33.6933 32.3307 34.6266 33.04 35.336C33.7493 36.008 34.7947 36.344 36.176 36.344ZM70.4419 19.32L69.6019 14.952L72.2899 13.048L75.4259 16.072L77.6659 20.216L72.6819 23.464L70.4419 19.32ZM59.8019 20.216L63.5539 16.072L67.6979 13.048L69.7139 14.952L67.3059 19.32L63.6659 23.464L59.8019 20.216ZM63.3859 12.992L58.9059 11.536L61.4259 6.27197L65.9059 7.78397L69.2659 10.36L67.9219 13.272L63.3859 12.992ZM68.5379 6.04797L69.4899 0.783971H74.8659L73.9699 6.04797L71.8979 10.696L68.8739 10.64L68.5379 6.04797ZM71.6739 10.36L75.9859 7.78397L81.0819 6.27197L81.8099 11.536L76.7139 12.992L72.1219 13.272L71.6739 10.36ZM105.311 43.512C105.386 43.064 105.479 42.4853 105.591 41.776C105.74 41.0293 105.908 40.1706 106.095 39.2C106.431 37.2586 106.767 35.336 107.103 33.432C107.476 31.528 107.756 29.9226 107.943 28.616H102.567C101.41 28.616 100.514 28.7653 99.8791 29.064C99.2444 29.3253 98.7031 29.8293 98.2551 30.576C97.8071 31.2853 97.3777 32.368 96.9671 33.824C96.7057 34.9813 96.4257 36.12 96.1271 37.24C95.8284 38.36 95.5111 39.424 95.1751 40.432C95.0257 40.992 94.8764 41.5333 94.7271 42.056C94.5777 42.5413 94.4097 43.0266 94.2231 43.512H79.3271C79.8497 42.504 80.5031 40.8986 81.2871 38.696C82.0711 36.456 82.6311 34.72 82.9671 33.488C83.6391 30.5386 85.1324 28.4106 87.4471 27.104C89.7617 25.76 93.2524 25.0506 97.9191 24.976L98.0871 23.912C94.8764 23.8746 92.3377 23.5013 90.4711 22.792C88.6417 22.0453 87.3911 20.832 86.7191 19.152C86.0471 17.472 85.9724 15.176 86.4951 12.264C87.0924 9.01597 88.3244 6.55197 90.1911 4.87197C92.0577 3.19197 94.2791 2.09064 96.8551 1.56797C99.4311 1.0453 102.53 0.783971 106.151 0.783971H126.647C126.423 1.9413 126.199 3.09864 125.975 4.25597C125.751 5.4133 125.527 6.60797 125.303 7.83997C124.818 10.304 124.351 12.7493 123.903 15.176C123.455 17.5653 123.026 19.8986 122.615 22.176C122.167 24.752 121.495 28.8026 120.599 34.328C120.188 36.9786 119.703 40.04 119.143 43.512H105.311ZM111.359 10.08H106.935C105.703 10.08 104.639 10.2293 103.743 10.528C102.847 10.8266 102.1 11.368 101.503 12.152C100.906 12.936 100.476 14.0373 100.215 15.456C99.8791 17.3973 100.122 18.816 100.943 19.712C101.764 20.5706 103.09 21 104.919 21H109.455L111.359 10.08ZM158.718 0.783971C158.718 2.57597 158.606 4.19997 158.382 5.65597C157.784 9.01597 156.123 11.7413 153.398 13.832C150.71 15.9226 147.443 17.0426 143.598 17.192L143.318 16.632C144.176 15.9226 145.315 14.9333 146.734 13.664C148.19 12.3573 148.955 11.5546 149.03 11.256C148.582 11.2186 147.854 11.0506 146.846 10.752C145.875 10.4533 145.296 10.1173 145.11 9.74397L145.726 0.783971H158.718ZM143.43 0.783971C143.43 2.57597 143.318 4.19997 143.094 5.65597C142.496 9.01597 140.835 11.7413 138.11 13.832C135.422 15.9226 132.155 17.0426 128.31 17.192L128.03 16.632C128.888 15.9226 130.027 14.9333 131.446 13.664C132.902 12.3573 133.667 11.5546 133.742 11.256C133.294 11.2186 132.566 11.0506 131.558 10.752C130.587 10.4533 130.008 10.1173 129.822 9.74397L130.438 0.783971H143.43ZM159.26 31.136C160.268 22.6613 161.295 12.544 162.34 0.783971H178.02C175.631 9.4453 173.092 19.5626 170.404 31.136C169.545 30.9493 168.687 30.8186 167.828 30.744C167.007 30.632 166.036 30.576 164.916 30.576C163.871 30.576 162.881 30.632 161.948 30.744C161.015 30.856 160.119 30.9866 159.26 31.136ZM162.564 44.464C159.988 44.464 158.196 44.0533 157.188 43.232C156.18 42.4106 155.825 41.1413 156.124 39.424C156.423 37.7066 157.207 36.456 158.476 35.672C159.783 34.888 161.724 34.496 164.3 34.496C166.913 34.496 168.724 34.888 169.732 35.672C170.74 36.456 171.113 37.7066 170.852 39.424C170.516 41.1413 169.695 42.4106 168.388 43.232C167.081 44.0533 165.14 44.464 162.564 44.464Z" fill="url(#paint0_linear_741_2388)"/>
<path d="M1.90401 23.016H175.724V24.696H1.90401V23.016Z" fill="url(#paint1_linear_741_2388)"/>
</g>
<defs>
<linearGradient id="paint0_linear_741_2388" x1="88.8298" y1="-5.48804" x2="88.8298" y2="53.512" gradientUnits="userSpaceOnUse">
<stop stop-color="#2A1B00"/>
<stop offset="1" stop-color="#905C00"/>
</linearGradient>
<linearGradient id="paint1_linear_741_2388" x1="88.8298" y1="-5.48804" x2="88.8298" y2="53.512" gradientUnits="userSpaceOnUse">
<stop stop-color="#2A1B00"/>
<stop offset="1" stop-color="#905C00"/>
</linearGradient>
</defs>
</svg>
