<svg width="137" height="66" viewBox="0 0 137 66" fill="none" xmlns="http://www.w3.org/2000/svg">
<g opacity="0.4">
<path fill-rule="evenodd" clip-rule="evenodd" d="M0.814587 0C33.5047 17.6502 37.4862 0 68.4999 22.9033C99.5136 0 103.495 17.6502 136.185 0C138.979 19.4013 136.144 59.7167 102.448 65.7682C90.2934 67.9509 68.4999 54.0013 68.4999 54.0013C68.4999 54.0013 46.7066 67.9509 34.5525 65.7682C0.856498 59.7167 -1.97944 19.4013 0.814587 0ZM22.6081 29.2066C29.4535 25.7046 45.4493 22.945 54.6696 39.9228C48.0337 44.1252 32.3313 47.8652 22.6081 29.2066ZM114.392 29.2066C107.547 25.7046 91.5507 22.945 82.3304 39.9228C88.9663 44.1252 104.669 47.8652 114.392 29.2066Z" fill="#2A1B00"/>
<path fill-rule="evenodd" clip-rule="evenodd" d="M0.814587 0C33.5047 17.6502 37.4862 0 68.4999 22.9033C99.5136 0 103.495 17.6502 136.185 0C138.979 19.4013 136.144 59.7167 102.448 65.7682C90.2934 67.9509 68.4999 54.0013 68.4999 54.0013C68.4999 54.0013 46.7066 67.9509 34.5525 65.7682C0.856498 59.7167 -1.97944 19.4013 0.814587 0ZM22.6081 29.2066C29.4535 25.7046 45.4493 22.945 54.6696 39.9228C48.0337 44.1252 32.3313 47.8652 22.6081 29.2066ZM114.392 29.2066C107.547 25.7046 91.5507 22.945 82.3304 39.9228C88.9663 44.1252 104.669 47.8652 114.392 29.2066Z" fill="url(#paint0_linear_742_2397)"/>
</g>
<defs>
<linearGradient id="paint0_linear_742_2397" x1="68.5" y1="0" x2="68.5" y2="66" gradientUnits="userSpaceOnUse">
<stop stop-color="#2A1B00"/>
<stop offset="1" stop-color="#905C00"/>
</linearGradient>
</defs>
</svg>
