<svg width="99" height="101" viewBox="0 0 99 101" fill="none" xmlns="http://www.w3.org/2000/svg">
<g opacity="0.4">
<path d="M31.7178 33.2908C32.7306 30.973 36.0185 30.9729 37.0313 33.2908L45.6914 53.114C45.9838 53.7831 46.5184 54.3167 47.1875 54.6091L67.0098 63.2702C69.3278 64.283 69.3278 67.571 67.0098 68.5837L47.1875 77.2439C46.5182 77.5363 45.9838 78.0707 45.6914 78.74L37.0313 98.5622C36.0185 100.88 32.7305 100.88 31.7178 98.5622L23.0576 78.74C22.7653 78.0708 22.2307 77.5363 21.5615 77.2439L1.7383 68.5837C-0.579486 67.571 -0.579378 64.2831 1.7383 63.2702L21.5615 54.6091C22.2306 54.3167 22.7653 53.7831 23.0576 53.114L31.7178 33.2908ZM74.5723 1.11693C75.2229 -0.372309 77.3357 -0.372309 77.9863 1.11693L83.5508 13.8523C83.7387 14.2821 84.0819 14.6254 84.5117 14.8132L97.2471 20.3767C98.736 21.0274 98.7359 23.14 97.2471 23.7908L84.5117 29.3552C84.0817 29.5431 83.7387 29.8861 83.5508 30.3161L77.9863 43.0515C77.3356 44.5404 75.223 44.5405 74.5723 43.0515L69.0088 30.3161C68.821 29.8863 68.4777 29.5431 68.0479 29.3552L55.3125 23.7908C53.8233 23.1401 53.8233 21.0273 55.3125 20.3767L68.0479 14.8132C68.4777 14.6253 68.821 14.2821 69.0088 13.8523L74.5723 1.11693Z" fill="#2A1B00"/>
<path d="M31.7178 33.2908C32.7306 30.973 36.0185 30.9729 37.0313 33.2908L45.6914 53.114C45.9838 53.7831 46.5184 54.3167 47.1875 54.6091L67.0098 63.2702C69.3278 64.283 69.3278 67.571 67.0098 68.5837L47.1875 77.2439C46.5182 77.5363 45.9838 78.0707 45.6914 78.74L37.0313 98.5622C36.0185 100.88 32.7305 100.88 31.7178 98.5622L23.0576 78.74C22.7653 78.0708 22.2307 77.5363 21.5615 77.2439L1.7383 68.5837C-0.579486 67.571 -0.579378 64.2831 1.7383 63.2702L21.5615 54.6091C22.2306 54.3167 22.7653 53.7831 23.0576 53.114L31.7178 33.2908ZM74.5723 1.11693C75.2229 -0.372309 77.3357 -0.372309 77.9863 1.11693L83.5508 13.8523C83.7387 14.2821 84.0819 14.6254 84.5117 14.8132L97.2471 20.3767C98.736 21.0274 98.7359 23.14 97.2471 23.7908L84.5117 29.3552C84.0817 29.5431 83.7387 29.8861 83.5508 30.3161L77.9863 43.0515C77.3356 44.5404 75.223 44.5405 74.5723 43.0515L69.0088 30.3161C68.821 29.8863 68.4777 29.5431 68.0479 29.3552L55.3125 23.7908C53.8233 23.1401 53.8233 21.0273 55.3125 20.3767L68.0479 14.8132C68.4777 14.6253 68.821 14.2821 69.0088 13.8523L74.5723 1.11693Z" fill="url(#paint0_linear_742_2403)"/>
</g>
<defs>
<linearGradient id="paint0_linear_742_2403" x1="49.1819" y1="0" x2="49.1819" y2="100.301" gradientUnits="userSpaceOnUse">
<stop stop-color="#2A1B00"/>
<stop offset="1" stop-color="#905C00"/>
</linearGradient>
</defs>
</svg>
