<svg width="48" height="48" viewBox="0 0 48 48" fill="none" xmlns="http://www.w3.org/2000/svg">
<path d="M24 0C37.2548 0 48 10.7452 48 24C48 37.2548 37.2548 48 24 48C10.7452 48 0 37.2548 0 24C0 10.7452 10.7452 0 24 0ZM37.0605 10.9395C36.4748 10.3537 35.5252 10.3537 34.9395 10.9395L24.3536 21.5254C24.1583 21.7206 23.8417 21.7206 23.6464 21.5254L13.0605 10.9395C12.4748 10.3537 11.5252 10.3537 10.9395 10.9395C10.3537 11.5252 10.3537 12.4748 10.9395 13.0605L21.5254 23.6464C21.7206 23.8417 21.7206 24.1583 21.5254 24.3536L10.9395 34.9395C10.3537 35.5252 10.3537 36.4748 10.9395 37.0605C11.5252 37.6463 12.4748 37.6463 13.0605 37.0605L23.6464 26.4746C23.8417 26.2794 24.1583 26.2794 24.3536 26.4746L34.9395 37.0605C35.5252 37.6463 36.4748 37.6463 37.0605 37.0605C37.6463 36.4748 37.6463 35.5252 37.0605 34.9395L26.4746 24.3536C26.2794 24.1583 26.2794 23.8417 26.4746 23.6464L37.0605 13.0605C37.6463 12.4748 37.6463 11.5252 37.0605 10.9395Z" fill="url(#paint0_linear_742_2491)"/>
<defs>
<linearGradient id="paint0_linear_742_2491" x1="22.6215" y1="0" x2="22.6215" y2="43.8728" gradientUnits="userSpaceOnUse">
<stop stop-color="#FFAF1B"/>
<stop offset="1" stop-color="#FFB61D"/>
</linearGradient>
</defs>
</svg>
