<svg width="565" height="521" viewBox="0 0 565 521" fill="none" xmlns="http://www.w3.org/2000/svg">
<g clip-path="url(#clip0_647_549)">
<rect x="92.9753" y="158.601" width="328.115" height="273.429" rx="33.6687" transform="rotate(19.879 92.9753 158.601)" fill="white"/>
<path d="M283.095 180.879C268.259 195.564 254.627 204.8 242.2 208.586C229.774 212.159 217.748 210.546 206.124 203.748C194.502 196.735 182.266 184.051 169.418 165.694C156.784 147.338 148.74 130.718 145.287 115.832C141.835 100.732 142.765 86.2973 148.077 72.5263C153.496 58.649 163.624 44.368 178.461 29.6835C193.405 14.8924 207.09 5.60357 219.517 1.81682C231.945 -1.96993 243.97 -0.357096 255.593 6.6553C267.217 13.4538 279.346 26.0308 291.98 44.3865C304.828 62.7433 312.978 79.4715 316.43 94.571C319.883 109.457 318.953 123.892 313.64 137.877C308.221 151.754 298.039 166.088 283.095 180.879ZM276.248 170.736C289.149 157.967 297.877 145.604 302.431 133.648C307.092 121.585 307.852 109.127 304.709 96.2756C301.567 83.21 294.529 68.6803 283.594 52.6865C272.552 36.7992 262.019 25.8347 251.995 19.7932C241.865 13.6442 231.444 12.2536 220.73 15.6213C210.017 18.7751 198.264 26.6834 185.471 39.3462C172.569 52.1154 163.788 64.5314 159.126 76.5943C154.466 88.4432 153.707 100.901 156.848 113.966C159.884 126.924 166.923 141.347 177.965 157.234C189.007 173.122 199.594 184.14 209.723 190.289C219.854 196.224 230.276 197.615 240.989 194.461C251.701 191.307 263.454 183.399 276.248 170.736ZM269.877 161.718C259.126 172.359 248.984 178.992 239.45 181.617C229.918 184.029 220.673 182.644 211.715 177.464C202.758 172.069 193.82 162.825 184.903 149.729C175.771 136.633 169.951 124.516 167.441 113.379C164.932 102.028 165.577 91.0675 169.375 80.4977C173.28 69.8215 180.662 59.1096 191.521 48.3622C201.842 38.1469 211.182 31.5632 219.54 28.6112C228.006 25.5528 236.134 25.8086 243.924 29.3784C251.714 32.9483 259.7 39.9419 267.882 50.3595L239.465 85.1902C234.365 78.5323 229.358 74.6558 224.443 73.5609C219.422 72.3585 214.17 74.4708 208.687 79.8977C207.612 80.9618 206.643 82.2404 205.779 83.7334C204.917 85.0125 204.268 86.3997 203.832 87.8949C208.915 97.9756 214.324 106.988 220.059 114.933C225.898 123.413 231.698 129.059 237.46 131.869C243.222 134.68 249.113 133.106 255.133 127.147C256.316 125.976 257.338 124.752 258.201 123.472C259.17 122.087 260.033 120.701 260.789 119.314C258.569 114.276 254.753 107.517 249.341 99.0393L281.107 68.2368C288.428 79.9335 293.024 90.9209 294.897 101.199C296.77 111.263 295.703 121.259 291.694 131.186C287.685 141.113 280.413 151.29 269.877 161.718Z" fill="white"/>
<path d="M419.434 96.6892C463.199 113.863 484.756 163.263 467.582 207.028C450.408 250.793 401.008 272.349 357.243 255.176C313.479 238.002 291.922 188.602 309.095 144.837C326.269 101.072 375.669 79.5158 419.434 96.6892ZM372.856 216.155C465.844 213.287 447.855 122.663 400.168 146.29C381.276 96.5369 306.634 150.813 372.856 216.155Z" fill="white"/>
<path d="M474.82 349.626L480.012 414.767M453.877 331.42L388.736 336.613M486.325 315.244L528.715 265.511M458.642 317.179L408.908 274.789M472.083 310.478L466.891 245.337M493.025 328.684L558.166 323.492M460.578 344.86L418.187 394.594M488.261 342.929L537.994 385.319" stroke="white" stroke-width="12" stroke-linecap="round"/>
</g>
<defs>
<clipPath id="clip0_647_549">
<rect width="565" height="521" fill="white"/>
</clipPath>
</defs>
</svg>
