<svg width="1440" height="404" viewBox="0 0 1440 404" fill="none" xmlns="http://www.w3.org/2000/svg">
<rect x="21.9072" y="172.161" width="378.671" height="326.165" rx="42" transform="rotate(19.879 21.9072 172.161)" fill="white"/>
<circle cx="721.92" cy="326.456" r="81.4169" fill="white"/>
<circle cx="674.499" cy="327.355" r="16.1044" fill="#F2F4F7"/>
<circle cx="722.814" cy="327.355" r="16.1044" fill="#F2F4F7"/>
<circle cx="771.129" cy="327.355" r="16.1044" fill="#F2F4F7"/>
<path d="M933.079 165.251C963.127 135.203 1011.84 135.203 1041.89 165.251L1044.27 167.624C1074.31 197.672 1074.31 246.39 1044.27 276.438L936.717 383.987C906.668 414.035 857.95 414.035 827.902 383.987L825.529 381.615C795.481 351.566 795.481 302.849 825.529 272.8L933.079 165.251ZM838.733 283.634C814.668 307.699 814.668 346.716 838.733 370.781C862.798 394.846 901.815 394.846 925.88 370.781C949.945 346.716 949.945 307.699 925.88 283.634C901.815 259.569 862.798 259.569 838.733 283.634Z" fill="white"/>
<path d="M793.819 177.183L799.011 242.324M772.876 158.977L707.735 164.17M805.324 142.801L847.714 93.0677M777.641 144.736L727.907 102.346M791.082 138.035L785.89 72.8942M812.024 156.241L877.165 151.049M779.577 172.417L737.186 222.151M807.26 170.486L856.993 212.876" stroke="white" stroke-width="12" stroke-linecap="round"/>
<path d="M1132.21 409.142C1182.23 409.142 1223.51 367.837 1223.51 317.883C1223.51 267.929 1182.14 226.625 1132.12 226.625C1082.19 226.625 1041 267.929 1041 317.883C1041 367.837 1082.28 409.142 1132.21 409.142ZM1079.11 262.545C1087.84 254.161 1098.6 247.718 1110.51 244.1C1104.25 250.366 1098.95 259.28 1094.98 270.047C1088.81 268.106 1083.43 265.546 1079.11 262.545ZM1154 244.188C1165.91 247.806 1176.58 254.161 1185.32 262.634C1180.99 265.634 1175.7 268.106 1169.53 270.136C1165.56 259.28 1160.26 250.454 1154 244.188ZM1107.25 273.136C1112.1 260.162 1118.71 250.631 1126.04 247.189V275.078C1119.33 274.813 1113.07 274.195 1107.25 273.136ZM1138.39 247.189C1145.71 250.631 1152.41 260.162 1157.18 273.136C1151.44 274.195 1145.09 274.813 1138.39 275.078V247.189ZM1055.55 311.705C1056.79 296.789 1062.35 283.021 1070.99 271.724C1076.28 275.696 1083.25 279.138 1091.37 281.697C1089.07 290.788 1087.66 300.938 1087.22 311.705H1055.55ZM1177.2 311.705C1176.85 300.938 1175.35 290.788 1173.06 281.697C1181.17 279.138 1188.14 275.696 1193.43 271.724C1202.08 283.021 1207.64 296.789 1208.87 311.705H1177.2ZM1138.39 311.705V287.434C1146.24 287.169 1153.82 286.287 1160.79 284.875C1162.82 293.083 1164.23 302.173 1164.59 311.705H1138.39ZM1099.84 311.705C1100.28 302.173 1101.6 293.083 1103.63 284.875C1110.69 286.287 1118.19 287.169 1126.04 287.434V311.705H1099.84ZM1055.55 324.061H1087.22C1087.57 335.005 1089.07 345.243 1091.46 354.51C1083.43 357.069 1076.46 360.423 1071.17 364.307C1062.43 352.921 1056.79 339.065 1055.55 324.061ZM1099.84 324.061H1126.04V348.773C1118.27 349.038 1110.69 349.921 1103.72 351.333C1101.6 342.948 1100.28 333.681 1099.84 324.061ZM1138.39 348.773V324.061H1164.67C1164.23 333.681 1162.82 342.948 1160.71 351.333C1153.74 349.921 1146.24 349.038 1138.39 348.773ZM1173.06 354.51C1175.35 345.243 1176.85 335.005 1177.29 324.061H1208.87C1207.64 339.065 1201.99 352.921 1193.26 364.307C1187.96 360.423 1181.08 357.069 1173.06 354.51ZM1138.39 361.129C1145.09 361.394 1151.27 362.012 1157.09 363.071C1152.32 375.78 1145.71 385.224 1138.39 388.666V361.129ZM1107.42 363.071C1113.16 362.012 1119.42 361.394 1126.04 361.129V388.666C1118.8 385.224 1112.19 375.78 1107.42 363.071ZM1079.37 373.397C1083.69 370.485 1088.99 368.013 1095.07 366.072C1098.95 376.663 1104.25 385.4 1110.33 391.578C1098.6 388.048 1088.02 381.693 1079.37 373.397ZM1169.44 366.072C1175.53 368.013 1180.82 370.485 1185.14 373.397C1176.41 381.693 1165.82 388.048 1154.09 391.578C1160.26 385.4 1165.47 376.663 1169.44 366.072Z" fill="white"/>
<path d="M1353.69 199.155C1351.24 202.91 1354.64 207.723 1359.02 206.695L1413.2 193.968C1426.89 190.752 1436.22 207.445 1426.27 217.344L1238.81 403.731C1227.81 414.666 1209.81 402.216 1216.24 388.128L1271.38 267.485C1273.41 263.029 1268.43 258.637 1264.24 261.189L1238.64 278.182C1227.38 285.038 1213.37 275.06 1216.24 262.227L1250.33 99.8411C1252.87 88.4883 1262.98 80.4141 1274.66 80.4141L1399.94 80.4141C1413.39 80.4141 1421.48 95.2687 1414.15 106.502L1353.69 199.155Z" fill="white"/>
<path d="M1442.14 237.882C1489.58 237.882 1528.03 276.337 1528.03 323.773C1528.03 371.209 1489.58 409.662 1442.14 409.663C1394.71 409.663 1356.25 371.209 1356.25 323.773C1356.25 276.337 1394.71 237.882 1442.14 237.882Z" fill="white"/>
<path d="M404.39 247.571C386.285 265.49 369.65 276.761 354.485 281.381C339.322 285.741 324.648 283.773 310.463 275.477C296.28 266.92 281.349 251.441 265.67 229.04C250.253 206.641 240.437 186.359 236.223 168.194C232.011 149.768 233.145 132.153 239.628 115.349C246.241 98.4142 258.6 80.9873 276.705 63.0678C294.941 45.0185 311.641 33.6833 326.806 29.0624C341.971 24.4414 356.645 26.4095 370.828 34.9667C385.013 43.2628 399.814 58.6105 415.232 81.0098C430.91 103.41 440.856 123.824 445.068 142.25C449.282 160.414 448.147 178.03 441.664 195.095C435.05 212.03 422.626 229.521 404.39 247.571ZM396.034 235.193C411.778 219.611 422.428 204.525 427.985 189.934C433.673 175.214 434.6 160.013 430.765 144.33C426.931 128.386 418.342 110.655 404.998 91.1382C391.523 71.751 378.67 58.3712 366.439 50.9989C354.077 43.4953 341.36 41.7983 328.286 45.9079C315.213 49.7564 300.871 59.4068 285.259 74.8592C269.516 90.4413 258.8 105.593 253.112 120.313C247.425 134.772 246.498 149.973 250.332 165.917C254.036 181.73 262.625 199.33 276.1 218.717C289.575 238.104 302.493 251.55 314.855 259.053C327.217 266.296 339.935 267.993 353.007 264.144C366.08 260.296 380.422 250.645 396.034 235.193ZM388.259 224.189C375.14 237.174 362.764 245.268 351.13 248.472C339.498 251.414 328.216 249.724 317.285 243.403C306.354 236.82 295.448 225.539 284.566 209.559C273.423 193.577 266.32 178.791 263.258 165.201C260.196 151.349 260.983 137.974 265.618 125.076C270.384 112.048 279.392 98.9763 292.642 85.8614C305.237 73.3956 316.634 65.3616 326.834 61.7593C337.165 58.0272 347.083 58.3393 356.589 62.6956C366.095 67.0518 375.841 75.5862 385.826 88.2986L351.148 130.802C344.925 122.678 338.814 117.947 332.817 116.611C326.69 115.144 320.281 117.721 313.59 124.344C312.278 125.642 311.095 127.203 310.041 129.025C308.989 130.585 308.197 132.278 307.666 134.103C313.868 146.404 320.468 157.402 327.467 167.097C334.592 177.446 341.671 184.335 348.701 187.764C355.732 191.194 362.921 189.273 370.268 182.002C371.711 180.573 372.959 179.079 374.011 177.518C375.194 175.827 376.247 174.136 377.17 172.443C374.46 166.295 369.804 158.048 363.2 147.702L401.964 110.114C410.897 124.388 416.506 137.795 418.791 150.338C421.077 162.619 419.774 174.816 414.883 186.93C409.991 199.044 401.116 211.463 388.259 224.189Z" fill="white"/>
<path d="M554.05 214.355C624.955 242.178 659.88 322.213 632.057 393.118C604.233 464.023 524.198 498.948 453.293 471.124C382.388 443.301 347.463 363.265 375.286 292.36C403.11 221.455 483.145 186.531 554.05 214.355ZM522.836 294.718C492.229 214.11 371.298 302.044 478.587 407.907C629.241 403.261 600.096 256.438 522.836 294.718Z" fill="white"/>
</svg>
