<svg width="1440" height="1485" viewBox="0 0 1440 1485" fill="none" xmlns="http://www.w3.org/2000/svg">
<g style="mix-blend-mode:plus-lighter" opacity="0.56">
<mask id="mask0_741_2274" style="mask-type:alpha" maskUnits="userSpaceOnUse" x="159" y="-306" width="1119" height="1421">
<rect x="159.318" y="-305.082" width="1118.38" height="1419.6" fill="white"/>
</mask>
<g mask="url(#mask0_741_2274)">
<g filter="url(#filter0_f_741_2274)" style="mix-blend-mode:plus-darker">
<path d="M-1033.82 2977.52C-1462.12 2690.57 -1513.34 2411.75 -1513.34 2411.75L726.993 509.07L-1033.82 2977.52Z" fill="#2A1B00" fill-opacity="0.12"/>
<path d="M-2132.53 1023.31L-1924.66 9.30664L726.993 509.07L-2132.53 1023.31Z" fill="#2A1B00" fill-opacity="0.12"/>
<path d="M-865.547 -1921.02L-607.429 -2265.08L726.993 509.07L-865.547 -1921.02Z" fill="#2A1B00" fill-opacity="0.12"/>
<path d="M1553.98 -2367.29C1553.98 -2367.29 1525.13 -2336.11 1986.71 -2118.61L726.993 509.07L1553.98 -2367.29Z" fill="#2A1B00" fill-opacity="0.12"/>
<path d="M2644.31 -1667.84L3062.84 -1243.28L726.993 509.07L2644.31 -1667.84Z" fill="#2A1B00" fill-opacity="0.12"/>
<path d="M1403.8 3260.03C926.689 3355.11 834.406 3328.58 834.406 3328.58L726.993 509.07L1403.8 3260.03Z" fill="#2A1B00" fill-opacity="0.12"/>
<path d="M3278.96 2002.7L2917.02 2390.81L726.993 509.07L3278.96 2002.7Z" fill="#2A1B00" fill-opacity="0.12"/>
<path d="M3443.48 -557.12C3572.08 -56.2268 3566.71 -55.6895 3566.71 -55.6895L726.993 509.07L3443.48 -557.12Z" fill="#2A1B00" fill-opacity="0.12"/>
</g>
<g filter="url(#filter1_f_741_2274)" style="mix-blend-mode:plus-darker">
<path d="M-1033.82 2977.52C-1462.12 2690.57 -1513.34 2411.76 -1513.34 2411.76L726.993 509.073L-1033.82 2977.52Z" fill="#2A1B00" fill-opacity="0.12"/>
<path d="M-2132.53 1023.31L-1924.66 9.30957L726.993 509.073L-2132.53 1023.31Z" fill="#2A1B00" fill-opacity="0.12"/>
<path d="M-865.547 -1921.02L-607.429 -2265.07L726.993 509.073L-865.547 -1921.02Z" fill="#2A1B00" fill-opacity="0.12"/>
<path d="M1553.98 -2367.29C1553.98 -2367.29 1525.13 -2336.11 1986.71 -2118.61L726.993 509.073L1553.98 -2367.29Z" fill="#2A1B00" fill-opacity="0.12"/>
<path d="M2644.31 -1667.84L3062.84 -1243.28L726.993 509.073L2644.31 -1667.84Z" fill="#2A1B00" fill-opacity="0.12"/>
<path d="M1403.8 3260.04C926.689 3355.11 834.406 3328.59 834.406 3328.59L726.993 509.073L1403.8 3260.04Z" fill="#2A1B00" fill-opacity="0.12"/>
<path d="M3278.96 2002.71L2917.02 2390.81L726.993 509.073L3278.96 2002.71Z" fill="#2A1B00" fill-opacity="0.12"/>
<path d="M3443.48 -557.117C3572.08 -56.2239 3566.71 -55.6865 3566.71 -55.6865L726.993 509.073L3443.48 -557.117Z" fill="#2A1B00" fill-opacity="0.12"/>
</g>
<g filter="url(#filter2_f_741_2274)" style="mix-blend-mode:plus-lighter">
<path d="M3515.73 631.084C3515.73 1141.86 3367.09 1639.53 3091.11 2052.76L720.372 476.417L3515.73 631.084Z" fill="url(#paint0_linear_741_2274)" fill-opacity="0.2"/>
<path d="M2795.86 2187.89C2463.85 2549.07 1024.33 3131.6 560.586 3211.5L720.372 476.417L2795.86 2187.89Z" fill="url(#paint1_linear_741_2274)" fill-opacity="0.2"/>
<path d="M190.774 3211.5C-204.387 3363.99 -261.449 3412.78 -641.302 3112.55L720.372 476.417L190.774 3211.5Z" fill="url(#paint2_linear_741_2274)" fill-opacity="0.2"/>
<path d="M-1145.32 2669.68C-1477.32 2308.51 -1986.31 1225.34 -2059.76 720.849L720.372 476.417L-1145.32 2669.68Z" fill="url(#paint3_linear_741_2274)" fill-opacity="0.2"/>
<path d="M-2111.6 502.421C-2111.6 -8.35938 -2211.63 -82.0039 -1935.65 -495.234L720.372 476.417L-2111.6 502.421Z" fill="url(#paint4_linear_741_2274)" fill-opacity="0.2"/>
<path d="M2946.47 -1288.49C3278.47 -927.315 3496.85 -461.07 3570.3 43.4221L720.372 476.417L2946.47 -1288.49Z" fill="url(#paint5_linear_741_2274)" fill-opacity="0.2"/>
<path d="M530.762 -2367.26C1000.29 -2367.26 1457.76 -2205.55 1837.61 -1905.32L720.372 476.417L530.762 -2367.26Z" fill="url(#paint6_linear_741_2274)" fill-opacity="0.2"/>
<path d="M-1801.44 -923.495C-1469.44 -1284.67 -696.479 -2589.5 -206.242 -2047.1L720.372 476.417L-1801.44 -923.495Z" fill="url(#paint7_linear_741_2274)" fill-opacity="0.2"/>
</g>
<g filter="url(#filter3_f_741_2274)" style="mix-blend-mode:plus-lighter">
<path d="M3515.73 631.084C3515.73 1141.86 3367.09 1639.53 3091.11 2052.76L720.372 476.417L3515.73 631.084Z" fill="url(#paint8_linear_741_2274)" fill-opacity="0.2"/>
<path d="M2795.86 2187.89C2463.85 2549.07 1024.33 3131.6 560.586 3211.5L720.372 476.417L2795.86 2187.89Z" fill="url(#paint9_linear_741_2274)" fill-opacity="0.2"/>
<path d="M190.774 3211.5C-204.387 3363.99 -261.449 3412.78 -641.302 3112.55L720.372 476.417L190.774 3211.5Z" fill="url(#paint10_linear_741_2274)" fill-opacity="0.2"/>
<path d="M-1145.32 2669.68C-1477.32 2308.51 -1986.31 1225.34 -2059.76 720.849L720.372 476.417L-1145.32 2669.68Z" fill="url(#paint11_linear_741_2274)" fill-opacity="0.2"/>
<path d="M-2111.6 502.421C-2111.6 -8.35938 -2211.63 -82.0039 -1935.65 -495.234L720.372 476.417L-2111.6 502.421Z" fill="url(#paint12_linear_741_2274)" fill-opacity="0.2"/>
<path d="M2946.47 -1288.49C3278.47 -927.315 3496.85 -461.07 3570.3 43.4221L720.372 476.417L2946.47 -1288.49Z" fill="url(#paint13_linear_741_2274)" fill-opacity="0.2"/>
<path d="M530.762 -2367.26C1000.29 -2367.26 1457.76 -2205.55 1837.61 -1905.32L720.372 476.417L530.762 -2367.26Z" fill="url(#paint14_linear_741_2274)" fill-opacity="0.2"/>
<path d="M-1801.44 -923.495C-1469.44 -1284.67 -696.479 -2589.5 -206.242 -2047.1L720.372 476.417L-1801.44 -923.495Z" fill="url(#paint15_linear_741_2274)" fill-opacity="0.2"/>
</g>
</g>
</g>
<defs>
<filter id="filter0_f_741_2274" x="-2166.97" y="-2401.73" width="5768.15" height="5768.15" filterUnits="userSpaceOnUse" color-interpolation-filters="sRGB">
<feFlood flood-opacity="0" result="BackgroundImageFix"/>
<feBlend mode="normal" in="SourceGraphic" in2="BackgroundImageFix" result="shape"/>
<feGaussianBlur stdDeviation="17.2189" result="effect1_foregroundBlur_741_2274"/>
</filter>
<filter id="filter1_f_741_2274" x="-2166.97" y="-2401.72" width="5768.15" height="5768.15" filterUnits="userSpaceOnUse" color-interpolation-filters="sRGB">
<feFlood flood-opacity="0" result="BackgroundImageFix"/>
<feBlend mode="normal" in="SourceGraphic" in2="BackgroundImageFix" result="shape"/>
<feGaussianBlur stdDeviation="17.2189" result="effect1_foregroundBlur_741_2274"/>
</filter>
<filter id="filter2_f_741_2274" x="-2163.7" y="-2401.69" width="5768.44" height="5768.45" filterUnits="userSpaceOnUse" color-interpolation-filters="sRGB">
<feFlood flood-opacity="0" result="BackgroundImageFix"/>
<feBlend mode="normal" in="SourceGraphic" in2="BackgroundImageFix" result="shape"/>
<feGaussianBlur stdDeviation="17.2189" result="effect1_foregroundBlur_741_2274"/>
</filter>
<filter id="filter3_f_741_2274" x="-2163.7" y="-2401.69" width="5768.44" height="5768.45" filterUnits="userSpaceOnUse" color-interpolation-filters="sRGB">
<feFlood flood-opacity="0" result="BackgroundImageFix"/>
<feBlend mode="normal" in="SourceGraphic" in2="BackgroundImageFix" result="shape"/>
<feGaussianBlur stdDeviation="17.2189" result="effect1_foregroundBlur_741_2274"/>
</filter>
<linearGradient id="paint0_linear_741_2274" x1="720.515" y1="-2367.26" x2="720.515" y2="3332.32" gradientUnits="userSpaceOnUse">
<stop stop-color="#FDAB1B"/>
<stop offset="1" stop-color="#FDAB1B" stop-opacity="0"/>
</linearGradient>
<linearGradient id="paint1_linear_741_2274" x1="720.515" y1="-2367.26" x2="720.515" y2="3332.32" gradientUnits="userSpaceOnUse">
<stop stop-color="#FDAB1B"/>
<stop offset="1" stop-color="#FDAB1B" stop-opacity="0"/>
</linearGradient>
<linearGradient id="paint2_linear_741_2274" x1="720.515" y1="-2367.26" x2="720.515" y2="3332.32" gradientUnits="userSpaceOnUse">
<stop stop-color="#FDAB1B"/>
<stop offset="1" stop-color="#FDAB1B" stop-opacity="0"/>
</linearGradient>
<linearGradient id="paint3_linear_741_2274" x1="720.515" y1="-2367.26" x2="720.515" y2="3332.32" gradientUnits="userSpaceOnUse">
<stop stop-color="#FDAB1B"/>
<stop offset="1" stop-color="#FDAB1B" stop-opacity="0"/>
</linearGradient>
<linearGradient id="paint4_linear_741_2274" x1="720.515" y1="-2367.26" x2="720.515" y2="3332.32" gradientUnits="userSpaceOnUse">
<stop stop-color="#FDAB1B"/>
<stop offset="1" stop-color="#FDAB1B" stop-opacity="0"/>
</linearGradient>
<linearGradient id="paint5_linear_741_2274" x1="720.515" y1="-2367.26" x2="720.515" y2="3332.32" gradientUnits="userSpaceOnUse">
<stop stop-color="#FDAB1B"/>
<stop offset="1" stop-color="#FDAB1B" stop-opacity="0"/>
</linearGradient>
<linearGradient id="paint6_linear_741_2274" x1="720.515" y1="-2367.26" x2="720.515" y2="3332.32" gradientUnits="userSpaceOnUse">
<stop stop-color="#FDAB1B"/>
<stop offset="1" stop-color="#FDAB1B" stop-opacity="0"/>
</linearGradient>
<linearGradient id="paint7_linear_741_2274" x1="720.515" y1="-2367.26" x2="720.515" y2="3332.32" gradientUnits="userSpaceOnUse">
<stop stop-color="#FDAB1B"/>
<stop offset="1" stop-color="#FDAB1B" stop-opacity="0"/>
</linearGradient>
<linearGradient id="paint8_linear_741_2274" x1="720.515" y1="-2367.26" x2="720.515" y2="3332.32" gradientUnits="userSpaceOnUse">
<stop stop-color="#FDAB1B"/>
<stop offset="1" stop-color="#FDAB1B" stop-opacity="0"/>
</linearGradient>
<linearGradient id="paint9_linear_741_2274" x1="720.515" y1="-2367.26" x2="720.515" y2="3332.32" gradientUnits="userSpaceOnUse">
<stop stop-color="#FDAB1B"/>
<stop offset="1" stop-color="#FDAB1B" stop-opacity="0"/>
</linearGradient>
<linearGradient id="paint10_linear_741_2274" x1="720.515" y1="-2367.26" x2="720.515" y2="3332.32" gradientUnits="userSpaceOnUse">
<stop stop-color="#FDAB1B"/>
<stop offset="1" stop-color="#FDAB1B" stop-opacity="0"/>
</linearGradient>
<linearGradient id="paint11_linear_741_2274" x1="720.515" y1="-2367.26" x2="720.515" y2="3332.32" gradientUnits="userSpaceOnUse">
<stop stop-color="#FDAB1B"/>
<stop offset="1" stop-color="#FDAB1B" stop-opacity="0"/>
</linearGradient>
<linearGradient id="paint12_linear_741_2274" x1="720.515" y1="-2367.26" x2="720.515" y2="3332.32" gradientUnits="userSpaceOnUse">
<stop stop-color="#FDAB1B"/>
<stop offset="1" stop-color="#FDAB1B" stop-opacity="0"/>
</linearGradient>
<linearGradient id="paint13_linear_741_2274" x1="720.515" y1="-2367.26" x2="720.515" y2="3332.32" gradientUnits="userSpaceOnUse">
<stop stop-color="#FDAB1B"/>
<stop offset="1" stop-color="#FDAB1B" stop-opacity="0"/>
</linearGradient>
<linearGradient id="paint14_linear_741_2274" x1="720.515" y1="-2367.26" x2="720.515" y2="3332.32" gradientUnits="userSpaceOnUse">
<stop stop-color="#FDAB1B"/>
<stop offset="1" stop-color="#FDAB1B" stop-opacity="0"/>
</linearGradient>
<linearGradient id="paint15_linear_741_2274" x1="720.515" y1="-2367.26" x2="720.515" y2="3332.32" gradientUnits="userSpaceOnUse">
<stop stop-color="#FDAB1B"/>
<stop offset="1" stop-color="#FDAB1B" stop-opacity="0"/>
</linearGradient>
</defs>
</svg>
