<svg width="282" height="279" viewBox="0 0 282 279" fill="none" xmlns="http://www.w3.org/2000/svg">
<path d="M121.566 99.1599C120.933 101.736 123.446 103.519 125.503 101.953L150.965 82.5581C157.399 77.6574 164.865 84.4113 161.42 92.0161L96.5616 235.202C92.7565 243.602 81.5723 241.133 82.5455 232.107L90.88 154.811C91.1878 151.956 87.94 150.766 86.2251 153.105L75.9882 168.136C71.3825 174.418 62.6349 172.34 62.0009 164.813L52.8277 70.0967C52.2668 63.438 56.0889 56.7723 62.0238 54.0586L125.695 24.9455C132.531 21.8199 139.068 27.8789 137.176 35.5864L121.566 99.1599Z" fill="url(#paint0_linear_609_1952)"/>
<path d="M118.95 97.7686C118.317 100.345 120.83 102.128 122.887 100.561L148.349 81.1668C154.783 76.2661 162.249 83.02 158.804 90.6247L93.9456 233.811C90.1405 242.211 78.9563 239.741 79.9295 230.716L88.264 153.42C88.5718 150.565 85.324 149.375 83.6092 151.714L73.3723 166.745C68.7665 173.027 60.0189 170.949 59.3849 163.422L50.2117 68.7053C49.6508 62.0466 53.4729 55.381 59.4078 52.6673L123.079 23.5542C129.915 20.4285 136.452 26.4876 134.56 34.1951L118.95 97.7686Z" fill="url(#paint1_linear_609_1952)"/>
<path d="M116.336 96.3765C115.704 98.953 118.216 100.736 120.273 99.1693L145.735 79.7747C152.169 74.874 159.635 81.6279 156.19 89.2326L91.3319 232.419C87.5268 240.819 76.3425 238.349 77.3158 229.324L85.6502 152.027C85.9581 149.173 82.7102 147.982 80.9954 150.321L70.7585 165.353C66.1528 171.635 57.4051 169.556 56.7711 162.029L47.5979 67.3132C47.0371 60.6545 50.8591 53.9889 56.794 51.2752L120.465 22.1621C127.301 19.0364 133.838 25.0955 131.946 32.803L116.336 96.3765Z" fill="url(#paint2_linear_609_1952)"/>
<path d="M113.72 94.9846C113.087 97.5612 115.6 99.3439 117.657 97.7775L143.119 78.3828C149.553 73.4821 157.019 80.236 153.574 87.8408L88.7157 231.027C84.9105 239.427 73.7263 236.957 74.6995 227.932L83.034 150.636C83.3418 147.781 80.094 146.591 78.3792 148.93L68.1423 163.961C63.5366 170.243 54.7889 168.165 54.1549 160.638L44.9817 65.9214C44.4209 59.2627 48.2429 52.597 54.1778 49.8833L117.849 20.7702C124.685 17.6446 131.222 23.7036 129.33 31.4111L113.72 94.9846Z" fill="url(#paint3_linear_609_1952)"/>
<path d="M111.106 93.5925C110.474 96.1691 112.987 97.9518 115.043 96.3854L140.505 76.9907C146.939 72.09 154.405 78.844 150.961 86.4487L86.1021 229.635C82.297 238.035 71.1128 235.565 72.086 226.54L80.4205 149.244C80.7283 146.389 77.4805 145.198 75.7656 147.538L65.5288 162.569C60.923 168.851 52.1754 166.773 51.5414 159.246L42.3682 64.5293C41.8073 57.8706 45.6294 51.2049 51.5643 48.4913L115.236 19.3781C122.072 16.2525 128.609 22.3115 126.716 30.019L111.106 93.5925Z" fill="url(#paint4_linear_609_1952)"/>
<path d="M108.491 92.2014C107.858 94.778 110.371 96.5607 112.427 94.9943L137.889 75.5996C144.323 70.6989 151.789 77.4528 148.345 85.0576L83.4862 228.244C79.681 236.644 68.4968 234.174 69.47 225.149L77.8045 147.852C78.1124 144.998 74.8645 143.807 73.1497 146.146L62.9128 161.178C58.3071 167.46 49.5594 165.381 48.9254 157.854L39.7522 63.1382C39.1914 56.4795 43.0134 49.8138 48.9483 47.1001L112.62 17.987C119.456 14.8614 125.993 20.9204 124.1 28.6279L108.491 92.2014Z" fill="url(#paint5_linear_609_1952)"/>
<circle cx="62.2928" cy="62.2928" r="62.2928" transform="matrix(0.946989 0.192693 -0.320576 0.981485 155.537 113.844)" fill="url(#paint6_linear_609_1952)"/>
<path opacity="0.7" d="M194.922 185.942C201.808 185.474 208.054 178.853 208.574 170.802C209.083 162.943 203.598 157.313 196.744 157.779C189.858 158.248 183.555 164.777 183.081 172.601C182.564 180.588 188.005 186.413 194.922 185.942ZM173.283 217.115L212.638 214.436C217.85 214.082 219.754 212.355 219.945 209.404C220.478 201.161 210.916 190.506 194.523 191.622C178.162 192.736 167.099 204.794 166.566 213.037C166.375 215.988 168.071 217.47 173.283 217.115Z" fill="url(#paint7_linear_609_1952)"/>
<circle cx="62.2928" cy="62.2928" r="62.2928" transform="matrix(0.946989 0.192693 -0.320576 0.981485 153.749 111.81)" fill="url(#paint8_linear_609_1952)"/>
<path opacity="0.7" d="M193.134 183.909C200.02 183.441 206.265 176.82 206.786 168.769C207.295 160.91 201.81 155.28 194.956 155.746C188.07 156.215 181.767 162.743 181.293 170.568C180.776 178.555 186.217 184.38 193.134 183.909ZM171.495 215.082L210.85 212.403C216.062 212.049 217.966 210.322 218.157 207.371C218.69 199.128 209.128 188.473 192.735 189.589C176.374 190.702 165.311 202.76 164.777 211.004C164.587 213.955 166.283 215.436 171.495 215.082Z" fill="url(#paint9_linear_609_1952)"/>
<circle cx="62.2928" cy="62.2928" r="62.2928" transform="matrix(0.946989 0.192693 -0.320576 0.981485 151.952 109.769)" fill="url(#paint10_linear_609_1952)"/>
<path opacity="0.7" d="M191.345 181.87C198.231 181.402 204.477 174.781 204.997 166.73C205.506 158.871 200.021 153.241 193.167 153.707C186.281 154.176 179.979 160.704 179.504 168.529C178.987 176.516 184.428 182.341 191.345 181.87ZM169.706 213.043L209.062 210.364C214.273 210.009 216.177 208.283 216.368 205.332C216.902 197.088 207.339 186.434 190.946 187.55C174.585 188.663 163.522 200.721 162.989 208.965C162.798 211.916 164.494 213.397 169.706 213.043Z" fill="url(#paint11_linear_609_1952)"/>
<circle cx="62.2928" cy="62.2928" r="62.2928" transform="matrix(0.946989 0.192693 -0.320576 0.981485 150.164 107.734)" fill="url(#paint12_radial_609_1952)"/>
<path opacity="0.7" d="M188.569 178.7C195.455 178.231 201.701 171.611 202.221 163.559C202.73 155.701 197.245 150.07 190.391 150.537C183.505 151.005 177.202 157.534 176.728 165.358C176.211 173.345 181.652 179.171 188.569 178.7ZM166.93 209.872L206.285 207.194C211.497 206.839 213.401 205.113 213.592 202.162C214.125 193.918 204.563 183.264 188.17 184.379C171.809 185.493 160.746 197.551 160.213 205.795C160.022 208.746 161.718 210.227 166.93 209.872Z" fill="url(#paint13_linear_609_1952)"/>
<circle cx="16.3882" cy="16.3882" r="16.3882" transform="matrix(0.997692 -0.0679 -0.0645544 0.997914 223.743 205.326)" fill="url(#paint14_linear_609_1952)"/>
<circle cx="16.3882" cy="16.3882" r="16.3882" transform="matrix(0.997692 -0.0679 -0.0645544 0.997914 222.851 204.311)" fill="url(#paint15_linear_609_1952)"/>
<circle cx="16.3882" cy="16.3882" r="16.3882" transform="matrix(0.997692 -0.0679 -0.0645544 0.997914 221.959 203.296)" fill="url(#paint16_linear_609_1952)"/>
<circle cx="16.3882" cy="16.3882" r="16.3882" transform="matrix(0.997692 -0.0679 -0.0645544 0.997914 221.068 202.28)" fill="url(#paint17_linear_609_1952)"/>
<circle cx="16.3882" cy="16.3882" r="16.3882" transform="matrix(0.997692 -0.0679 -0.0645544 0.997914 220.176 201.265)" fill="url(#paint18_linear_609_1952)"/>
<defs>
<linearGradient id="paint0_linear_609_1952" x1="86.4174" y1="42.9049" x2="161.854" y2="207.888" gradientUnits="userSpaceOnUse">
<stop stop-color="#FF8551"/>
<stop offset="1" stop-color="#FFB133"/>
</linearGradient>
<linearGradient id="paint1_linear_609_1952" x1="83.8014" y1="41.5135" x2="159.239" y2="206.497" gradientUnits="userSpaceOnUse">
<stop stop-color="#FF8551"/>
<stop offset="1" stop-color="#FFB133"/>
</linearGradient>
<linearGradient id="paint2_linear_609_1952" x1="81.1877" y1="40.1214" x2="156.625" y2="205.105" gradientUnits="userSpaceOnUse">
<stop stop-color="#FF8551"/>
<stop offset="1" stop-color="#FFB133"/>
</linearGradient>
<linearGradient id="paint3_linear_609_1952" x1="78.5714" y1="38.7296" x2="154.009" y2="203.713" gradientUnits="userSpaceOnUse">
<stop stop-color="#FF8551"/>
<stop offset="1" stop-color="#FFB133"/>
</linearGradient>
<linearGradient id="paint4_linear_609_1952" x1="75.9579" y1="37.3375" x2="151.395" y2="202.321" gradientUnits="userSpaceOnUse">
<stop stop-color="#FF8551"/>
<stop offset="1" stop-color="#FFB133"/>
</linearGradient>
<linearGradient id="paint5_linear_609_1952" x1="61.2635" y1="31.3111" x2="149.061" y2="199.347" gradientUnits="userSpaceOnUse">
<stop stop-color="#FFCD07"/>
<stop offset="1" stop-color="#FEC259"/>
</linearGradient>
<linearGradient id="paint6_linear_609_1952" x1="66.2424" y1="-83.5809" x2="62.4166" y2="124.588" gradientUnits="userSpaceOnUse">
<stop stop-color="#DEDFE0"/>
<stop offset="1" stop-color="#E9E9E9"/>
</linearGradient>
<linearGradient id="paint7_linear_609_1952" x1="196.712" y1="157.781" x2="201.151" y2="223.008" gradientUnits="userSpaceOnUse">
<stop stop-color="#9C9C9C"/>
<stop offset="1" stop-color="#363636"/>
</linearGradient>
<linearGradient id="paint8_linear_609_1952" x1="66.2424" y1="-83.5809" x2="62.4166" y2="124.588" gradientUnits="userSpaceOnUse">
<stop stop-color="#DEDFE0"/>
<stop offset="1" stop-color="#E9E9E9"/>
</linearGradient>
<linearGradient id="paint9_linear_609_1952" x1="194.924" y1="155.748" x2="199.363" y2="220.975" gradientUnits="userSpaceOnUse">
<stop stop-color="#9C9C9C"/>
<stop offset="1" stop-color="#363636"/>
</linearGradient>
<linearGradient id="paint10_linear_609_1952" x1="66.2424" y1="-83.5809" x2="62.4166" y2="124.588" gradientUnits="userSpaceOnUse">
<stop stop-color="#DEDFE0"/>
<stop offset="1" stop-color="#E9E9E9"/>
</linearGradient>
<linearGradient id="paint11_linear_609_1952" x1="193.135" y1="153.709" x2="197.575" y2="218.936" gradientUnits="userSpaceOnUse">
<stop stop-color="#9C9C9C"/>
<stop offset="1" stop-color="#363636"/>
</linearGradient>
<radialGradient id="paint12_radial_609_1952" cx="0" cy="0" r="1" gradientTransform="matrix(-1.97478 104.083 -104 -1.91133 64.2676 20.5024)" gradientUnits="userSpaceOnUse">
<stop stop-color="white"/>
<stop offset="1" stop-color="#DEDFE0"/>
</radialGradient>
<linearGradient id="paint13_linear_609_1952" x1="190.359" y1="150.539" x2="194.798" y2="215.766" gradientUnits="userSpaceOnUse">
<stop stop-color="#9C9C9C"/>
<stop offset="1" stop-color="#363636"/>
</linearGradient>
<linearGradient id="paint14_linear_609_1952" x1="16.3882" y1="0" x2="16.3882" y2="32.7764" gradientUnits="userSpaceOnUse">
<stop stop-color="#8BF342"/>
<stop offset="1" stop-color="#C2E2AB"/>
</linearGradient>
<linearGradient id="paint15_linear_609_1952" x1="16.3882" y1="0" x2="16.3882" y2="32.7764" gradientUnits="userSpaceOnUse">
<stop stop-color="#8BF342"/>
<stop offset="1" stop-color="#C2E2AB"/>
</linearGradient>
<linearGradient id="paint16_linear_609_1952" x1="16.3882" y1="0" x2="16.3882" y2="32.7764" gradientUnits="userSpaceOnUse">
<stop stop-color="#8BF342"/>
<stop offset="1" stop-color="#C2E2AB"/>
</linearGradient>
<linearGradient id="paint17_linear_609_1952" x1="16.3882" y1="0" x2="16.3882" y2="32.7764" gradientUnits="userSpaceOnUse">
<stop stop-color="#8BF342"/>
<stop offset="1" stop-color="#C2E2AB"/>
</linearGradient>
<linearGradient id="paint18_linear_609_1952" x1="16.3882" y1="0" x2="16.3882" y2="32.7764" gradientUnits="userSpaceOnUse">
<stop stop-color="#5EBB1C"/>
<stop offset="1" stop-color="#82FF2A"/>
</linearGradient>
</defs>
</svg>
