<svg width="323" height="479" viewBox="0 0 323 479" fill="none" xmlns="http://www.w3.org/2000/svg">
<path d="M65.0205 1H257.582C281.071 1.00007 296.027 26.1065 284.842 46.7617L239.24 130.973C237.288 134.578 238.019 139.048 241.02 141.843L299.489 196.318C312.647 208.577 312.647 229.423 299.489 241.682L236.717 300.165C233.457 303.202 232.911 308.167 235.431 311.841L316.111 429.465C330.222 450.036 315.492 478 290.547 478H32.0547C7.1094 478 -7.61898 450.036 6.49121 429.465L86.7822 312.409C89.3023 308.735 88.7547 303.77 85.4951 300.733L22.1133 241.682C8.95565 229.423 8.95565 208.577 22.1133 196.318L22.1143 196.317L81.1904 141.088C84.1815 138.292 84.9086 133.828 82.959 130.228L37.7607 46.7617C26.5756 26.1065 41.5313 1 65.0205 1Z" fill="url(#paint0_linear_609_1984)" stroke="white" stroke-width="2" stroke-linecap="round"/>
<defs>
<linearGradient id="paint0_linear_609_1984" x1="326.636" y1="-12.2686" x2="157.474" y2="534.296" gradientUnits="userSpaceOnUse">
<stop stop-color="white"/>
<stop offset="1" stop-color="white" stop-opacity="0.8"/>
</linearGradient>
</defs>
</svg>
