<svg width="275" height="201" viewBox="0 0 275 201" fill="none" xmlns="http://www.w3.org/2000/svg">
<path d="M129.817 165.214L131.796 165.365C196.801 167.074 197.161 126.328 260.226 100.392C261.241 99.9746 261.218 98.3731 260.196 98.235C224.956 93.4711 195.469 45.8204 174.415 45.2668C152.706 44.696 147.744 66.0041 147.637 66.4787C147.633 66.4935 147.632 66.494 147.627 66.5085C147.499 66.8521 146.917 66.8396 146.897 66.4929C146.565 60.8742 144.038 44.4722 125.854 43.9941C104.8 43.4405 60.3883 88.9615 23.9267 91.8251C22.8696 91.9081 22.3352 93.4944 23.2089 93.9617C77.4696 122.986 64.808 163.504 129.817 165.214ZM198.16 98.262C199.329 98.2711 199.309 100.405 198.15 100.767C177.81 107.118 166.236 117.523 139.659 116.825C110.473 116.057 88.2767 95.1163 77.9648 94.8452C77.9607 94.8451 160.596 97.969 198.16 98.262Z" fill="black"/>
<path d="M129.817 165.214L131.796 165.365C196.801 167.074 197.161 126.328 260.226 100.392C261.241 99.9746 261.218 98.3731 260.196 98.235C224.956 93.4711 195.469 45.8204 174.415 45.2668C152.706 44.696 147.744 66.0041 147.637 66.4787C147.633 66.4935 147.632 66.494 147.627 66.5085C147.499 66.8521 146.917 66.8396 146.897 66.4929C146.565 60.8742 144.038 44.4722 125.854 43.9941C104.8 43.4405 60.3883 88.9615 23.9267 91.8251C22.8696 91.9081 22.3352 93.4944 23.2089 93.9617C77.4696 122.986 64.808 163.504 129.817 165.214ZM198.16 98.262C199.329 98.2711 199.309 100.405 198.15 100.767C177.81 107.118 166.236 117.523 139.659 116.825C110.473 116.057 88.2767 95.1163 77.9648 94.8452C77.9607 94.8451 160.596 97.969 198.16 98.262Z" fill="#DA008A"/>
<path d="M128.464 163.342L130.443 163.493C195.448 165.202 195.808 124.456 258.873 98.5204C259.888 98.1027 259.865 96.5013 258.843 96.3632C223.603 91.5993 194.116 43.9486 173.062 43.395C151.353 42.8242 146.391 64.1323 146.283 64.6069C146.28 64.6217 146.279 64.6222 146.274 64.6367C146.146 64.9803 145.564 64.9677 145.544 64.621C145.212 59.0024 142.685 42.6004 124.501 42.1222C103.447 41.5687 59.0352 87.0897 22.5737 89.9532C21.5166 90.0363 20.9822 91.6226 21.8559 92.0899C76.1166 121.114 63.455 161.633 128.464 163.342ZM196.807 96.3902C197.976 96.3993 197.956 98.5336 196.797 98.8955C176.457 105.246 164.883 115.651 138.306 114.953C109.12 114.185 86.9236 93.2445 76.6118 92.9733C76.6077 92.9732 159.243 96.0972 196.807 96.3902Z" fill="black"/>
<path d="M128.464 163.342L130.443 163.493C195.448 165.202 195.808 124.456 258.873 98.5204C259.888 98.1027 259.865 96.5013 258.843 96.3632C223.603 91.5993 194.116 43.9486 173.062 43.395C151.353 42.8242 146.391 64.1323 146.283 64.6069C146.28 64.6217 146.279 64.6222 146.274 64.6367C146.146 64.9803 145.564 64.9677 145.544 64.621C145.212 59.0024 142.685 42.6004 124.501 42.1222C103.447 41.5687 59.0352 87.0897 22.5737 89.9532C21.5166 90.0363 20.9822 91.6226 21.8559 92.0899C76.1166 121.114 63.455 161.633 128.464 163.342ZM196.807 96.3902C197.976 96.3993 197.956 98.5336 196.797 98.8955C176.457 105.246 164.883 115.651 138.306 114.953C109.12 114.185 86.9236 93.2445 76.6118 92.9733C76.6077 92.9732 159.243 96.0972 196.807 96.3902Z" fill="#DA008A"/>
<path d="M127.107 161.47L129.085 161.621C194.091 163.33 194.451 122.584 257.516 96.6485C258.531 96.2309 258.507 94.6295 257.486 94.4914C222.246 89.7274 192.759 42.0768 171.705 41.5232C149.996 40.9524 145.034 62.2605 144.926 62.735C144.923 62.7499 144.922 62.7504 144.916 62.7649C144.789 63.1084 144.207 63.0959 144.187 62.7492C143.855 57.1306 141.328 40.7285 123.144 40.2504C102.09 39.6968 57.6781 85.2179 21.2165 88.0814C20.1594 88.1644 19.625 89.7507 20.4987 90.2181C74.7594 119.242 62.0978 159.761 127.107 161.47ZM195.45 94.5183C196.619 94.5275 196.599 96.6618 195.44 97.0237C175.1 103.374 163.526 113.78 136.949 113.081C107.763 112.313 85.5665 91.3726 75.2546 91.1015C75.2505 91.1014 157.886 94.2253 195.45 94.5183Z" fill="black"/>
<path d="M127.107 161.47L129.085 161.621C194.091 163.33 194.451 122.584 257.516 96.6485C258.531 96.2309 258.507 94.6295 257.486 94.4914C222.246 89.7274 192.759 42.0768 171.705 41.5232C149.996 40.9524 145.034 62.2605 144.926 62.735C144.923 62.7499 144.922 62.7504 144.916 62.7649C144.789 63.1084 144.207 63.0959 144.187 62.7492C143.855 57.1306 141.328 40.7285 123.144 40.2504C102.09 39.6968 57.6781 85.2179 21.2165 88.0814C20.1594 88.1644 19.625 89.7507 20.4987 90.2181C74.7594 119.242 62.0978 159.761 127.107 161.47ZM195.45 94.5183C196.619 94.5275 196.599 96.6618 195.44 97.0237C175.1 103.374 163.526 113.78 136.949 113.081C107.763 112.313 85.5665 91.3726 75.2546 91.1015C75.2505 91.1014 157.886 94.2253 195.45 94.5183Z" fill="#DA008A"/>
<path d="M125.75 159.599L127.729 159.75C192.734 161.459 193.094 120.713 256.159 94.7777C257.174 94.3601 257.15 92.7586 256.129 92.6205C220.889 87.8566 191.402 40.2059 170.348 39.6523C148.639 39.0815 143.677 60.3896 143.569 60.8642C143.566 60.879 143.565 60.8795 143.559 60.894C143.432 61.2376 142.85 61.2251 142.83 60.8784C142.498 55.2597 139.971 38.8577 121.787 38.3796C100.733 37.826 56.3211 83.347 19.8596 86.2106C18.8024 86.2936 18.2681 87.8799 19.1418 88.3472C73.4024 117.371 60.7409 157.89 125.75 159.599ZM194.093 92.6475C195.262 92.6566 195.242 94.7909 194.083 95.1529C173.743 101.503 162.169 111.909 135.592 111.21C106.406 110.443 84.2095 89.5018 73.8977 89.2307C73.8935 89.2305 156.529 92.3545 194.093 92.6475Z" fill="black"/>
<path d="M125.75 159.599L127.729 159.75C192.734 161.459 193.094 120.713 256.159 94.7777C257.174 94.3601 257.15 92.7586 256.129 92.6205C220.889 87.8566 191.402 40.2059 170.348 39.6523C148.639 39.0815 143.677 60.3896 143.569 60.8642C143.566 60.879 143.565 60.8795 143.559 60.894C143.432 61.2376 142.85 61.2251 142.83 60.8784C142.498 55.2597 139.971 38.8577 121.787 38.3796C100.733 37.826 56.3211 83.347 19.8596 86.2106C18.8024 86.2936 18.2681 87.8799 19.1418 88.3472C73.4024 117.371 60.7409 157.89 125.75 159.599ZM194.093 92.6475C195.262 92.6566 195.242 94.7909 194.083 95.1529C173.743 101.503 162.169 111.909 135.592 111.21C106.406 110.443 84.2095 89.5018 73.8977 89.2307C73.8935 89.2305 156.529 92.3545 194.093 92.6475Z" fill="#DA008A"/>
<path d="M124.397 157.726L126.375 157.877C191.381 159.586 191.741 118.84 254.806 92.9049C255.821 92.4873 255.797 90.8858 254.776 90.7477C219.536 85.9838 190.049 38.3331 168.995 37.7795C147.286 37.2087 142.324 58.5168 142.216 58.9914C142.213 59.0062 142.212 59.0067 142.206 59.0212C142.079 59.3648 141.497 59.3523 141.477 59.0056C141.145 53.3869 138.618 36.9849 120.434 36.5068C99.3797 35.9532 54.9681 81.4742 18.5066 84.3378C17.4494 84.4208 16.915 86.0071 17.7887 86.4744C72.0494 115.499 59.3878 156.017 124.397 157.726ZM192.74 90.7747C193.909 90.7838 193.889 92.9181 192.73 93.2801C172.39 99.6306 160.816 110.036 134.239 109.337C105.053 108.57 82.8565 87.629 72.5447 87.3579C72.5405 87.3577 155.176 90.4817 192.74 90.7747Z" fill="black"/>
<path d="M124.397 157.726L126.375 157.877C191.381 159.586 191.741 118.84 254.806 92.9049C255.821 92.4873 255.797 90.8858 254.776 90.7477C219.536 85.9838 190.049 38.3331 168.995 37.7795C147.286 37.2087 142.324 58.5168 142.216 58.9914C142.213 59.0062 142.212 59.0067 142.206 59.0212C142.079 59.3648 141.497 59.3523 141.477 59.0056C141.145 53.3869 138.618 36.9849 120.434 36.5068C99.3797 35.9532 54.9681 81.4742 18.5066 84.3378C17.4494 84.4208 16.915 86.0071 17.7887 86.4744C72.0494 115.499 59.3878 156.017 124.397 157.726ZM192.74 90.7747C193.909 90.7838 193.889 92.9181 192.73 93.2801C172.39 99.6306 160.816 110.036 134.239 109.337C105.053 108.57 82.8565 87.629 72.5447 87.3579C72.5405 87.3577 155.176 90.4817 192.74 90.7747Z" fill="#DA008A"/>
<path d="M123.044 155.857L125.022 156.008C190.028 157.717 190.388 116.971 253.453 91.0353C254.468 90.6176 254.444 89.0162 253.423 88.8781C218.183 84.1141 188.696 36.4635 167.642 35.9099C145.933 35.3391 140.971 56.6472 140.863 57.1218C140.86 57.1366 140.859 57.1371 140.853 57.1516C140.726 57.4951 140.144 57.4826 140.124 57.1359C139.792 51.5173 137.265 35.1153 119.081 34.6371C98.0267 34.0836 53.6151 79.6046 17.1535 82.4681C16.0964 82.5512 15.562 84.1375 16.4357 84.6048C70.6964 113.629 58.0348 154.147 123.044 155.857ZM191.387 88.9051C192.556 88.9142 192.536 91.0485 191.377 91.4104C171.037 97.761 159.463 108.166 132.886 107.468C103.7 106.7 81.5035 85.7594 71.1916 85.4882C71.1875 85.4881 153.823 88.6121 191.387 88.9051Z" fill="black"/>
<path d="M123.044 155.857L125.022 156.008C190.028 157.717 190.388 116.971 253.453 91.0353C254.468 90.6176 254.444 89.0162 253.423 88.8781C218.183 84.1141 188.696 36.4635 167.642 35.9099C145.933 35.3391 140.971 56.6472 140.863 57.1218C140.86 57.1366 140.859 57.1371 140.853 57.1516C140.726 57.4951 140.144 57.4826 140.124 57.1359C139.792 51.5173 137.265 35.1153 119.081 34.6371C98.0267 34.0836 53.6151 79.6046 17.1535 82.4681C16.0964 82.5512 15.562 84.1375 16.4357 84.6048C70.6964 113.629 58.0348 154.147 123.044 155.857ZM191.387 88.9051C192.556 88.9142 192.536 91.0485 191.377 91.4104C171.037 97.761 159.463 108.166 132.886 107.468C103.7 106.7 81.5035 85.7594 71.1916 85.4882C71.1875 85.4881 153.823 88.6121 191.387 88.9051Z" fill="url(#paint0_radial_614_2344)"/>
<path d="M221.945 25.0444C223.441 22.8579 226.719 23.1171 227.242 25.4633L231.715 45.527C231.866 46.2045 232.286 46.7689 232.892 47.1076L250.835 57.1376C252.934 58.3105 252.244 61.5253 249.72 62.3328L228.142 69.2378C227.413 69.471 226.768 69.9513 226.336 70.5826L213.542 89.2811C212.046 91.4676 208.768 91.2084 208.245 88.8622L203.772 68.7985C203.621 68.1211 203.201 67.5566 202.595 67.2179L184.652 57.1879C182.553 56.015 183.244 52.8002 185.767 51.9927L207.346 45.0877C208.074 44.8545 208.719 44.3742 209.151 43.7429L221.945 25.0444Z" fill="url(#paint1_linear_614_2344)"/>
<path d="M221.106 23.7498C222.603 21.5632 225.88 21.8224 226.403 24.1686L230.876 44.2323C231.028 44.9098 231.448 45.4743 232.054 45.8129L249.997 55.8429C252.095 57.0158 251.405 60.2306 248.882 61.0381L227.303 67.9432C226.575 68.1763 225.93 68.6566 225.498 69.2879L212.704 87.9864C211.208 90.1729 207.93 89.9138 207.407 87.5675L202.934 67.5038C202.783 66.8264 202.362 66.2619 201.757 65.9232L183.813 55.8932C181.715 54.7203 182.405 51.5055 184.929 50.6981L206.507 43.793C207.236 43.5598 207.881 43.0796 208.313 42.4482L221.106 23.7498Z" fill="url(#paint2_linear_614_2344)"/>
<path d="M220.268 22.4536C221.764 20.2671 225.042 20.5262 225.565 22.8725L230.038 42.9362C230.189 43.6136 230.61 44.1781 231.215 44.5168L249.159 54.5468C251.257 55.7197 250.567 58.9345 248.043 59.742L226.465 66.647C225.736 66.8802 225.092 67.3604 224.66 67.9918L211.866 86.6902C210.369 88.8768 207.092 88.6176 206.569 86.2714L202.096 66.2077C201.945 65.5302 201.524 64.9657 200.918 64.6271L182.975 54.5971C180.877 53.4242 181.567 50.2094 184.09 49.4019L205.669 42.4968C206.397 42.2637 207.042 41.7834 207.474 41.1521L220.268 22.4536Z" fill="url(#paint3_linear_614_2344)"/>
<path d="M219.43 21.1599C220.926 18.9734 224.204 19.2325 224.727 21.5788L229.2 41.6425C229.351 42.3199 229.771 42.8844 230.377 43.2231L248.32 53.2531C250.419 54.426 249.728 57.6408 247.205 58.4483L225.627 65.3533C224.898 65.5865 224.253 66.0667 223.821 66.6981L211.027 85.3965C209.531 87.5831 206.253 87.3239 205.73 84.9777L201.257 64.914C201.106 64.2365 200.686 63.672 200.08 63.3334L182.137 53.3034C180.038 52.1305 180.728 48.9157 183.252 48.1082L204.83 41.2031C205.559 40.97 206.204 40.4897 206.636 39.8584L219.43 21.1599Z" fill="url(#paint4_linear_614_2344)"/>
<path d="M218.591 19.865C220.087 17.6784 223.365 17.9376 223.888 20.2838L228.361 40.3476C228.512 41.025 228.933 41.5895 229.539 41.9282L247.482 51.9582C249.58 53.1311 248.89 56.3459 246.367 57.1533L224.788 64.0584C224.06 64.2915 223.415 64.7718 222.983 65.4032L210.189 84.1016C208.693 86.2882 205.415 86.029 204.892 83.6828L200.419 63.6191C200.268 62.9416 199.847 62.3771 199.241 62.0384L181.298 52.0084C179.2 50.8355 179.89 47.6208 182.413 46.8133L203.992 39.9082C204.721 39.6751 205.365 39.1948 205.797 38.5634L218.591 19.865Z" fill="white"/>
<path d="M218.591 19.865C220.087 17.6784 223.365 17.9376 223.888 20.2838L228.361 40.3476C228.512 41.025 228.933 41.5895 229.539 41.9282L247.482 51.9582C249.58 53.1311 248.89 56.3459 246.367 57.1533L224.788 64.0584C224.06 64.2915 223.415 64.7718 222.983 65.4032L210.189 84.1016C208.693 86.2882 205.415 86.029 204.892 83.6828L200.419 63.6191C200.268 62.9416 199.847 62.3771 199.241 62.0384L181.298 52.0084C179.2 50.8355 179.89 47.6208 182.413 46.8133L203.992 39.9082C204.721 39.6751 205.365 39.1948 205.797 38.5634L218.591 19.865Z" fill="url(#paint5_linear_614_2344)"/>
<defs>
<radialGradient id="paint0_radial_614_2344" cx="0" cy="0" r="1" gradientTransform="matrix(-18.0808 117.053 -237.864 -5.85533 142.106 38.9285)" gradientUnits="userSpaceOnUse">
<stop stop-color="#FF45BB"/>
<stop offset="1" stop-color="#F2F4F7"/>
</radialGradient>
<linearGradient id="paint1_linear_614_2344" x1="225.87" y1="19.3084" x2="219.82" y2="95.8238" gradientUnits="userSpaceOnUse">
<stop stop-color="#FF8551"/>
<stop offset="1" stop-color="#FFB133"/>
</linearGradient>
<linearGradient id="paint2_linear_614_2344" x1="225.031" y1="18.0137" x2="218.981" y2="94.5291" gradientUnits="userSpaceOnUse">
<stop stop-color="#FF8551"/>
<stop offset="1" stop-color="#FFB133"/>
</linearGradient>
<linearGradient id="paint3_linear_614_2344" x1="224.193" y1="16.7175" x2="218.143" y2="93.233" gradientUnits="userSpaceOnUse">
<stop stop-color="#FF8551"/>
<stop offset="1" stop-color="#FFB133"/>
</linearGradient>
<linearGradient id="paint4_linear_614_2344" x1="223.354" y1="15.4238" x2="217.304" y2="91.9393" gradientUnits="userSpaceOnUse">
<stop stop-color="#FF8551"/>
<stop offset="1" stop-color="#FFB133"/>
</linearGradient>
<linearGradient id="paint5_linear_614_2344" x1="216.75" y1="9.7522" x2="213.197" y2="90.1441" gradientUnits="userSpaceOnUse">
<stop stop-color="#FFCD07"/>
<stop offset="1" stop-color="#FEC259"/>
</linearGradient>
</defs>
</svg>
