<svg width="329" height="479" viewBox="0 0 329 479" fill="none" xmlns="http://www.w3.org/2000/svg">
<mask id="path-1-inside-1_609_2002" fill="white">
<path d="M240.195 0C289.625 0 329.695 40.0705 329.695 89.5C329.695 120.903 313.521 148.527 289.05 164.5C313.521 180.473 329.695 208.097 329.695 239.5C329.695 270.903 313.521 298.527 289.05 314.5C313.521 330.473 329.695 358.097 329.695 389.5C329.695 438.929 289.625 479 240.195 479H89.1953C39.7658 479 -0.304688 438.929 -0.304688 389.5C-0.304688 358.097 15.869 330.473 40.3398 314.5C15.869 298.527 -0.304688 270.903 -0.304688 239.5C-0.304688 208.097 15.869 180.473 40.3398 164.5C15.869 148.527 -0.304688 120.903 -0.304688 89.5C-0.304688 40.0705 39.7658 0 89.1953 0H240.195Z"/>
</mask>
<path d="M240.195 0C289.625 0 329.695 40.0705 329.695 89.5C329.695 120.903 313.521 148.527 289.05 164.5C313.521 180.473 329.695 208.097 329.695 239.5C329.695 270.903 313.521 298.527 289.05 314.5C313.521 330.473 329.695 358.097 329.695 389.5C329.695 438.929 289.625 479 240.195 479H89.1953C39.7658 479 -0.304688 438.929 -0.304688 389.5C-0.304688 358.097 15.869 330.473 40.3398 314.5C15.869 298.527 -0.304688 270.903 -0.304688 239.5C-0.304688 208.097 15.869 180.473 40.3398 164.5C15.869 148.527 -0.304688 120.903 -0.304688 89.5C-0.304688 40.0705 39.7658 0 89.1953 0H240.195Z" fill="url(#paint0_linear_609_2002)"/>
<path d="M289.05 164.5L287.957 162.825L285.391 164.5L287.957 166.175L289.05 164.5ZM289.05 314.5L287.957 312.825L285.391 314.5L287.957 316.175L289.05 314.5ZM40.3398 314.5L41.433 316.175L43.9988 314.5L41.433 312.825L40.3398 314.5ZM40.3398 164.5L41.433 166.175L43.9988 164.5L41.433 162.825L40.3398 164.5ZM240.195 0V2C288.52 2 327.695 41.1751 327.695 89.5H329.695H331.695C331.695 38.9659 290.729 -2 240.195 -2V0ZM329.695 89.5H327.695C327.695 120.199 311.886 147.206 287.957 162.825L289.05 164.5L290.143 166.175C315.156 149.848 331.695 121.607 331.695 89.5H329.695ZM289.05 164.5L287.957 166.175C311.886 181.794 327.695 208.801 327.695 239.5H329.695H331.695C331.695 207.393 315.156 179.152 290.143 162.825L289.05 164.5ZM329.695 239.5H327.695C327.695 270.199 311.886 297.206 287.957 312.825L289.05 314.5L290.143 316.175C315.156 299.848 331.695 271.607 331.695 239.5H329.695ZM289.05 314.5L287.957 316.175C311.886 331.794 327.695 358.801 327.695 389.5H329.695H331.695C331.695 357.393 315.156 329.152 290.143 312.825L289.05 314.5ZM329.695 389.5H327.695C327.695 437.825 288.52 477 240.195 477V479V481C290.729 481 331.695 440.034 331.695 389.5H329.695ZM240.195 479V477H89.1953V479V481H240.195V479ZM89.1953 479V477C40.8704 477 1.69531 437.825 1.69531 389.5H-0.304688H-2.30469C-2.30469 440.034 38.6613 481 89.1953 481V479ZM-0.304688 389.5H1.69531C1.69531 358.801 17.5038 331.794 41.433 316.175L40.3398 314.5L39.2466 312.825C14.2341 329.152 -2.30469 357.393 -2.30469 389.5H-0.304688ZM40.3398 314.5L41.433 312.825C17.5038 297.206 1.69531 270.199 1.69531 239.5H-0.304688H-2.30469C-2.30469 271.607 14.2341 299.848 39.2466 316.175L40.3398 314.5ZM-0.304688 239.5H1.69531C1.69531 208.801 17.5038 181.794 41.433 166.175L40.3398 164.5L39.2466 162.825C14.2341 179.152 -2.30469 207.393 -2.30469 239.5H-0.304688ZM40.3398 164.5L41.433 162.825C17.5038 147.206 1.69531 120.199 1.69531 89.5H-0.304688H-2.30469C-2.30469 121.607 14.2341 149.848 39.2466 166.175L40.3398 164.5ZM-0.304688 89.5H1.69531C1.69531 41.1751 40.8704 2 89.1953 2V0V-2C38.6613 -2 -2.30469 38.9659 -2.30469 89.5H-0.304688ZM89.1953 0V2H240.195V0V-2H89.1953V0Z" fill="white" mask="url(#path-1-inside-1_609_2002)"/>
<defs>
<linearGradient id="paint0_linear_609_2002" x1="-0.304688" y1="0" x2="439.881" y2="377.28" gradientUnits="userSpaceOnUse">
<stop stop-color="white"/>
<stop offset="1" stop-color="white" stop-opacity="0.8"/>
</linearGradient>
</defs>
</svg>
