<svg width="331" height="479" viewBox="0 0 331 479" fill="none" xmlns="http://www.w3.org/2000/svg">
<mask id="path-1-inside-1_1232_1625" fill="white">
<path d="M330 447C330 464.673 315.673 479 298 479H32C14.3269 479 0 464.673 0 447V332C0 314.327 14.3269 300 32 300H298C315.673 300 330 314.327 330 332V447Z"/>
</mask>
<path d="M330 447C330 464.673 315.673 479 298 479H32C14.3269 479 0 464.673 0 447V332C0 314.327 14.3269 300 32 300H298C315.673 300 330 314.327 330 332V447Z" fill="url(#paint0_linear_1232_1625)"/>
<path d="M298 479V477H32V479V481H298V479ZM0 447H2V332H0H-2V447H0ZM32 300V302H298V300V298H32V300ZM330 332H328V447H330H332V332H330ZM298 300V302C314.569 302 328 315.431 328 332H330H332C332 313.222 316.778 298 298 298V300ZM0 332H2C2 315.431 15.4315 302 32 302V300V298C13.2223 298 -2 313.222 -2 332H0ZM32 479V477C15.4315 477 2 463.569 2 447H0H-2C-2 465.778 13.2223 481 32 481V479ZM298 479V481C316.778 481 332 465.778 332 447H330H328C328 463.569 314.569 477 298 477V479Z" fill="white" mask="url(#path-1-inside-1_1232_1625)"/>
<rect opacity="0.1" width="330.305" height="26.5544" rx="13.2772" fill="white"/>
<rect opacity="0.2" y="31.5547" width="330.305" height="26.5544" rx="13.2772" fill="white"/>
<rect opacity="0.3" y="63.1084" width="330.305" height="26.5544" rx="13.2772" fill="white"/>
<rect opacity="0.4" y="94.6631" width="330.305" height="26.5544" rx="13.2772" fill="white"/>
<rect opacity="0.4" y="126.218" width="330.305" height="26.5544" rx="13.2772" fill="white"/>
<rect opacity="0.5" y="157.771" width="330.305" height="26.5544" rx="13.2772" fill="white"/>
<rect opacity="0.6" y="189.326" width="330.305" height="26.5544" rx="13.2772" fill="white"/>
<rect opacity="0.7" y="220.881" width="330.305" height="26.5544" rx="13.2772" fill="white"/>
<rect opacity="0.8" y="252.435" width="330.305" height="40" rx="20" fill="white"/>
<path d="M101.558 348.336C99.4117 348.336 97.6663 348.121 96.3223 347.692C94.997 347.244 94.017 346.507 93.3823 345.48C92.7663 344.435 92.5237 343.025 92.6543 341.252L100.186 340.664C100.13 341.205 100.149 341.7 100.242 342.148C100.354 342.596 100.578 342.969 100.914 343.268C101.269 343.567 101.773 343.716 102.426 343.716C102.781 343.716 103.145 343.697 103.518 343.66C103.892 343.604 104.172 343.529 104.358 343.436C104.433 343.268 104.498 343.1 104.554 342.932C104.629 342.764 104.694 342.596 104.75 342.428C104.881 342.036 104.965 341.681 105.002 341.364C105.114 340.823 105.124 340.403 105.03 340.104C104.937 339.787 104.704 339.544 104.33 339.376C103.957 339.189 103.406 339.077 102.678 339.04C100.345 338.984 98.5437 338.704 97.2743 338.2C96.0237 337.677 95.2023 336.987 94.8103 336.128C94.4183 335.251 94.3343 334.177 94.5583 332.908C94.9503 330.743 96.089 329.091 97.9743 327.952C99.8597 326.813 102.184 326.244 104.946 326.244C107 326.244 108.652 326.543 109.902 327.14C111.172 327.719 112.068 328.605 112.59 329.8C113.132 330.995 113.309 332.516 113.122 334.364L106.206 334.84C106.225 334.728 106.234 334.616 106.234 334.504C106.253 334.392 106.272 334.289 106.29 334.196C106.346 333.449 106.328 332.871 106.234 332.46C106.16 332.049 105.936 331.723 105.562 331.48C105.189 331.237 104.61 331.116 103.826 331.116C103.546 331.116 103.238 331.135 102.902 331.172C102.566 331.209 102.305 331.256 102.118 331.312C102.044 331.499 101.96 331.685 101.866 331.872C101.792 332.04 101.717 332.227 101.642 332.432C101.512 332.749 101.4 333.16 101.306 333.664C101.194 334.224 101.185 334.672 101.278 335.008C101.39 335.344 101.624 335.615 101.978 335.82C102.333 336.025 102.856 336.156 103.546 336.212C106.066 336.287 107.952 336.539 109.202 336.968C110.453 337.379 111.246 337.957 111.582 338.704C111.918 339.432 111.984 340.44 111.778 341.728C111.517 343.109 110.91 344.295 109.958 345.284C109.006 346.273 107.793 347.029 106.318 347.552C104.862 348.075 103.276 348.336 101.558 348.336ZM112.766 348C112.99 346.955 113.308 345.349 113.718 343.184C114.129 341.019 114.493 339.068 114.81 337.332C115.109 335.652 115.417 333.795 115.734 331.76C116.07 329.725 116.332 328.017 116.518 326.636H132.87L132.002 331.648H122.538L121.866 335.764L130.602 335.568L129.986 339.04L121.278 338.816L120.522 342.988H130.07L129.202 348H112.766ZM131.196 348C131.532 346.376 131.849 344.733 132.148 343.072C132.465 341.411 132.783 339.731 133.1 338.032C133.511 335.829 133.875 333.86 134.192 332.124C134.267 331.601 134.463 330.416 134.78 328.568C134.836 328.176 134.892 327.812 134.948 327.476C135.004 327.14 135.051 326.86 135.088 326.636H145.056L145.14 341.672H145.7L150.908 326.636H160.904L160.568 328.428C160.157 330.724 159.933 331.956 159.896 332.124C158.832 338.657 158.039 343.949 157.516 348H151.244C151.468 346.675 151.739 345.041 152.056 343.1C152.149 342.447 152.252 341.784 152.364 341.112C152.476 340.421 152.588 339.74 152.7 339.068C153.279 335.521 153.652 333.197 153.82 332.096H153.428L147.492 348H141.164L140.66 332.096H140.268C140.156 332.675 140.044 333.281 139.932 333.916C139.82 334.532 139.699 335.167 139.568 335.82C139.456 336.492 139.26 337.584 138.98 339.096C138.905 339.563 138.821 340.029 138.728 340.496C138.653 340.963 138.569 341.429 138.476 341.896C138.14 343.688 137.785 345.723 137.412 348H131.196ZM168.946 348.392C166.799 348.392 165.138 348.075 163.962 347.44C162.804 346.805 162.048 345.835 161.694 344.528C161.358 343.203 161.376 341.467 161.75 339.32C161.899 338.536 162.104 337.397 162.366 335.904C162.459 335.419 162.543 334.943 162.618 334.476C162.711 333.991 162.795 333.515 162.87 333.048C163.28 330.677 163.616 328.54 163.878 326.636H170.766C170.672 327.159 170.551 327.831 170.402 328.652C170.271 329.455 170.112 330.341 169.926 331.312C169.347 334.616 168.992 336.632 168.862 337.36C168.507 339.395 168.395 340.925 168.526 341.952C168.675 342.96 169.207 343.464 170.122 343.464C170.476 343.464 170.85 343.427 171.242 343.352C171.634 343.259 171.96 343.147 172.222 343.016C172.259 342.717 172.296 342.456 172.334 342.232C172.371 342.008 172.408 341.821 172.446 341.672C172.632 341.075 172.782 340.515 172.894 339.992C173.024 339.451 173.183 338.639 173.37 337.556C174.247 332.46 174.854 328.82 175.19 326.636H182.106C181.583 329.361 181.098 332.003 180.65 334.56C180.444 335.773 180.108 337.724 179.642 340.412C179.268 342.447 178.606 344.052 177.654 345.228C176.702 346.385 175.516 347.207 174.098 347.692C172.679 348.159 170.962 348.392 168.946 348.392ZM178.52 348C178.987 346.693 180.116 343.669 181.908 338.928C182.767 336.819 183.579 334.784 184.344 332.824C185.128 330.864 185.931 328.801 186.752 326.636H198.624C198.699 333.487 198.969 340.608 199.436 348H192.212C192.231 346.675 192.212 344.379 192.156 341.112C192.119 338.835 192.119 336.707 192.156 334.728C192.193 332.749 192.259 330.799 192.352 328.876H192.072C190.952 332.068 189.785 335.577 188.572 339.404C188.068 340.636 187.069 343.501 185.576 348H178.52ZM187.928 340.16H192.632L192.604 343.856C192.305 343.856 192.007 343.856 191.708 343.856C191.409 343.856 191.101 343.856 190.784 343.856H189.58C189.039 343.856 188.516 343.856 188.012 343.856C187.508 343.856 187.004 343.856 186.5 343.856L187.928 340.16ZM206.883 347.972C207.014 347.3 207.145 346.619 207.275 345.928C207.425 345.237 207.565 344.528 207.695 343.8C208.218 341.093 208.619 338.937 208.899 337.332C209.515 333.86 210.094 330.295 210.635 326.636H219.511C221.658 326.636 223.403 326.981 224.747 327.672C226.11 328.344 227.043 329.464 227.547 331.032C228.051 332.6 228.07 334.691 227.603 337.304C227.155 339.88 226.437 341.952 225.447 343.52C224.477 345.088 223.254 346.227 221.779 346.936C220.323 347.627 218.578 347.972 216.543 347.972H206.883ZM216.543 343.352C217.29 343.352 217.915 343.184 218.419 342.848C218.923 342.493 219.353 341.896 219.707 341.056C220.081 340.216 220.407 338.993 220.687 337.388C220.967 335.801 221.07 334.569 220.995 333.692C220.921 332.796 220.678 332.171 220.267 331.816C219.857 331.461 219.269 331.284 218.503 331.284H216.711L214.583 343.352H216.543ZM227.747 348C228.381 344.901 229.044 341.336 229.735 337.304C230.481 333.235 231.069 329.679 231.499 326.636H238.415C238.097 328.129 237.556 330.976 236.791 335.176L236.399 337.276C235.54 342.316 234.961 345.891 234.663 348H227.747ZM86.901 377C87.741 372.688 88.3943 369.225 88.861 366.612C89.477 363.065 89.8037 361.133 89.841 360.816C89.449 360.797 89.029 360.797 88.581 360.816C88.133 360.816 87.6663 360.825 87.181 360.844C86.733 360.863 86.2943 360.881 85.865 360.9C85.4357 360.9 85.025 360.9 84.633 360.9L85.557 355.636H102.833L101.909 360.9C100.304 360.9 98.5677 360.872 96.701 360.816C96.5517 361.693 96.3557 362.795 96.113 364.12C95.8703 365.427 95.6743 366.463 95.525 367.228C95.021 370.047 94.4797 373.304 93.901 377H86.901ZM100.161 377C100.385 375.955 100.702 374.349 101.113 372.184C101.523 370.019 101.887 368.068 102.205 366.332C102.503 364.652 102.811 362.795 103.129 360.76C103.465 358.725 103.726 357.017 103.913 355.636H120.265L119.397 360.648H109.933L109.261 364.764L117.997 364.568L117.381 368.04L108.673 367.816L107.917 371.988H117.465L116.597 377H100.161ZM118.59 377C119.262 373.584 119.925 370.028 120.578 366.332C120.896 364.652 121.316 362.188 121.838 358.94L122.342 355.636H129.398C128.745 358.959 128.138 362.244 127.578 365.492C127.13 367.993 126.776 370.056 126.514 371.68C129.296 371.68 131.778 371.661 133.962 371.624L132.562 377H118.59ZM135.024 377C135.248 375.955 135.565 374.349 135.976 372.184C136.387 370.019 136.751 368.068 137.068 366.332C137.367 364.652 137.675 362.795 137.992 360.76C138.328 358.725 138.589 357.017 138.776 355.636H155.128L154.26 360.648H144.796L144.124 364.764L152.86 364.568L152.244 368.04L143.536 367.816L142.78 371.988H152.328L151.46 377H135.024ZM160.706 377.392C158.932 377.392 157.523 376.972 156.478 376.132C155.451 375.273 154.788 374.023 154.49 372.38C154.21 370.719 154.275 368.693 154.686 366.304C155.152 363.747 155.852 361.665 156.786 360.06C157.738 358.436 158.979 357.232 160.51 356.448C162.04 355.664 163.935 355.272 166.194 355.272C168.602 355.272 170.422 355.589 171.654 356.224C172.904 356.84 173.707 357.82 174.062 359.164C174.435 360.508 174.463 362.347 174.146 364.68L167.202 365.38C167.706 361.945 167.034 360.228 165.186 360.228C164.812 360.228 164.458 360.256 164.122 360.312C163.786 360.368 163.459 360.452 163.142 360.564C162.787 361.311 162.479 362.113 162.218 362.972C161.956 363.831 161.723 364.848 161.518 366.024C161.312 367.275 161.228 368.385 161.266 369.356C161.322 370.308 161.536 371.073 161.91 371.652C162.302 372.231 162.862 372.52 163.59 372.52C163.944 372.52 164.28 372.501 164.598 372.464C164.934 372.408 165.251 372.333 165.55 372.24C165.755 372.165 165.96 372.063 166.166 371.932C166.371 371.783 166.558 371.643 166.726 371.512C166.912 371.363 167.08 371.241 167.23 371.148C167.36 370.401 167.314 369.832 167.09 369.44C166.884 369.048 166.464 368.796 165.83 368.684H164.066L164.206 367.9H174.37C174.239 368.516 174.127 369.104 174.034 369.664C173.94 370.224 173.847 370.756 173.754 371.26C173.567 372.268 173.24 374.181 172.774 377H166.138L167.118 372.24H166.698C166.212 373.957 165.447 375.245 164.402 376.104C163.375 376.963 162.143 377.392 160.706 377.392ZM174.727 377C174.82 376.533 174.923 376.057 175.035 375.572C175.128 375.087 175.222 374.592 175.315 374.088C175.558 372.763 175.8 371.447 176.043 370.14C176.304 368.833 176.538 367.564 176.743 366.332C177.098 364.409 177.508 361.964 177.975 358.996C178.068 358.417 178.152 357.848 178.227 357.288C178.32 356.728 178.404 356.177 178.479 355.636H188.755C190.566 355.636 192.068 355.767 193.263 356.028C194.476 356.289 195.4 356.84 196.035 357.68C196.67 358.52 196.838 359.752 196.539 361.376C196.296 362.832 195.858 363.98 195.223 364.82C194.607 365.66 193.776 366.267 192.731 366.64C191.686 366.995 190.351 367.181 188.727 367.2L188.615 367.732C190.948 367.769 192.572 368.124 193.487 368.796C194.402 369.449 194.775 370.513 194.607 371.988C194.551 372.567 194.523 373.416 194.523 374.536C194.523 375.656 194.56 376.477 194.635 377H187.187C187.206 376.739 187.224 376.216 187.243 375.432C187.318 374.032 187.42 372.94 187.551 372.156C187.607 371.409 187.579 370.859 187.467 370.504C187.374 370.149 187.187 369.907 186.907 369.776C186.646 369.627 186.226 369.552 185.647 369.552H182.987C182.95 369.664 182.698 370.971 182.231 373.472L181.643 377H174.727ZM185.815 365.744C186.73 365.744 187.467 365.529 188.027 365.1C188.606 364.652 188.97 363.943 189.119 362.972C189.25 362.263 189.231 361.712 189.063 361.32C188.914 360.928 188.643 360.657 188.251 360.508C187.878 360.359 187.392 360.284 186.795 360.284H184.527L183.575 365.744H185.815ZM195.145 377C195.612 375.693 196.741 372.669 198.533 367.928C199.392 365.819 200.204 363.784 200.969 361.824C201.753 359.864 202.556 357.801 203.377 355.636H215.249C215.324 362.487 215.594 369.608 216.061 377H208.837C208.856 375.675 208.837 373.379 208.781 370.112C208.744 367.835 208.744 365.707 208.781 363.728C208.818 361.749 208.884 359.799 208.977 357.876H208.697C207.577 361.068 206.41 364.577 205.197 368.404C204.693 369.636 203.694 372.501 202.201 377H195.145ZM204.553 369.16H209.257L209.229 372.856C208.93 372.856 208.632 372.856 208.333 372.856C208.034 372.856 207.726 372.856 207.409 372.856H206.205C205.664 372.856 205.141 372.856 204.637 372.856C204.133 372.856 203.629 372.856 203.125 372.856L204.553 369.16ZM217.137 377C217.473 375.376 217.791 373.733 218.089 372.072C218.407 370.411 218.724 368.731 219.041 367.032C219.452 364.829 219.816 362.86 220.133 361.124C220.208 360.601 220.404 359.416 220.721 357.568C220.777 357.176 220.833 356.812 220.889 356.476C220.945 356.14 220.992 355.86 221.029 355.636H230.997L231.081 370.672H231.641L236.849 355.636H246.845L246.509 357.428C246.099 359.724 245.875 360.956 245.837 361.124C244.773 367.657 243.98 372.949 243.457 377H237.185C237.409 375.675 237.68 374.041 237.997 372.1C238.091 371.447 238.193 370.784 238.305 370.112C238.417 369.421 238.529 368.74 238.641 368.068C239.22 364.521 239.593 362.197 239.761 361.096H239.369L233.433 377H227.105L226.601 361.096H226.209C226.097 361.675 225.985 362.281 225.873 362.916C225.761 363.532 225.64 364.167 225.509 364.82C225.397 365.492 225.201 366.584 224.921 368.096C224.847 368.563 224.763 369.029 224.669 369.496C224.595 369.963 224.511 370.429 224.417 370.896C224.081 372.688 223.727 374.723 223.353 377H217.137Z" fill="#2A1B00"/>
<path d="M96.4594 401.2V402.698H93.5754V411H91.9794V402.698H89.0954V401.2H96.4594ZM97.1534 402.264V400.668H98.7634V402.264H97.1534ZM97.1814 411V403.44H98.7354V411H97.1814ZM106.247 400.724H107.801V411H106.625L106.429 410.146C105.701 410.837 104.81 411.182 103.755 411.182C102.617 411.182 101.674 410.809 100.927 410.062C100.19 409.306 99.8212 408.359 99.8212 407.22C99.8212 406.081 100.19 405.139 100.927 404.392C101.674 403.636 102.617 403.258 103.755 403.258C104.717 403.258 105.547 403.552 106.247 404.14V400.724ZM102.117 408.998C102.584 409.465 103.172 409.698 103.881 409.698C104.591 409.698 105.179 409.465 105.645 408.998C106.121 408.522 106.359 407.929 106.359 407.22C106.359 406.753 106.252 406.333 106.037 405.96C105.823 405.577 105.524 405.279 105.141 405.064C104.768 404.849 104.348 404.742 103.881 404.742C103.415 404.742 102.99 404.849 102.607 405.064C102.234 405.279 101.94 405.577 101.725 405.96C101.52 406.333 101.417 406.753 101.417 407.22C101.417 407.929 101.651 408.522 102.117 408.998ZM115.788 403.44H116.992V411H115.732L115.578 410.076C114.85 410.813 113.94 411.182 112.848 411.182C111.719 411.182 110.776 410.804 110.02 410.048C109.273 409.292 108.9 408.349 108.9 407.22C108.9 406.081 109.273 405.139 110.02 404.392C110.776 403.636 111.719 403.258 112.848 403.258C113.959 403.258 114.878 403.631 115.606 404.378L115.788 403.44ZM111.182 408.998C111.658 409.465 112.251 409.698 112.96 409.698C113.679 409.698 114.267 409.465 114.724 408.998C115.191 408.522 115.424 407.929 115.424 407.22C115.424 406.501 115.191 405.909 114.724 405.442C114.267 404.975 113.679 404.742 112.96 404.742C112.493 404.742 112.069 404.849 111.686 405.064C111.313 405.279 111.019 405.577 110.804 405.96C110.589 406.333 110.482 406.753 110.482 407.22C110.482 407.929 110.715 408.522 111.182 408.998ZM123.562 411L121.308 407.78H120.356V411H118.802V400.724H120.356V406.366H121.308L123.352 403.44H125.2L122.638 407.066L125.466 411H123.562ZM133.072 403.258C133.819 403.258 134.491 403.431 135.088 403.776C135.686 404.112 136.152 404.583 136.488 405.19C136.824 405.797 136.992 406.473 136.992 407.22C136.992 408.359 136.619 409.306 135.872 410.062C135.135 410.809 134.202 411.182 133.072 411.182C132.102 411.182 131.266 410.879 130.566 410.272V413.716H129.012V403.44H130.062L130.356 404.364C131.084 403.627 131.99 403.258 133.072 403.258ZM131.182 408.998C131.649 409.465 132.237 409.698 132.946 409.698C133.665 409.698 134.258 409.465 134.724 408.998C135.191 408.522 135.424 407.929 135.424 407.22C135.424 406.511 135.191 405.923 134.724 405.456C134.258 404.98 133.67 404.742 132.96 404.742C132.494 404.742 132.069 404.849 131.686 405.064C131.304 405.279 131.005 405.577 130.79 405.96C130.585 406.333 130.482 406.753 130.482 407.22C130.482 407.929 130.716 408.522 131.182 408.998ZM145.287 407.234C145.287 407.374 145.277 407.547 145.259 407.752H139.127C139.22 408.359 139.472 408.839 139.883 409.194C140.303 409.549 140.821 409.726 141.437 409.726C141.735 409.726 142.015 409.684 142.277 409.6C142.538 409.507 142.767 409.381 142.963 409.222C143.168 409.054 143.336 408.853 143.467 408.62H145.105C144.806 409.423 144.33 410.053 143.677 410.51C143.023 410.958 142.277 411.182 141.437 411.182C140.326 411.182 139.397 410.804 138.651 410.048C137.913 409.292 137.545 408.349 137.545 407.22C137.545 406.091 137.913 405.148 138.651 404.392C139.397 403.636 140.326 403.258 141.437 403.258C142.193 403.258 142.865 403.44 143.453 403.804C144.041 404.159 144.493 404.639 144.811 405.246C145.128 405.843 145.287 406.506 145.287 407.234ZM141.437 404.658C140.858 404.658 140.363 404.821 139.953 405.148C139.551 405.475 139.285 405.923 139.155 406.492H143.733C143.639 406.109 143.485 405.783 143.271 405.512C143.056 405.232 142.79 405.022 142.473 404.882C142.165 404.733 141.819 404.658 141.437 404.658ZM150.003 403.398H150.675V404.868H149.863C148.575 404.868 147.931 405.568 147.931 406.968V411H146.377V403.44H147.427L147.693 404.476C148.234 403.757 149.004 403.398 150.003 403.398ZM151.326 411V400.724H152.88V411H151.326ZM157.844 411.182C156.808 411.182 155.978 410.874 155.352 410.258C154.727 409.642 154.414 408.825 154.414 407.808V403.44H155.968V407.584C155.968 408.247 156.136 408.765 156.472 409.138C156.808 409.511 157.266 409.698 157.844 409.698C158.432 409.698 158.894 409.511 159.23 409.138C159.566 408.755 159.734 408.237 159.734 407.584V403.44H161.288V407.808C161.288 408.825 160.976 409.642 160.35 410.258C159.725 410.874 158.89 411.182 157.844 411.182ZM174.235 403.272C175.029 403.272 175.673 403.543 176.167 404.084C176.662 404.625 176.909 405.33 176.909 406.198V411H175.355V406.576C175.355 406.175 175.295 405.829 175.173 405.54C175.061 405.251 174.893 405.031 174.669 404.882C174.455 404.733 174.193 404.658 173.885 404.658C173.372 404.658 172.947 404.868 172.611 405.288C172.275 405.699 172.107 406.226 172.107 406.87V411H170.581V406.576C170.581 405.96 170.455 405.489 170.203 405.162C169.951 404.826 169.587 404.658 169.111 404.658C168.607 404.658 168.183 404.868 167.837 405.288C167.501 405.699 167.333 406.226 167.333 406.87V411H165.779V403.44H166.885L167.151 404.42C167.441 404.056 167.791 403.776 168.201 403.58C168.612 403.375 169.046 403.272 169.503 403.272C170.007 403.272 170.455 403.389 170.847 403.622C171.239 403.855 171.547 404.177 171.771 404.588C172.042 404.177 172.397 403.855 172.835 403.622C173.274 403.389 173.741 403.272 174.235 403.272ZM185.636 407.234C185.636 407.374 185.626 407.547 185.608 407.752H179.476C179.569 408.359 179.821 408.839 180.232 409.194C180.652 409.549 181.17 409.726 181.786 409.726C182.084 409.726 182.364 409.684 182.626 409.6C182.887 409.507 183.116 409.381 183.312 409.222C183.517 409.054 183.685 408.853 183.816 408.62H185.454C185.155 409.423 184.679 410.053 184.026 410.51C183.372 410.958 182.626 411.182 181.786 411.182C180.675 411.182 179.746 410.804 179 410.048C178.262 409.292 177.894 408.349 177.894 407.22C177.894 406.091 178.262 405.148 179 404.392C179.746 403.636 180.675 403.258 181.786 403.258C182.542 403.258 183.214 403.44 183.802 403.804C184.39 404.159 184.842 404.639 185.16 405.246C185.477 405.843 185.636 406.506 185.636 407.234ZM181.786 404.658C181.207 404.658 180.712 404.821 180.302 405.148C179.9 405.475 179.634 405.923 179.504 406.492H184.082C183.988 406.109 183.834 405.783 183.62 405.512C183.405 405.232 183.139 405.022 182.822 404.882C182.514 404.733 182.168 404.658 181.786 404.658ZM195.182 403.272C195.975 403.272 196.619 403.543 197.114 404.084C197.608 404.625 197.856 405.33 197.856 406.198V411H196.302V406.576C196.302 406.175 196.241 405.829 196.12 405.54C196.008 405.251 195.84 405.031 195.616 404.882C195.401 404.733 195.14 404.658 194.832 404.658C194.318 404.658 193.894 404.868 193.558 405.288C193.222 405.699 193.054 406.226 193.054 406.87V411H191.528V406.576C191.528 405.96 191.402 405.489 191.15 405.162C190.898 404.826 190.534 404.658 190.058 404.658C189.554 404.658 189.129 404.868 188.784 405.288C188.448 405.699 188.28 406.226 188.28 406.87V411H186.726V403.44H187.832L188.098 404.42C188.387 404.056 188.737 403.776 189.148 403.58C189.558 403.375 189.992 403.272 190.45 403.272C190.954 403.272 191.402 403.389 191.794 403.622C192.186 403.855 192.494 404.177 192.718 404.588C192.988 404.177 193.343 403.855 193.782 403.622C194.22 403.389 194.687 403.272 195.182 403.272ZM205.728 403.44H206.932V411H205.672L205.518 410.076C204.79 410.813 203.88 411.182 202.788 411.182C201.659 411.182 200.716 410.804 199.96 410.048C199.213 409.292 198.84 408.349 198.84 407.22C198.84 406.081 199.213 405.139 199.96 404.392C200.716 403.636 201.659 403.258 202.788 403.258C203.899 403.258 204.818 403.631 205.546 404.378L205.728 403.44ZM201.122 408.998C201.598 409.465 202.191 409.698 202.9 409.698C203.619 409.698 204.207 409.465 204.664 408.998C205.131 408.522 205.364 407.929 205.364 407.22C205.364 406.501 205.131 405.909 204.664 405.442C204.207 404.975 203.619 404.742 202.9 404.742C202.433 404.742 202.009 404.849 201.626 405.064C201.253 405.279 200.959 405.577 200.744 405.96C200.529 406.333 200.422 406.753 200.422 407.22C200.422 407.929 200.655 408.522 201.122 408.998ZM211.108 411.182C210.184 411.182 209.442 410.949 208.882 410.482C208.322 410.015 208.033 409.39 208.014 408.606H209.54C209.559 408.989 209.713 409.287 210.002 409.502C210.301 409.707 210.688 409.81 211.164 409.81C211.444 409.81 211.691 409.773 211.906 409.698C212.13 409.623 212.307 409.511 212.438 409.362C212.569 409.213 212.634 409.035 212.634 408.83C212.634 408.69 212.601 408.569 212.536 408.466C212.471 408.354 212.391 408.265 212.298 408.2C212.205 408.135 212.069 408.074 211.892 408.018C211.724 407.962 211.57 407.92 211.43 407.892C211.299 407.864 211.122 407.831 210.898 407.794C210.665 407.757 210.478 407.724 210.338 407.696C210.198 407.668 210.021 407.626 209.806 407.57C209.591 407.505 209.414 407.439 209.274 407.374C209.143 407.299 208.999 407.206 208.84 407.094C208.681 406.982 208.555 406.856 208.462 406.716C208.378 406.576 208.303 406.408 208.238 406.212C208.182 406.007 208.154 405.783 208.154 405.54C208.154 404.859 208.42 404.308 208.952 403.888C209.493 403.468 210.203 403.258 211.08 403.258C211.957 403.258 212.662 403.477 213.194 403.916C213.726 404.355 213.997 404.943 214.006 405.68H212.536C212.527 405.325 212.391 405.055 212.13 404.868C211.869 404.672 211.509 404.574 211.052 404.574C210.623 404.574 210.282 404.658 210.03 404.826C209.778 404.994 209.652 405.213 209.652 405.484C209.652 405.596 209.671 405.694 209.708 405.778C209.745 405.862 209.806 405.937 209.89 406.002C209.983 406.067 210.067 406.123 210.142 406.17C210.226 406.207 210.347 406.245 210.506 406.282C210.665 406.319 210.795 406.347 210.898 406.366C211.001 406.385 211.15 406.408 211.346 406.436C211.598 406.483 211.785 406.52 211.906 406.548C212.037 406.567 212.219 406.609 212.452 406.674C212.685 406.73 212.867 406.791 212.998 406.856C213.129 406.921 213.278 407.015 213.446 407.136C213.623 407.248 213.754 407.379 213.838 407.528C213.931 407.668 214.011 407.845 214.076 408.06C214.141 408.275 214.174 408.508 214.174 408.76C214.174 409.497 213.894 410.085 213.334 410.524C212.774 410.963 212.032 411.182 211.108 411.182ZM221.602 403.44H222.806V411H221.546L221.392 410.076C220.664 410.813 219.754 411.182 218.662 411.182C217.533 411.182 216.59 410.804 215.834 410.048C215.088 409.292 214.714 408.349 214.714 407.22C214.714 406.081 215.088 405.139 215.834 404.392C216.59 403.636 217.533 403.258 218.662 403.258C219.773 403.258 220.692 403.631 221.42 404.378L221.602 403.44ZM216.996 408.998C217.472 409.465 218.065 409.698 218.774 409.698C219.493 409.698 220.081 409.465 220.538 408.998C221.005 408.522 221.238 407.929 221.238 407.22C221.238 406.501 221.005 405.909 220.538 405.442C220.081 404.975 219.493 404.742 218.774 404.742C218.308 404.742 217.883 404.849 217.5 405.064C217.127 405.279 216.833 405.577 216.618 405.96C216.404 406.333 216.296 406.753 216.296 407.22C216.296 407.929 216.53 408.522 216.996 408.998ZM228.466 403.272C229.344 403.272 230.039 403.566 230.552 404.154C231.075 404.742 231.336 405.507 231.336 406.45V411H229.782V406.758C229.782 406.077 229.633 405.559 229.334 405.204C229.045 404.84 228.616 404.658 228.046 404.658C227.458 404.658 226.973 404.873 226.59 405.302C226.208 405.731 226.016 406.282 226.016 406.954V411H224.462V403.44H225.54L225.848 404.49C226.138 404.107 226.506 403.809 226.954 403.594C227.412 403.379 227.916 403.272 228.466 403.272ZM239.073 403.44H240.095V410.006C240.095 410.809 239.941 411.499 239.633 412.078C239.334 412.666 238.9 413.114 238.331 413.422C237.761 413.739 237.089 413.898 236.315 413.898C235.353 413.898 234.546 413.66 233.893 413.184C233.239 412.717 232.815 412.064 232.619 411.224H234.173C234.313 411.635 234.579 411.952 234.971 412.176C235.372 412.4 235.815 412.512 236.301 412.512C236.973 412.512 237.519 412.307 237.939 411.896C238.359 411.485 238.569 410.925 238.569 410.216V409.88C237.869 410.477 237.033 410.776 236.063 410.776C235.017 410.776 234.131 410.417 233.403 409.698C232.684 408.97 232.325 408.079 232.325 407.024C232.325 405.969 232.684 405.078 233.403 404.35C234.131 403.622 235.017 403.258 236.063 403.258C237.173 403.258 238.093 403.645 238.821 404.42L239.073 403.44ZM236.245 409.334C236.571 409.334 236.879 409.278 237.169 409.166C237.458 409.045 237.705 408.886 237.911 408.69C238.116 408.485 238.275 408.237 238.387 407.948C238.508 407.659 238.569 407.351 238.569 407.024C238.569 406.352 238.349 405.797 237.911 405.358C237.472 404.919 236.917 404.7 236.245 404.7C235.573 404.7 235.013 404.924 234.565 405.372C234.126 405.811 233.907 406.361 233.907 407.024C233.907 407.687 234.126 408.237 234.565 408.676C235.013 409.115 235.573 409.334 236.245 409.334ZM70.1263 422.44H71.3303V430H70.0703L69.9163 429.076C69.1883 429.813 68.2783 430.182 67.1863 430.182C66.0569 430.182 65.1143 429.804 64.3583 429.048C63.6116 428.292 63.2383 427.349 63.2383 426.22C63.2383 425.081 63.6116 424.139 64.3583 423.392C65.1143 422.636 66.0569 422.258 67.1863 422.258C68.2969 422.258 69.2163 422.631 69.9443 423.378L70.1263 422.44ZM65.5203 427.998C65.9963 428.465 66.5889 428.698 67.2983 428.698C68.0169 428.698 68.6049 428.465 69.0623 427.998C69.5289 427.522 69.7623 426.929 69.7623 426.22C69.7623 425.501 69.5289 424.909 69.0623 424.442C68.6049 423.975 68.0169 423.742 67.2983 423.742C66.8316 423.742 66.4069 423.849 66.0243 424.064C65.6509 424.279 65.3569 424.577 65.1423 424.96C64.9276 425.333 64.8203 425.753 64.8203 426.22C64.8203 426.929 65.0536 427.522 65.5203 427.998ZM77.0463 422.258C77.793 422.258 78.465 422.431 79.0623 422.776C79.6596 423.112 80.1263 423.583 80.4623 424.19C80.7983 424.797 80.9663 425.473 80.9663 426.22C80.9663 427.359 80.593 428.306 79.8463 429.062C79.109 429.809 78.1756 430.182 77.0463 430.182C76.0756 430.182 75.2403 429.879 74.5403 429.272V432.716H72.9863V422.44H74.0363L74.3303 423.364C75.0583 422.627 75.9636 422.258 77.0463 422.258ZM75.1563 427.998C75.623 428.465 76.211 428.698 76.9203 428.698C77.639 428.698 78.2316 428.465 78.6983 427.998C79.165 427.522 79.3983 426.929 79.3983 426.22C79.3983 425.511 79.165 424.923 78.6983 424.456C78.2316 423.98 77.6436 423.742 76.9343 423.742C76.4676 423.742 76.043 423.849 75.6603 424.064C75.2776 424.279 74.979 424.577 74.7643 424.96C74.559 425.333 74.4563 425.753 74.4563 426.22C74.4563 426.929 74.6896 427.522 75.1563 427.998ZM82.0787 430V419.724H83.6327V430H82.0787ZM85.2504 421.264V419.668H86.8604V421.264H85.2504ZM85.2784 430V422.44H86.8324V430H85.2784ZM93.3922 430L91.1382 426.78H90.1862V430H88.6322V419.724H90.1862V425.366H91.1382L93.1822 422.44H95.0302L92.4682 426.066L95.2962 430H93.3922ZM101.957 422.44H103.161V430H101.901L101.747 429.076C101.019 429.813 100.109 430.182 99.0171 430.182C97.8878 430.182 96.9451 429.804 96.1891 429.048C95.4425 428.292 95.0691 427.349 95.0691 426.22C95.0691 425.081 95.4425 424.139 96.1891 423.392C96.9451 422.636 97.8878 422.258 99.0171 422.258C100.128 422.258 101.047 422.631 101.775 423.378L101.957 422.44ZM97.3511 427.998C97.8271 428.465 98.4198 428.698 99.1291 428.698C99.8478 428.698 100.436 428.465 100.893 427.998C101.36 427.522 101.593 426.929 101.593 426.22C101.593 425.501 101.36 424.909 100.893 424.442C100.436 423.975 99.8478 423.742 99.1291 423.742C98.6625 423.742 98.2378 423.849 97.8551 424.064C97.4818 424.279 97.1878 424.577 96.9731 424.96C96.7585 425.333 96.6511 425.753 96.6511 426.22C96.6511 426.929 96.8845 427.522 97.3511 427.998ZM107.337 430.182C106.413 430.182 105.671 429.949 105.111 429.482C104.551 429.015 104.262 428.39 104.243 427.606H105.769C105.788 427.989 105.942 428.287 106.231 428.502C106.53 428.707 106.917 428.81 107.393 428.81C107.673 428.81 107.921 428.773 108.135 428.698C108.359 428.623 108.537 428.511 108.667 428.362C108.798 428.213 108.863 428.035 108.863 427.83C108.863 427.69 108.831 427.569 108.765 427.466C108.7 427.354 108.621 427.265 108.527 427.2C108.434 427.135 108.299 427.074 108.121 427.018C107.953 426.962 107.799 426.92 107.659 426.892C107.529 426.864 107.351 426.831 107.127 426.794C106.894 426.757 106.707 426.724 106.567 426.696C106.427 426.668 106.25 426.626 106.035 426.57C105.821 426.505 105.643 426.439 105.503 426.374C105.373 426.299 105.228 426.206 105.069 426.094C104.911 425.982 104.785 425.856 104.691 425.716C104.607 425.576 104.533 425.408 104.467 425.212C104.411 425.007 104.383 424.783 104.383 424.54C104.383 423.859 104.649 423.308 105.181 422.888C105.723 422.468 106.432 422.258 107.309 422.258C108.187 422.258 108.891 422.477 109.423 422.916C109.955 423.355 110.226 423.943 110.235 424.68H108.765C108.756 424.325 108.621 424.055 108.359 423.868C108.098 423.672 107.739 423.574 107.281 423.574C106.852 423.574 106.511 423.658 106.259 423.826C106.007 423.994 105.881 424.213 105.881 424.484C105.881 424.596 105.9 424.694 105.937 424.778C105.975 424.862 106.035 424.937 106.119 425.002C106.213 425.067 106.297 425.123 106.371 425.17C106.455 425.207 106.577 425.245 106.735 425.282C106.894 425.319 107.025 425.347 107.127 425.366C107.23 425.385 107.379 425.408 107.575 425.436C107.827 425.483 108.014 425.52 108.135 425.548C108.266 425.567 108.448 425.609 108.681 425.674C108.915 425.73 109.097 425.791 109.227 425.856C109.358 425.921 109.507 426.015 109.675 426.136C109.853 426.248 109.983 426.379 110.067 426.528C110.161 426.668 110.24 426.845 110.305 427.06C110.371 427.275 110.403 427.508 110.403 427.76C110.403 428.497 110.123 429.085 109.563 429.524C109.003 429.963 108.261 430.182 107.337 430.182ZM111.475 421.264V419.668H113.085V421.264H111.475ZM111.503 430V422.44H113.057V430H111.503ZM121.716 422.258C122.855 422.258 123.793 422.636 124.53 423.392C125.277 424.139 125.65 425.081 125.65 426.22C125.65 427.359 125.277 428.306 124.53 429.062C123.793 429.809 122.855 430.182 121.716 430.182C120.662 430.182 119.77 429.837 119.042 429.146L118.846 430H117.67V419.724H119.224V423.14C119.924 422.552 120.755 422.258 121.716 422.258ZM119.812 427.984C120.288 428.46 120.881 428.698 121.59 428.698C122.3 428.698 122.888 428.465 123.354 427.998C123.821 427.522 124.054 426.929 124.054 426.22C124.054 425.511 123.821 424.923 123.354 424.456C122.888 423.98 122.3 423.742 121.59 423.742C121.124 423.742 120.699 423.849 120.316 424.064C119.943 424.279 119.649 424.577 119.434 424.96C119.22 425.333 119.112 425.753 119.112 426.22C119.112 426.92 119.346 427.508 119.812 427.984ZM133.077 422.44H134.281V430H133.021L132.867 429.076C132.139 429.813 131.229 430.182 130.137 430.182C129.008 430.182 128.065 429.804 127.309 429.048C126.562 428.292 126.189 427.349 126.189 426.22C126.189 425.081 126.562 424.139 127.309 423.392C128.065 422.636 129.008 422.258 130.137 422.258C131.248 422.258 132.167 422.631 132.895 423.378L133.077 422.44ZM128.471 427.998C128.947 428.465 129.54 428.698 130.249 428.698C130.968 428.698 131.556 428.465 132.013 427.998C132.48 427.522 132.713 426.929 132.713 426.22C132.713 425.501 132.48 424.909 132.013 424.442C131.556 423.975 130.968 423.742 130.249 423.742C129.782 423.742 129.358 423.849 128.975 424.064C128.602 424.279 128.308 424.577 128.093 424.96C127.878 425.333 127.771 425.753 127.771 426.22C127.771 426.929 128.004 427.522 128.471 427.998ZM139.563 422.398H140.235V423.868H139.423C138.135 423.868 137.491 424.568 137.491 425.968V430H135.937V422.44H136.987L137.253 423.476C137.794 422.757 138.564 422.398 139.563 422.398ZM144.205 430.182C143.169 430.182 142.338 429.874 141.713 429.258C141.088 428.642 140.775 427.825 140.775 426.808V422.44H142.329V426.584C142.329 427.247 142.497 427.765 142.833 428.138C143.169 428.511 143.626 428.698 144.205 428.698C144.793 428.698 145.255 428.511 145.591 428.138C145.927 427.755 146.095 427.237 146.095 426.584V422.44H147.649V426.808C147.649 427.825 147.336 428.642 146.711 429.258C146.086 429.874 145.25 430.182 144.205 430.182ZM151.958 426.836V425.324H162.71V426.836H151.958ZM173.509 429.062C172.744 429.809 171.782 430.182 170.625 430.182C169.468 430.182 168.502 429.809 167.727 429.062C166.962 428.306 166.579 427.359 166.579 426.22C166.579 425.473 166.752 424.797 167.097 424.19C167.452 423.583 167.937 423.112 168.553 422.776C169.178 422.431 169.869 422.258 170.625 422.258C171.381 422.258 172.067 422.431 172.683 422.776C173.308 423.112 173.794 423.583 174.139 424.19C174.494 424.797 174.671 425.473 174.671 426.22C174.671 427.359 174.284 428.306 173.509 429.062ZM170.625 428.698C171.101 428.698 171.526 428.595 171.899 428.39C172.272 428.175 172.562 427.881 172.767 427.508C172.982 427.125 173.089 426.696 173.089 426.22C173.089 425.501 172.856 424.909 172.389 424.442C171.932 423.975 171.344 423.742 170.625 423.742C169.906 423.742 169.314 423.975 168.847 424.442C168.39 424.909 168.161 425.501 168.161 426.22C168.161 426.939 168.39 427.531 168.847 427.998C169.314 428.465 169.906 428.698 170.625 428.698ZM179.813 422.258C180.951 422.258 181.889 422.636 182.627 423.392C183.373 424.139 183.747 425.081 183.747 426.22C183.747 427.359 183.373 428.306 182.627 429.062C181.889 429.809 180.951 430.182 179.813 430.182C178.758 430.182 177.867 429.837 177.139 429.146L176.943 430H175.767V419.724H177.321V423.14C178.021 422.552 178.851 422.258 179.813 422.258ZM177.909 427.984C178.385 428.46 178.977 428.698 179.687 428.698C180.396 428.698 180.984 428.465 181.451 427.998C181.917 427.522 182.151 426.929 182.151 426.22C182.151 425.511 181.917 424.923 181.451 424.456C180.984 423.98 180.396 423.742 179.687 423.742C179.22 423.742 178.795 423.849 178.413 424.064C178.039 424.279 177.745 424.577 177.531 424.96C177.316 425.333 177.209 425.753 177.209 426.22C177.209 426.92 177.442 427.508 177.909 427.984ZM188.471 422.398H189.143V423.868H188.331C187.043 423.868 186.399 424.568 186.399 425.968V430H184.845V422.44H185.895L186.161 423.476C186.703 422.757 187.473 422.398 188.471 422.398ZM195.96 429.062C195.195 429.809 194.233 430.182 193.076 430.182C191.919 430.182 190.953 429.809 190.178 429.062C189.413 428.306 189.03 427.359 189.03 426.22C189.03 425.473 189.203 424.797 189.548 424.19C189.903 423.583 190.388 423.112 191.004 422.776C191.629 422.431 192.32 422.258 193.076 422.258C193.832 422.258 194.518 422.431 195.134 422.776C195.759 423.112 196.245 423.583 196.59 424.19C196.945 424.797 197.122 425.473 197.122 426.22C197.122 427.359 196.735 428.306 195.96 429.062ZM193.076 428.698C193.552 428.698 193.977 428.595 194.35 428.39C194.723 428.175 195.013 427.881 195.218 427.508C195.433 427.125 195.54 426.696 195.54 426.22C195.54 425.501 195.307 424.909 194.84 424.442C194.383 423.975 193.795 423.742 193.076 423.742C192.357 423.742 191.765 423.975 191.298 424.442C190.841 424.909 190.612 425.501 190.612 426.22C190.612 426.939 190.841 427.531 191.298 427.998C191.765 428.465 192.357 428.698 193.076 428.698ZM198.217 430V419.724H199.771V430H198.217ZM207.745 422.44H208.949V430H207.689L207.535 429.076C206.807 429.813 205.897 430.182 204.805 430.182C203.676 430.182 202.733 429.804 201.977 429.048C201.23 428.292 200.857 427.349 200.857 426.22C200.857 425.081 201.23 424.139 201.977 423.392C202.733 422.636 203.676 422.258 204.805 422.258C205.916 422.258 206.835 422.631 207.563 423.378L207.745 422.44ZM203.139 427.998C203.615 428.465 204.208 428.698 204.917 428.698C205.636 428.698 206.224 428.465 206.681 427.998C207.148 427.522 207.381 426.929 207.381 426.22C207.381 425.501 207.148 424.909 206.681 424.442C206.224 423.975 205.636 423.742 204.917 423.742C204.45 423.742 204.026 423.849 203.643 424.064C203.27 424.279 202.976 424.577 202.761 424.96C202.546 425.333 202.439 425.753 202.439 426.22C202.439 426.929 202.672 427.522 203.139 427.998ZM214.609 422.272C215.487 422.272 216.182 422.566 216.695 423.154C217.218 423.742 217.479 424.507 217.479 425.45V430H215.925V425.758C215.925 425.077 215.776 424.559 215.477 424.204C215.188 423.84 214.759 423.658 214.189 423.658C213.601 423.658 213.116 423.873 212.733 424.302C212.351 424.731 212.159 425.282 212.159 425.954V430H210.605V422.44H211.683L211.991 423.49C212.281 423.107 212.649 422.809 213.097 422.594C213.555 422.379 214.059 422.272 214.609 422.272ZM227.861 419.724H229.415V430H228.239L228.043 429.146C227.315 429.837 226.424 430.182 225.369 430.182C224.23 430.182 223.288 429.809 222.541 429.062C221.804 428.306 221.435 427.359 221.435 426.22C221.435 425.081 221.804 424.139 222.541 423.392C223.288 422.636 224.23 422.258 225.369 422.258C226.33 422.258 227.161 422.552 227.861 423.14V419.724ZM223.731 427.998C224.198 428.465 224.786 428.698 225.495 428.698C226.204 428.698 226.792 428.465 227.259 427.998C227.735 427.522 227.973 426.929 227.973 426.22C227.973 425.753 227.866 425.333 227.651 424.96C227.436 424.577 227.138 424.279 226.755 424.064C226.382 423.849 225.962 423.742 225.495 423.742C225.028 423.742 224.604 423.849 224.221 424.064C223.848 424.279 223.554 424.577 223.339 424.96C223.134 425.333 223.031 425.753 223.031 426.22C223.031 426.929 223.264 427.522 223.731 427.998ZM231.046 421.264V419.668H232.656V421.264H231.046ZM231.074 430V422.44H232.628V430H231.074ZM242.729 422.272C243.523 422.272 244.167 422.543 244.661 423.084C245.156 423.625 245.403 424.33 245.403 425.198V430H243.849V425.576C243.849 425.175 243.789 424.829 243.667 424.54C243.555 424.251 243.387 424.031 243.163 423.882C242.949 423.733 242.687 423.658 242.379 423.658C241.866 423.658 241.441 423.868 241.105 424.288C240.769 424.699 240.601 425.226 240.601 425.87V430H239.075V425.576C239.075 424.96 238.949 424.489 238.697 424.162C238.445 423.826 238.081 423.658 237.605 423.658C237.101 423.658 236.677 423.868 236.331 424.288C235.995 424.699 235.827 425.226 235.827 425.87V430H234.273V422.44H235.379L235.645 423.42C235.935 423.056 236.285 422.776 236.695 422.58C237.106 422.375 237.54 422.272 237.997 422.272C238.501 422.272 238.949 422.389 239.341 422.622C239.733 422.855 240.041 423.177 240.265 423.588C240.536 423.177 240.891 422.855 241.329 422.622C241.768 422.389 242.235 422.272 242.729 422.272ZM250.266 430.182C249.23 430.182 248.399 429.874 247.774 429.258C247.148 428.642 246.836 427.825 246.836 426.808V422.44H248.39V426.584C248.39 427.247 248.558 427.765 248.894 428.138C249.23 428.511 249.687 428.698 250.266 428.698C250.854 428.698 251.316 428.511 251.652 428.138C251.988 427.755 252.156 427.237 252.156 426.584V422.44H253.71V426.808C253.71 427.825 253.397 428.642 252.772 429.258C252.146 429.874 251.311 430.182 250.266 430.182ZM255.234 430V419.724H256.788V430H255.234ZM264.761 422.44H265.965V430H264.705L264.551 429.076C263.823 429.813 262.913 430.182 261.821 430.182C260.692 430.182 259.749 429.804 258.993 429.048C258.247 428.292 257.873 427.349 257.873 426.22C257.873 425.081 258.247 424.139 258.993 423.392C259.749 422.636 260.692 422.258 261.821 422.258C262.932 422.258 263.851 422.631 264.579 423.378L264.761 422.44ZM260.155 427.998C260.631 428.465 261.224 428.698 261.933 428.698C262.652 428.698 263.24 428.465 263.697 427.998C264.164 427.522 264.397 426.929 264.397 426.22C264.397 425.501 264.164 424.909 263.697 424.442C263.24 423.975 262.652 423.742 261.933 423.742C261.467 423.742 261.042 423.849 260.659 424.064C260.286 424.279 259.992 424.577 259.777 424.96C259.563 425.333 259.455 425.753 259.455 426.22C259.455 426.929 259.689 427.522 260.155 427.998ZM267.593 421.264V419.668H269.203V421.264H267.593ZM267.621 430V422.44H269.175V430H267.621ZM61.9052 438.724H63.4592V449H62.2832L62.0872 448.146C61.3592 448.837 60.4679 449.182 59.4132 449.182C58.2745 449.182 57.3319 448.809 56.5852 448.062C55.8479 447.306 55.4792 446.359 55.4792 445.22C55.4792 444.081 55.8479 443.139 56.5852 442.392C57.3319 441.636 58.2745 441.258 59.4132 441.258C60.3745 441.258 61.2052 441.552 61.9052 442.14V438.724ZM57.7752 446.998C58.2419 447.465 58.8299 447.698 59.5392 447.698C60.2485 447.698 60.8365 447.465 61.3032 446.998C61.7792 446.522 62.0172 445.929 62.0172 445.22C62.0172 444.753 61.9099 444.333 61.6952 443.96C61.4805 443.577 61.1819 443.279 60.7992 443.064C60.4259 442.849 60.0059 442.742 59.5392 442.742C59.0725 442.742 58.6479 442.849 58.2652 443.064C57.8919 443.279 57.5979 443.577 57.3832 443.96C57.1779 444.333 57.0752 444.753 57.0752 445.22C57.0752 445.929 57.3085 446.522 57.7752 446.998ZM65.0899 440.264V438.668H66.6999V440.264H65.0899ZM65.1179 449V441.44H66.6719V449H65.1179ZM79.741 441.272C80.5343 441.272 81.1783 441.543 81.673 442.084C82.1677 442.625 82.415 443.33 82.415 444.198V449H80.861V444.576C80.861 444.175 80.8003 443.829 80.679 443.54C80.567 443.251 80.399 443.031 80.175 442.882C79.9603 442.733 79.699 442.658 79.391 442.658C78.8777 442.658 78.453 442.868 78.117 443.288C77.781 443.699 77.613 444.226 77.613 444.87V449H76.087V444.576C76.087 443.96 75.961 443.489 75.709 443.162C75.457 442.826 75.093 442.658 74.617 442.658C74.113 442.658 73.6883 442.868 73.343 443.288C73.007 443.699 72.839 444.226 72.839 444.87V449H71.285V441.44H72.391L72.657 442.42C72.9463 442.056 73.2963 441.776 73.707 441.58C74.1177 441.375 74.5517 441.272 75.009 441.272C75.513 441.272 75.961 441.389 76.353 441.622C76.745 441.855 77.053 442.177 77.277 442.588C77.5477 442.177 77.9023 441.855 78.341 441.622C78.7797 441.389 79.2463 441.272 79.741 441.272ZM91.1414 445.234C91.1414 445.374 91.132 445.547 91.1134 445.752H84.9814C85.0747 446.359 85.3267 446.839 85.7374 447.194C86.1574 447.549 86.6754 447.726 87.2914 447.726C87.59 447.726 87.87 447.684 88.1314 447.6C88.3927 447.507 88.6214 447.381 88.8174 447.222C89.0227 447.054 89.1907 446.853 89.3214 446.62H90.9594C90.6607 447.423 90.1847 448.053 89.5314 448.51C88.878 448.958 88.1314 449.182 87.2914 449.182C86.1807 449.182 85.252 448.804 84.5054 448.048C83.768 447.292 83.3994 446.349 83.3994 445.22C83.3994 444.091 83.768 443.148 84.5054 442.392C85.252 441.636 86.1807 441.258 87.2914 441.258C88.0474 441.258 88.7194 441.44 89.3074 441.804C89.8954 442.159 90.348 442.639 90.6654 443.246C90.9827 443.843 91.1414 444.506 91.1414 445.234ZM87.2914 442.658C86.7127 442.658 86.218 442.821 85.8074 443.148C85.406 443.475 85.14 443.923 85.0094 444.492H89.5874C89.494 444.109 89.34 443.783 89.1254 443.512C88.9107 443.232 88.6447 443.022 88.3274 442.882C88.0194 442.733 87.674 442.658 87.2914 442.658ZM94.7514 449.182C93.8274 449.182 93.0854 448.949 92.5254 448.482C91.9654 448.015 91.6761 447.39 91.6574 446.606H93.1834C93.2021 446.989 93.3561 447.287 93.6454 447.502C93.9441 447.707 94.3314 447.81 94.8074 447.81C95.0874 447.81 95.3347 447.773 95.5494 447.698C95.7734 447.623 95.9507 447.511 96.0814 447.362C96.2121 447.213 96.2774 447.035 96.2774 446.83C96.2774 446.69 96.2447 446.569 96.1794 446.466C96.1141 446.354 96.0347 446.265 95.9414 446.2C95.8481 446.135 95.7127 446.074 95.5354 446.018C95.3674 445.962 95.2134 445.92 95.0734 445.892C94.9427 445.864 94.7654 445.831 94.5414 445.794C94.3081 445.757 94.1214 445.724 93.9814 445.696C93.8414 445.668 93.6641 445.626 93.4494 445.57C93.2347 445.505 93.0574 445.439 92.9174 445.374C92.7867 445.299 92.6421 445.206 92.4834 445.094C92.3247 444.982 92.1987 444.856 92.1054 444.716C92.0214 444.576 91.9467 444.408 91.8814 444.212C91.8254 444.007 91.7974 443.783 91.7974 443.54C91.7974 442.859 92.0634 442.308 92.5954 441.888C93.1367 441.468 93.8461 441.258 94.7234 441.258C95.6007 441.258 96.3054 441.477 96.8374 441.916C97.3694 442.355 97.6401 442.943 97.6494 443.68H96.1794C96.1701 443.325 96.0347 443.055 95.7734 442.868C95.5121 442.672 95.1527 442.574 94.6954 442.574C94.2661 442.574 93.9254 442.658 93.6734 442.826C93.4214 442.994 93.2954 443.213 93.2954 443.484C93.2954 443.596 93.3141 443.694 93.3514 443.778C93.3887 443.862 93.4494 443.937 93.5334 444.002C93.6267 444.067 93.7107 444.123 93.7854 444.17C93.8694 444.207 93.9907 444.245 94.1494 444.282C94.3081 444.319 94.4387 444.347 94.5414 444.366C94.6441 444.385 94.7934 444.408 94.9894 444.436C95.2414 444.483 95.4281 444.52 95.5494 444.548C95.6801 444.567 95.8621 444.609 96.0954 444.674C96.3287 444.73 96.5107 444.791 96.6414 444.856C96.7721 444.921 96.9214 445.015 97.0894 445.136C97.2667 445.248 97.3974 445.379 97.4814 445.528C97.5747 445.668 97.6541 445.845 97.7194 446.06C97.7847 446.275 97.8174 446.508 97.8174 446.76C97.8174 447.497 97.5374 448.085 96.9774 448.524C96.4174 448.963 95.6754 449.182 94.7514 449.182ZM101.437 449.182C100.513 449.182 99.7715 448.949 99.2115 448.482C98.6515 448.015 98.3622 447.39 98.3435 446.606H99.8695C99.8882 446.989 100.042 447.287 100.331 447.502C100.63 447.707 101.017 447.81 101.493 447.81C101.773 447.81 102.021 447.773 102.235 447.698C102.459 447.623 102.637 447.511 102.767 447.362C102.898 447.213 102.963 447.035 102.963 446.83C102.963 446.69 102.931 446.569 102.865 446.466C102.8 446.354 102.721 446.265 102.627 446.2C102.534 446.135 102.399 446.074 102.221 446.018C102.053 445.962 101.899 445.92 101.759 445.892C101.629 445.864 101.451 445.831 101.227 445.794C100.994 445.757 100.807 445.724 100.667 445.696C100.527 445.668 100.35 445.626 100.135 445.57C99.9208 445.505 99.7435 445.439 99.6035 445.374C99.4728 445.299 99.3282 445.206 99.1695 445.094C99.0108 444.982 98.8848 444.856 98.7915 444.716C98.7075 444.576 98.6328 444.408 98.5675 444.212C98.5115 444.007 98.4835 443.783 98.4835 443.54C98.4835 442.859 98.7495 442.308 99.2815 441.888C99.8228 441.468 100.532 441.258 101.409 441.258C102.287 441.258 102.991 441.477 103.523 441.916C104.055 442.355 104.326 442.943 104.335 443.68H102.865C102.856 443.325 102.721 443.055 102.459 442.868C102.198 442.672 101.839 442.574 101.381 442.574C100.952 442.574 100.611 442.658 100.359 442.826C100.107 442.994 99.9815 443.213 99.9815 443.484C99.9815 443.596 100 443.694 100.037 443.778C100.075 443.862 100.135 443.937 100.219 444.002C100.313 444.067 100.397 444.123 100.471 444.17C100.555 444.207 100.677 444.245 100.835 444.282C100.994 444.319 101.125 444.347 101.227 444.366C101.33 444.385 101.479 444.408 101.675 444.436C101.927 444.483 102.114 444.52 102.235 444.548C102.366 444.567 102.548 444.609 102.781 444.674C103.015 444.73 103.197 444.791 103.327 444.856C103.458 444.921 103.607 445.015 103.775 445.136C103.953 445.248 104.083 445.379 104.167 445.528C104.261 445.668 104.34 445.845 104.405 446.06C104.471 446.275 104.503 446.508 104.503 446.76C104.503 447.497 104.223 448.085 103.663 448.524C103.103 448.963 102.361 449.182 101.437 449.182ZM112.786 445.234C112.786 445.374 112.776 445.547 112.758 445.752H106.626C106.719 446.359 106.971 446.839 107.382 447.194C107.802 447.549 108.32 447.726 108.936 447.726C109.234 447.726 109.514 447.684 109.776 447.6C110.037 447.507 110.266 447.381 110.462 447.222C110.667 447.054 110.835 446.853 110.966 446.62H112.604C112.305 447.423 111.829 448.053 111.176 448.51C110.522 448.958 109.776 449.182 108.936 449.182C107.825 449.182 106.896 448.804 106.15 448.048C105.412 447.292 105.044 446.349 105.044 445.22C105.044 444.091 105.412 443.148 106.15 442.392C106.896 441.636 107.825 441.258 108.936 441.258C109.692 441.258 110.364 441.44 110.952 441.804C111.54 442.159 111.992 442.639 112.31 443.246C112.627 443.843 112.786 444.506 112.786 445.234ZM108.936 442.658C108.357 442.658 107.862 442.821 107.452 443.148C107.05 443.475 106.784 443.923 106.654 444.492H111.232C111.138 444.109 110.984 443.783 110.77 443.512C110.555 443.232 110.289 443.022 109.972 442.882C109.664 442.733 109.318 442.658 108.936 442.658ZM117.88 441.272C118.757 441.272 119.452 441.566 119.966 442.154C120.488 442.742 120.75 443.507 120.75 444.45V449H119.196V444.758C119.196 444.077 119.046 443.559 118.748 443.204C118.458 442.84 118.029 442.658 117.46 442.658C116.872 442.658 116.386 442.873 116.004 443.302C115.621 443.731 115.43 444.282 115.43 444.954V449H113.876V441.44H114.954L115.262 442.49C115.551 442.107 115.92 441.809 116.368 441.594C116.825 441.379 117.329 441.272 117.88 441.272ZM128.486 441.44H129.508V448.006C129.508 448.809 129.354 449.499 129.046 450.078C128.747 450.666 128.313 451.114 127.744 451.422C127.175 451.739 126.503 451.898 125.728 451.898C124.767 451.898 123.959 451.66 123.306 451.184C122.653 450.717 122.228 450.064 122.032 449.224H123.586C123.726 449.635 123.992 449.952 124.384 450.176C124.785 450.4 125.229 450.512 125.714 450.512C126.386 450.512 126.932 450.307 127.352 449.896C127.772 449.485 127.982 448.925 127.982 448.216V447.88C127.282 448.477 126.447 448.776 125.476 448.776C124.431 448.776 123.544 448.417 122.816 447.698C122.097 446.97 121.738 446.079 121.738 445.024C121.738 443.969 122.097 443.078 122.816 442.35C123.544 441.622 124.431 441.258 125.476 441.258C126.587 441.258 127.506 441.645 128.234 442.42L128.486 441.44ZM125.658 447.334C125.985 447.334 126.293 447.278 126.582 447.166C126.871 447.045 127.119 446.886 127.324 446.69C127.529 446.485 127.688 446.237 127.8 445.948C127.921 445.659 127.982 445.351 127.982 445.024C127.982 444.352 127.763 443.797 127.324 443.358C126.885 442.919 126.33 442.7 125.658 442.7C124.986 442.7 124.426 442.924 123.978 443.372C123.539 443.811 123.32 444.361 123.32 445.024C123.32 445.687 123.539 446.237 123.978 446.676C124.426 447.115 124.986 447.334 125.658 447.334ZM138.34 445.234C138.34 445.374 138.331 445.547 138.312 445.752H132.18C132.273 446.359 132.525 446.839 132.936 447.194C133.356 447.549 133.874 447.726 134.49 447.726C134.789 447.726 135.069 447.684 135.33 447.6C135.591 447.507 135.82 447.381 136.016 447.222C136.221 447.054 136.389 446.853 136.52 446.62H138.158C137.859 447.423 137.383 448.053 136.73 448.51C136.077 448.958 135.33 449.182 134.49 449.182C133.379 449.182 132.451 448.804 131.704 448.048C130.967 447.292 130.598 446.349 130.598 445.22C130.598 444.091 130.967 443.148 131.704 442.392C132.451 441.636 133.379 441.258 134.49 441.258C135.246 441.258 135.918 441.44 136.506 441.804C137.094 442.159 137.547 442.639 137.864 443.246C138.181 443.843 138.34 444.506 138.34 445.234ZM134.49 442.658C133.911 442.658 133.417 442.821 133.006 443.148C132.605 443.475 132.339 443.923 132.208 444.492H136.786C136.693 444.109 136.539 443.783 136.324 443.512C136.109 443.232 135.843 443.022 135.526 442.882C135.218 442.733 134.873 442.658 134.49 442.658ZM143.056 441.398H143.728V442.868H142.916C141.628 442.868 140.984 443.568 140.984 444.968V449H139.43V441.44H140.48L140.746 442.476C141.287 441.757 142.057 441.398 143.056 441.398ZM152.026 441.44H153.692L150.22 449.14C149.781 450.101 149.333 450.769 148.876 451.142C148.428 451.525 147.826 451.716 147.07 451.716H146.3V450.316H146.944C147.439 450.316 147.803 450.218 148.036 450.022C148.269 449.826 148.526 449.42 148.806 448.804L148.974 448.454L145.684 441.44H147.378L149.772 446.718L152.026 441.44ZM160.402 441.44H161.606V449H160.346L160.192 448.076C159.464 448.813 158.554 449.182 157.462 449.182C156.333 449.182 155.39 448.804 154.634 448.048C153.888 447.292 153.514 446.349 153.514 445.22C153.514 444.081 153.888 443.139 154.634 442.392C155.39 441.636 156.333 441.258 157.462 441.258C158.573 441.258 159.492 441.631 160.22 442.378L160.402 441.44ZM155.796 446.998C156.272 447.465 156.865 447.698 157.574 447.698C158.293 447.698 158.881 447.465 159.338 446.998C159.805 446.522 160.038 445.929 160.038 445.22C160.038 444.501 159.805 443.909 159.338 443.442C158.881 442.975 158.293 442.742 157.574 442.742C157.108 442.742 156.683 442.849 156.3 443.064C155.927 443.279 155.633 443.577 155.418 443.96C155.204 444.333 155.096 444.753 155.096 445.22C155.096 445.929 155.33 446.522 155.796 446.998ZM167.266 441.272C168.144 441.272 168.839 441.566 169.352 442.154C169.875 442.742 170.136 443.507 170.136 444.45V449H168.582V444.758C168.582 444.077 168.433 443.559 168.134 443.204C167.845 442.84 167.416 442.658 166.846 442.658C166.258 442.658 165.773 442.873 165.39 443.302C165.008 443.731 164.816 444.282 164.816 444.954V449H163.262V441.44H164.34L164.648 442.49C164.938 442.107 165.306 441.809 165.754 441.594C166.212 441.379 166.716 441.272 167.266 441.272ZM177.873 441.44H178.895V448.006C178.895 448.809 178.741 449.499 178.433 450.078C178.134 450.666 177.7 451.114 177.131 451.422C176.561 451.739 175.889 451.898 175.115 451.898C174.153 451.898 173.346 451.66 172.693 451.184C172.039 450.717 171.615 450.064 171.419 449.224H172.973C173.113 449.635 173.379 449.952 173.771 450.176C174.172 450.4 174.615 450.512 175.101 450.512C175.773 450.512 176.319 450.307 176.739 449.896C177.159 449.485 177.369 448.925 177.369 448.216V447.88C176.669 448.477 175.833 448.776 174.863 448.776C173.817 448.776 172.931 448.417 172.203 447.698C171.484 446.97 171.125 446.079 171.125 445.024C171.125 443.969 171.484 443.078 172.203 442.35C172.931 441.622 173.817 441.258 174.863 441.258C175.973 441.258 176.893 441.645 177.621 442.42L177.873 441.44ZM175.045 447.334C175.371 447.334 175.679 447.278 175.969 447.166C176.258 447.045 176.505 446.886 176.711 446.69C176.916 446.485 177.075 446.237 177.187 445.948C177.308 445.659 177.369 445.351 177.369 445.024C177.369 444.352 177.149 443.797 176.711 443.358C176.272 442.919 175.717 442.7 175.045 442.7C174.373 442.7 173.813 442.924 173.365 443.372C172.926 443.811 172.707 444.361 172.707 445.024C172.707 445.687 172.926 446.237 173.365 446.676C173.813 447.115 174.373 447.334 175.045 447.334ZM186.032 449.182C185.108 449.182 184.366 448.949 183.806 448.482C183.246 448.015 182.957 447.39 182.938 446.606H184.464C184.483 446.989 184.637 447.287 184.926 447.502C185.225 447.707 185.612 447.81 186.088 447.81C186.368 447.81 186.615 447.773 186.83 447.698C187.054 447.623 187.231 447.511 187.362 447.362C187.493 447.213 187.558 447.035 187.558 446.83C187.558 446.69 187.525 446.569 187.46 446.466C187.395 446.354 187.315 446.265 187.222 446.2C187.129 446.135 186.993 446.074 186.816 446.018C186.648 445.962 186.494 445.92 186.354 445.892C186.223 445.864 186.046 445.831 185.822 445.794C185.589 445.757 185.402 445.724 185.262 445.696C185.122 445.668 184.945 445.626 184.73 445.57C184.515 445.505 184.338 445.439 184.198 445.374C184.067 445.299 183.923 445.206 183.764 445.094C183.605 444.982 183.479 444.856 183.386 444.716C183.302 444.576 183.227 444.408 183.162 444.212C183.106 444.007 183.078 443.783 183.078 443.54C183.078 442.859 183.344 442.308 183.876 441.888C184.417 441.468 185.127 441.258 186.004 441.258C186.881 441.258 187.586 441.477 188.118 441.916C188.65 442.355 188.921 442.943 188.93 443.68H187.46C187.451 443.325 187.315 443.055 187.054 442.868C186.793 442.672 186.433 442.574 185.976 442.574C185.547 442.574 185.206 442.658 184.954 442.826C184.702 442.994 184.576 443.213 184.576 443.484C184.576 443.596 184.595 443.694 184.632 443.778C184.669 443.862 184.73 443.937 184.814 444.002C184.907 444.067 184.991 444.123 185.066 444.17C185.15 444.207 185.271 444.245 185.43 444.282C185.589 444.319 185.719 444.347 185.822 444.366C185.925 444.385 186.074 444.408 186.27 444.436C186.522 444.483 186.709 444.52 186.83 444.548C186.961 444.567 187.143 444.609 187.376 444.674C187.609 444.73 187.791 444.791 187.922 444.856C188.053 444.921 188.202 445.015 188.37 445.136C188.547 445.248 188.678 445.379 188.762 445.528C188.855 445.668 188.935 445.845 189 446.06C189.065 446.275 189.098 446.508 189.098 446.76C189.098 447.497 188.818 448.085 188.258 448.524C187.698 448.963 186.956 449.182 186.032 449.182ZM193.516 449.182C192.48 449.182 191.649 448.874 191.024 448.258C190.399 447.642 190.086 446.825 190.086 445.808V441.44H191.64V445.584C191.64 446.247 191.808 446.765 192.144 447.138C192.48 447.511 192.937 447.698 193.516 447.698C194.104 447.698 194.566 447.511 194.902 447.138C195.238 446.755 195.406 446.237 195.406 445.584V441.44H196.96V445.808C196.96 446.825 196.647 447.642 196.022 448.258C195.397 448.874 194.561 449.182 193.516 449.182ZM204.35 438.724H205.904V449H204.728L204.532 448.146C203.804 448.837 202.912 449.182 201.858 449.182C200.719 449.182 199.776 448.809 199.03 448.062C198.292 447.306 197.924 446.359 197.924 445.22C197.924 444.081 198.292 443.139 199.03 442.392C199.776 441.636 200.719 441.258 201.858 441.258C202.819 441.258 203.65 441.552 204.35 442.14V438.724ZM200.22 446.998C200.686 447.465 201.274 447.698 201.984 447.698C202.693 447.698 203.281 447.465 203.748 446.998C204.224 446.522 204.462 445.929 204.462 445.22C204.462 444.753 204.354 444.333 204.14 443.96C203.925 443.577 203.626 443.279 203.244 443.064C202.87 442.849 202.45 442.742 201.984 442.742C201.517 442.742 201.092 442.849 200.71 443.064C200.336 443.279 200.042 443.577 199.828 443.96C199.622 444.333 199.52 444.753 199.52 445.22C199.52 445.929 199.753 446.522 200.22 446.998ZM213.89 441.44H215.094V449H213.834L213.68 448.076C212.952 448.813 212.042 449.182 210.95 449.182C209.821 449.182 208.878 448.804 208.122 448.048C207.376 447.292 207.002 446.349 207.002 445.22C207.002 444.081 207.376 443.139 208.122 442.392C208.878 441.636 209.821 441.258 210.95 441.258C212.061 441.258 212.98 441.631 213.708 442.378L213.89 441.44ZM209.284 446.998C209.76 447.465 210.353 447.698 211.062 447.698C211.781 447.698 212.369 447.465 212.826 446.998C213.293 446.522 213.526 445.929 213.526 445.22C213.526 444.501 213.293 443.909 212.826 443.442C212.369 442.975 211.781 442.742 211.062 442.742C210.596 442.742 210.171 442.849 209.788 443.064C209.415 443.279 209.121 443.577 208.906 443.96C208.692 444.333 208.584 444.753 208.584 445.22C208.584 445.929 208.818 446.522 209.284 446.998ZM220.754 441.272C221.641 441.272 222.341 441.557 222.854 442.126C223.368 442.695 223.624 443.47 223.624 444.45V449H222.07V444.758C222.07 444.301 222.005 443.918 221.874 443.61C221.744 443.302 221.548 443.069 221.286 442.91C221.034 442.742 220.717 442.658 220.334 442.658C219.746 442.658 219.261 442.873 218.878 443.302C218.496 443.731 218.304 444.282 218.304 444.954V449H216.75V438.724H218.304V442.294C218.92 441.613 219.737 441.272 220.754 441.272ZM232.424 441.51V442.798H230.296V449H228.742V442.798H227.328V441.51H228.742V440.866C228.742 439.27 229.545 438.472 231.15 438.472H232.41V439.718H231.458C231.029 439.718 230.716 439.811 230.52 439.998C230.334 440.185 230.24 440.488 230.24 440.908V441.51H232.424ZM239.309 441.44H240.513V449H239.253L239.099 448.076C238.371 448.813 237.461 449.182 236.369 449.182C235.239 449.182 234.297 448.804 233.541 448.048C232.794 447.292 232.421 446.349 232.421 445.22C232.421 444.081 232.794 443.139 233.541 442.392C234.297 441.636 235.239 441.258 236.369 441.258C237.479 441.258 238.399 441.631 239.127 442.378L239.309 441.44ZM234.703 446.998C235.179 447.465 235.771 447.698 236.481 447.698C237.199 447.698 237.787 447.465 238.245 446.998C238.711 446.522 238.945 445.929 238.945 445.22C238.945 444.501 238.711 443.909 238.245 443.442C237.787 442.975 237.199 442.742 236.481 442.742C236.014 442.742 235.589 442.849 235.207 443.064C234.833 443.279 234.539 443.577 234.325 443.96C234.11 444.333 234.003 444.753 234.003 445.22C234.003 445.929 234.236 446.522 234.703 446.998ZM250.625 441.272C251.418 441.272 252.062 441.543 252.557 442.084C253.051 442.625 253.299 443.33 253.299 444.198V449H251.745V444.576C251.745 444.175 251.684 443.829 251.563 443.54C251.451 443.251 251.283 443.031 251.059 442.882C250.844 442.733 250.583 442.658 250.275 442.658C249.761 442.658 249.337 442.868 249.001 443.288C248.665 443.699 248.497 444.226 248.497 444.87V449H246.971V444.576C246.971 443.96 246.845 443.489 246.593 443.162C246.341 442.826 245.977 442.658 245.501 442.658C244.997 442.658 244.572 442.868 244.227 443.288C243.891 443.699 243.723 444.226 243.723 444.87V449H242.169V441.44H243.275L243.541 442.42C243.83 442.056 244.18 441.776 244.591 441.58C245.001 441.375 245.435 441.272 245.893 441.272C246.397 441.272 246.845 441.389 247.237 441.622C247.629 441.855 247.937 442.177 248.161 442.588C248.431 442.177 248.786 441.855 249.225 441.622C249.663 441.389 250.13 441.272 250.625 441.272ZM254.815 440.264V438.668H256.425V440.264H254.815ZM254.843 449V441.44H256.397V449H254.843ZM258.043 449V438.724H259.597V449H258.043ZM261.215 440.264V438.668H262.825V440.264H261.215ZM261.243 449V441.44H262.797V449H261.243ZM270.77 441.44H271.974V449H270.714L270.56 448.076C269.832 448.813 268.922 449.182 267.83 449.182C266.701 449.182 265.758 448.804 265.002 448.048C264.256 447.292 263.882 446.349 263.882 445.22C263.882 444.081 264.256 443.139 265.002 442.392C265.758 441.636 266.701 441.258 267.83 441.258C268.941 441.258 269.86 441.631 270.588 442.378L270.77 441.44ZM266.164 446.998C266.64 447.465 267.233 447.698 267.942 447.698C268.661 447.698 269.249 447.465 269.706 446.998C270.173 446.522 270.406 445.929 270.406 445.22C270.406 444.501 270.173 443.909 269.706 443.442C269.249 442.975 268.661 442.742 267.942 442.742C267.476 442.742 267.051 442.849 266.668 443.064C266.295 443.279 266.001 443.577 265.786 443.96C265.572 444.333 265.464 444.753 265.464 445.22C265.464 445.929 265.698 446.522 266.164 446.998ZM277.256 441.398H277.928V442.868H277.116C275.828 442.868 275.184 443.568 275.184 444.968V449H273.63V441.44H274.68L274.946 442.476C275.488 441.757 276.258 441.398 277.256 441.398Z" fill="#2A1B00"/>
<defs>
<linearGradient id="paint0_linear_1232_1625" x1="0" y1="300" x2="121.965" y2="579.733" gradientUnits="userSpaceOnUse">
<stop stop-color="white"/>
<stop offset="1" stop-color="white" stop-opacity="0.8"/>
</linearGradient>
</defs>
</svg>
