<svg width="331" height="479" viewBox="0 0 331 479" fill="none" xmlns="http://www.w3.org/2000/svg">
<mask id="path-1-inside-1_985_4914" fill="white">
<path d="M330 447C330 464.673 315.673 479 298 479H32C14.3269 479 0 464.673 0 447V332C0 314.327 14.3269 300 32 300H298C315.673 300 330 314.327 330 332V447Z"/>
</mask>
<path d="M330 447C330 464.673 315.673 479 298 479H32C14.3269 479 0 464.673 0 447V332C0 314.327 14.3269 300 32 300H298C315.673 300 330 314.327 330 332V447Z" fill="url(#paint0_linear_985_4914)"/>
<path d="M298 479V477H32V479V481H298V479ZM0 447H2V332H0H-2V447H0ZM32 300V302H298V300V298H32V300ZM330 332H328V447H330H332V332H330ZM298 300V302C314.569 302 328 315.431 328 332H330H332C332 313.222 316.778 298 298 298V300ZM0 332H2C2 315.431 15.4315 302 32 302V300V298C13.2223 298 -2 313.222 -2 332H0ZM32 479V477C15.4315 477 2 463.569 2 447H0H-2C-2 465.778 13.2223 481 32 481V479ZM298 479V481C316.778 481 332 465.778 332 447H330H328C328 463.569 314.569 477 298 477V479Z" fill="white" mask="url(#path-1-inside-1_985_4914)"/>
<rect opacity="0.1" width="330.305" height="26.5544" rx="13.2772" fill="white"/>
<rect opacity="0.2" y="31.5547" width="330.305" height="26.5544" rx="13.2772" fill="white"/>
<rect opacity="0.3" y="63.1084" width="330.305" height="26.5544" rx="13.2772" fill="white"/>
<rect opacity="0.4" y="94.6631" width="330.305" height="26.5544" rx="13.2772" fill="white"/>
<rect opacity="0.4" y="126.218" width="330.305" height="26.5544" rx="13.2772" fill="white"/>
<rect opacity="0.5" y="157.771" width="330.305" height="26.5544" rx="13.2772" fill="white"/>
<rect opacity="0.6" y="189.326" width="330.305" height="26.5544" rx="13.2772" fill="white"/>
<rect opacity="0.7" y="220.881" width="330.305" height="26.5544" rx="13.2772" fill="white"/>
<rect opacity="0.8" y="252.435" width="330.305" height="40" rx="20" fill="white"/>
<path d="M82.0921 348C82.5588 346.693 83.6881 343.669 85.4801 338.928C86.3388 336.819 87.1508 334.784 87.9161 332.824C88.7001 330.864 89.5028 328.801 90.3241 326.636H102.196C102.271 333.487 102.541 340.608 103.008 348H95.7841C95.8028 346.675 95.7841 344.379 95.7281 341.112C95.6908 338.835 95.6908 336.707 95.7281 334.728C95.7654 332.749 95.8308 330.799 95.9241 328.876H95.6441C94.5241 332.068 93.3574 335.577 92.1441 339.404C91.6401 340.636 90.6414 343.501 89.1481 348H82.0921ZM91.5001 340.16H96.2041L96.1761 343.856C95.8774 343.856 95.5788 343.856 95.2801 343.856C94.9814 343.856 94.6734 343.856 94.3561 343.856H93.1521C92.6108 343.856 92.0881 343.856 91.5841 343.856C91.0801 343.856 90.5761 343.856 90.0721 343.856L91.5001 340.16ZM104.085 348C104.757 344.584 105.419 341.028 106.073 337.332C106.39 335.652 106.81 333.188 107.333 329.94L107.837 326.636H114.893C114.239 329.959 113.633 333.244 113.073 336.492C112.625 338.993 112.27 341.056 112.009 342.68C114.79 342.68 117.273 342.661 119.457 342.624L118.057 348H104.085ZM120.518 348C121.19 344.584 121.853 341.028 122.506 337.332C122.824 335.652 123.244 333.188 123.766 329.94L124.27 326.636H131.326C130.673 329.959 130.066 333.244 129.506 336.492C129.058 338.993 128.704 341.056 128.442 342.68C131.224 342.68 133.706 342.661 135.89 342.624L134.49 348H120.518ZM143.323 348C143.958 344.901 144.62 341.336 145.311 337.304C146.058 333.235 146.646 329.679 147.075 326.636H153.991C153.674 328.129 153.132 330.976 152.367 335.176L151.975 337.276C151.116 342.316 150.538 345.891 150.239 348H143.323ZM152.866 348C153.556 344.416 154.284 340.515 155.05 336.296C155.199 335.475 155.348 334.644 155.498 333.804C155.647 332.945 155.787 332.077 155.918 331.2C156.123 329.912 156.356 328.391 156.618 326.636H166.446L167.93 338.004C167.93 338.321 167.939 338.667 167.958 339.04C167.995 339.413 168.023 339.787 168.042 340.16C168.079 340.515 168.107 340.841 168.126 341.14C168.163 341.439 168.191 341.709 168.21 341.952H168.742C168.742 341.896 168.742 341.849 168.742 341.812C168.76 341.756 168.77 341.7 168.77 341.644C168.9 340.356 169.022 339.367 169.134 338.676C169.936 333.655 170.58 329.641 171.066 326.636H177.394C176.778 329.828 176.134 333.347 175.462 337.192C175.312 338.069 175.154 338.947 174.986 339.824C174.836 340.701 174.687 341.579 174.538 342.456L173.642 348H163.786L162.47 338.312C162.302 336.893 162.208 335.596 162.19 334.42C162.19 334.14 162.18 333.851 162.162 333.552C162.162 333.235 162.162 332.917 162.162 332.6H161.63C161.63 332.693 161.602 332.927 161.546 333.3C161.266 335.353 161.107 336.511 161.07 336.772C160.902 337.743 160.734 338.695 160.566 339.628C160.416 340.561 160.267 341.476 160.118 342.372C159.67 344.967 159.362 346.843 159.194 348H152.866ZM185.736 348.336C183.589 348.336 181.844 348.121 180.5 347.692C179.175 347.244 178.195 346.507 177.56 345.48C176.944 344.435 176.701 343.025 176.832 341.252L184.364 340.664C184.308 341.205 184.327 341.7 184.42 342.148C184.532 342.596 184.756 342.969 185.092 343.268C185.447 343.567 185.951 343.716 186.604 343.716C186.959 343.716 187.323 343.697 187.696 343.66C188.069 343.604 188.349 343.529 188.536 343.436C188.611 343.268 188.676 343.1 188.732 342.932C188.807 342.764 188.872 342.596 188.928 342.428C189.059 342.036 189.143 341.681 189.18 341.364C189.292 340.823 189.301 340.403 189.208 340.104C189.115 339.787 188.881 339.544 188.508 339.376C188.135 339.189 187.584 339.077 186.856 339.04C184.523 338.984 182.721 338.704 181.452 338.2C180.201 337.677 179.38 336.987 178.988 336.128C178.596 335.251 178.512 334.177 178.736 332.908C179.128 330.743 180.267 329.091 182.152 327.952C184.037 326.813 186.361 326.244 189.124 326.244C191.177 326.244 192.829 326.543 194.08 327.14C195.349 327.719 196.245 328.605 196.768 329.8C197.309 330.995 197.487 332.516 197.3 334.364L190.384 334.84C190.403 334.728 190.412 334.616 190.412 334.504C190.431 334.392 190.449 334.289 190.468 334.196C190.524 333.449 190.505 332.871 190.412 332.46C190.337 332.049 190.113 331.723 189.74 331.48C189.367 331.237 188.788 331.116 188.004 331.116C187.724 331.116 187.416 331.135 187.08 331.172C186.744 331.209 186.483 331.256 186.296 331.312C186.221 331.499 186.137 331.685 186.044 331.872C185.969 332.04 185.895 332.227 185.82 332.432C185.689 332.749 185.577 333.16 185.484 333.664C185.372 334.224 185.363 334.672 185.456 335.008C185.568 335.344 185.801 335.615 186.156 335.82C186.511 336.025 187.033 336.156 187.724 336.212C190.244 336.287 192.129 336.539 193.38 336.968C194.631 337.379 195.424 337.957 195.76 338.704C196.096 339.432 196.161 340.44 195.956 341.728C195.695 343.109 195.088 344.295 194.136 345.284C193.184 346.273 191.971 347.029 190.496 347.552C189.04 348.075 187.453 348.336 185.736 348.336ZM196.944 348C197.579 344.901 198.241 341.336 198.932 337.304C199.679 333.235 200.267 329.679 200.696 326.636H207.612C207.295 328.129 206.753 330.976 205.988 335.176L205.596 337.276C204.737 342.316 204.159 345.891 203.86 348H196.944ZM206.487 347.972C206.618 347.3 206.748 346.619 206.879 345.928C207.028 345.237 207.168 344.528 207.299 343.8C207.822 341.093 208.223 338.937 208.503 337.332C209.119 333.86 209.698 330.295 210.239 326.636H219.115C221.262 326.636 223.007 326.981 224.351 327.672C225.714 328.344 226.647 329.464 227.151 331.032C227.655 332.6 227.674 334.691 227.207 337.304C226.759 339.88 226.04 341.952 225.051 343.52C224.08 345.088 222.858 346.227 221.383 346.936C219.927 347.627 218.182 347.972 216.147 347.972H206.487ZM216.147 343.352C216.894 343.352 217.519 343.184 218.023 342.848C218.527 342.493 218.956 341.896 219.311 341.056C219.684 340.216 220.011 338.993 220.291 337.388C220.571 335.801 220.674 334.569 220.599 333.692C220.524 332.796 220.282 332.171 219.871 331.816C219.46 331.461 218.872 331.284 218.107 331.284H216.315L214.187 343.352H216.147ZM227.35 348C227.574 346.955 227.892 345.349 228.302 343.184C228.713 341.019 229.077 339.068 229.394 337.332C229.693 335.652 230.001 333.795 230.318 331.76C230.654 329.725 230.916 328.017 231.102 326.636H247.454L246.586 331.648H237.122L236.45 335.764L245.186 335.568L244.57 339.04L235.862 338.816L235.106 342.988H244.654L243.786 348H227.35ZM86.901 377C87.741 372.688 88.3943 369.225 88.861 366.612C89.477 363.065 89.8037 361.133 89.841 360.816C89.449 360.797 89.029 360.797 88.581 360.816C88.133 360.816 87.6663 360.825 87.181 360.844C86.733 360.863 86.2943 360.881 85.865 360.9C85.4357 360.9 85.025 360.9 84.633 360.9L85.557 355.636H102.833L101.909 360.9C100.304 360.9 98.5677 360.872 96.701 360.816C96.5517 361.693 96.3557 362.795 96.113 364.12C95.8703 365.427 95.6743 366.463 95.525 367.228C95.021 370.047 94.4797 373.304 93.901 377H86.901ZM100.161 377C100.385 375.955 100.702 374.349 101.113 372.184C101.523 370.019 101.887 368.068 102.205 366.332C102.503 364.652 102.811 362.795 103.129 360.76C103.465 358.725 103.726 357.017 103.913 355.636H120.265L119.397 360.648H109.933L109.261 364.764L117.997 364.568L117.381 368.04L108.673 367.816L107.917 371.988H117.465L116.597 377H100.161ZM118.59 377C119.262 373.584 119.925 370.028 120.578 366.332C120.896 364.652 121.316 362.188 121.838 358.94L122.342 355.636H129.398C128.745 358.959 128.138 362.244 127.578 365.492C127.13 367.993 126.776 370.056 126.514 371.68C129.296 371.68 131.778 371.661 133.962 371.624L132.562 377H118.59ZM135.024 377C135.248 375.955 135.565 374.349 135.976 372.184C136.387 370.019 136.751 368.068 137.068 366.332C137.367 364.652 137.675 362.795 137.992 360.76C138.328 358.725 138.589 357.017 138.776 355.636H155.128L154.26 360.648H144.796L144.124 364.764L152.86 364.568L152.244 368.04L143.536 367.816L142.78 371.988H152.328L151.46 377H135.024ZM160.706 377.392C158.932 377.392 157.523 376.972 156.478 376.132C155.451 375.273 154.788 374.023 154.49 372.38C154.21 370.719 154.275 368.693 154.686 366.304C155.152 363.747 155.852 361.665 156.786 360.06C157.738 358.436 158.979 357.232 160.51 356.448C162.04 355.664 163.935 355.272 166.194 355.272C168.602 355.272 170.422 355.589 171.654 356.224C172.904 356.84 173.707 357.82 174.062 359.164C174.435 360.508 174.463 362.347 174.146 364.68L167.202 365.38C167.706 361.945 167.034 360.228 165.186 360.228C164.812 360.228 164.458 360.256 164.122 360.312C163.786 360.368 163.459 360.452 163.142 360.564C162.787 361.311 162.479 362.113 162.218 362.972C161.956 363.831 161.723 364.848 161.518 366.024C161.312 367.275 161.228 368.385 161.266 369.356C161.322 370.308 161.536 371.073 161.91 371.652C162.302 372.231 162.862 372.52 163.59 372.52C163.944 372.52 164.28 372.501 164.598 372.464C164.934 372.408 165.251 372.333 165.55 372.24C165.755 372.165 165.96 372.063 166.166 371.932C166.371 371.783 166.558 371.643 166.726 371.512C166.912 371.363 167.08 371.241 167.23 371.148C167.36 370.401 167.314 369.832 167.09 369.44C166.884 369.048 166.464 368.796 165.83 368.684H164.066L164.206 367.9H174.37C174.239 368.516 174.127 369.104 174.034 369.664C173.94 370.224 173.847 370.756 173.754 371.26C173.567 372.268 173.24 374.181 172.774 377H166.138L167.118 372.24H166.698C166.212 373.957 165.447 375.245 164.402 376.104C163.375 376.963 162.143 377.392 160.706 377.392ZM174.727 377C174.82 376.533 174.923 376.057 175.035 375.572C175.128 375.087 175.222 374.592 175.315 374.088C175.558 372.763 175.8 371.447 176.043 370.14C176.304 368.833 176.538 367.564 176.743 366.332C177.098 364.409 177.508 361.964 177.975 358.996C178.068 358.417 178.152 357.848 178.227 357.288C178.32 356.728 178.404 356.177 178.479 355.636H188.755C190.566 355.636 192.068 355.767 193.263 356.028C194.476 356.289 195.4 356.84 196.035 357.68C196.67 358.52 196.838 359.752 196.539 361.376C196.296 362.832 195.858 363.98 195.223 364.82C194.607 365.66 193.776 366.267 192.731 366.64C191.686 366.995 190.351 367.181 188.727 367.2L188.615 367.732C190.948 367.769 192.572 368.124 193.487 368.796C194.402 369.449 194.775 370.513 194.607 371.988C194.551 372.567 194.523 373.416 194.523 374.536C194.523 375.656 194.56 376.477 194.635 377H187.187C187.206 376.739 187.224 376.216 187.243 375.432C187.318 374.032 187.42 372.94 187.551 372.156C187.607 371.409 187.579 370.859 187.467 370.504C187.374 370.149 187.187 369.907 186.907 369.776C186.646 369.627 186.226 369.552 185.647 369.552H182.987C182.95 369.664 182.698 370.971 182.231 373.472L181.643 377H174.727ZM185.815 365.744C186.73 365.744 187.467 365.529 188.027 365.1C188.606 364.652 188.97 363.943 189.119 362.972C189.25 362.263 189.231 361.712 189.063 361.32C188.914 360.928 188.643 360.657 188.251 360.508C187.878 360.359 187.392 360.284 186.795 360.284H184.527L183.575 365.744H185.815ZM195.145 377C195.612 375.693 196.741 372.669 198.533 367.928C199.392 365.819 200.204 363.784 200.969 361.824C201.753 359.864 202.556 357.801 203.377 355.636H215.249C215.324 362.487 215.594 369.608 216.061 377H208.837C208.856 375.675 208.837 373.379 208.781 370.112C208.744 367.835 208.744 365.707 208.781 363.728C208.818 361.749 208.884 359.799 208.977 357.876H208.697C207.577 361.068 206.41 364.577 205.197 368.404C204.693 369.636 203.694 372.501 202.201 377H195.145ZM204.553 369.16H209.257L209.229 372.856C208.93 372.856 208.632 372.856 208.333 372.856C208.034 372.856 207.726 372.856 207.409 372.856H206.205C205.664 372.856 205.141 372.856 204.637 372.856C204.133 372.856 203.629 372.856 203.125 372.856L204.553 369.16ZM217.137 377C217.473 375.376 217.791 373.733 218.089 372.072C218.407 370.411 218.724 368.731 219.041 367.032C219.452 364.829 219.816 362.86 220.133 361.124C220.208 360.601 220.404 359.416 220.721 357.568C220.777 357.176 220.833 356.812 220.889 356.476C220.945 356.14 220.992 355.86 221.029 355.636H230.997L231.081 370.672H231.641L236.849 355.636H246.845L246.509 357.428C246.099 359.724 245.875 360.956 245.837 361.124C244.773 367.657 243.98 372.949 243.457 377H237.185C237.409 375.675 237.68 374.041 237.997 372.1C238.091 371.447 238.193 370.784 238.305 370.112C238.417 369.421 238.529 368.74 238.641 368.068C239.22 364.521 239.593 362.197 239.761 361.096H239.369L233.433 377H227.105L226.601 361.096H226.209C226.097 361.675 225.985 362.281 225.873 362.916C225.761 363.532 225.64 364.167 225.509 364.82C225.397 365.492 225.201 366.584 224.921 368.096C224.847 368.563 224.763 369.029 224.669 369.496C224.595 369.963 224.511 370.429 224.417 370.896C224.081 372.688 223.727 374.723 223.353 377H217.137Z" fill="#2A1B00"/>
<path d="M115.478 401.2H117.06V411H115.702L110.62 404V411H109.038V401.2H110.494L115.478 408.088V401.2ZM125.113 410.062C124.347 410.809 123.386 411.182 122.229 411.182C121.071 411.182 120.105 410.809 119.331 410.062C118.565 409.306 118.183 408.359 118.183 407.22C118.183 406.473 118.355 405.797 118.701 405.19C119.055 404.583 119.541 404.112 120.157 403.776C120.782 403.431 121.473 403.258 122.229 403.258C122.985 403.258 123.671 403.431 124.287 403.776C124.912 404.112 125.397 404.583 125.743 405.19C126.097 405.797 126.275 406.473 126.275 407.22C126.275 408.359 125.887 409.306 125.113 410.062ZM122.229 409.698C122.705 409.698 123.129 409.595 123.503 409.39C123.876 409.175 124.165 408.881 124.371 408.508C124.585 408.125 124.693 407.696 124.693 407.22C124.693 406.501 124.459 405.909 123.993 405.442C123.535 404.975 122.947 404.742 122.229 404.742C121.51 404.742 120.917 404.975 120.451 405.442C119.993 405.909 119.765 406.501 119.765 407.22C119.765 407.939 119.993 408.531 120.451 408.998C120.917 409.465 121.51 409.698 122.229 409.698ZM134.341 403.272C135.219 403.272 135.914 403.566 136.427 404.154C136.95 404.742 137.211 405.507 137.211 406.45V411H135.657V406.758C135.657 406.077 135.508 405.559 135.209 405.204C134.92 404.84 134.491 404.658 133.921 404.658C133.333 404.658 132.848 404.873 132.465 405.302C132.083 405.731 131.891 406.282 131.891 406.954V411H130.337V403.44H131.415L131.723 404.49C132.013 404.107 132.381 403.809 132.829 403.594C133.287 403.379 133.791 403.272 134.341 403.272ZM145.942 407.234C145.942 407.374 145.932 407.547 145.914 407.752H139.782C139.875 408.359 140.127 408.839 140.538 409.194C140.958 409.549 141.476 409.726 142.092 409.726C142.39 409.726 142.67 409.684 142.932 409.6C143.193 409.507 143.422 409.381 143.618 409.222C143.823 409.054 143.991 408.853 144.122 408.62H145.76C145.461 409.423 144.985 410.053 144.332 410.51C143.678 410.958 142.932 411.182 142.092 411.182C140.981 411.182 140.052 410.804 139.306 410.048C138.568 409.292 138.2 408.349 138.2 407.22C138.2 406.091 138.568 405.148 139.306 404.392C140.052 403.636 140.981 403.258 142.092 403.258C142.848 403.258 143.52 403.44 144.108 403.804C144.696 404.159 145.148 404.639 145.466 405.246C145.783 405.843 145.942 406.506 145.942 407.234ZM142.092 404.658C141.513 404.658 141.018 404.821 140.608 405.148C140.206 405.475 139.94 405.923 139.81 406.492H144.388C144.294 406.109 144.14 405.783 143.926 405.512C143.711 405.232 143.445 405.022 143.128 404.882C142.82 404.733 142.474 404.658 142.092 404.658ZM154.214 407.234C154.214 407.374 154.204 407.547 154.186 407.752H148.054C148.147 408.359 148.399 408.839 148.81 409.194C149.23 409.549 149.748 409.726 150.364 409.726C150.662 409.726 150.942 409.684 151.204 409.6C151.465 409.507 151.694 409.381 151.89 409.222C152.095 409.054 152.263 408.853 152.394 408.62H154.032C153.733 409.423 153.257 410.053 152.604 410.51C151.95 410.958 151.204 411.182 150.364 411.182C149.253 411.182 148.324 410.804 147.578 410.048C146.84 409.292 146.472 408.349 146.472 407.22C146.472 406.091 146.84 405.148 147.578 404.392C148.324 403.636 149.253 403.258 150.364 403.258C151.12 403.258 151.792 403.44 152.38 403.804C152.968 404.159 153.42 404.639 153.738 405.246C154.055 405.843 154.214 406.506 154.214 407.234ZM150.364 404.658C149.785 404.658 149.29 404.821 148.88 405.148C148.478 405.475 148.212 405.923 148.082 406.492H152.66C152.566 406.109 152.412 405.783 152.198 405.512C151.983 405.232 151.717 405.022 151.4 404.882C151.092 404.733 150.746 404.658 150.364 404.658ZM161.17 400.724H162.724V411H161.548L161.352 410.146C160.624 410.837 159.733 411.182 158.678 411.182C157.539 411.182 156.597 410.809 155.85 410.062C155.113 409.306 154.744 408.359 154.744 407.22C154.744 406.081 155.113 405.139 155.85 404.392C156.597 403.636 157.539 403.258 158.678 403.258C159.639 403.258 160.47 403.552 161.17 404.14V400.724ZM157.04 408.998C157.507 409.465 158.095 409.698 158.804 409.698C159.513 409.698 160.101 409.465 160.568 408.998C161.044 408.522 161.282 407.929 161.282 407.22C161.282 406.753 161.175 406.333 160.96 405.96C160.745 405.577 160.447 405.279 160.064 405.064C159.691 404.849 159.271 404.742 158.804 404.742C158.337 404.742 157.913 404.849 157.53 405.064C157.157 405.279 156.863 405.577 156.648 405.96C156.443 406.333 156.34 406.753 156.34 407.22C156.34 407.929 156.573 408.522 157.04 408.998ZM170.505 409.586H171.359V411H170.211C169.66 411 169.184 410.893 168.783 410.678C168.382 410.463 168.074 410.155 167.859 409.754C167.644 409.343 167.537 408.863 167.537 408.312V404.77H166.179V404.476L168.811 401.676H169.077V403.44H171.317V404.77H169.091V408.186C169.091 408.634 169.212 408.979 169.455 409.222C169.698 409.465 170.048 409.586 170.505 409.586ZM178.601 410.062C177.836 410.809 176.875 411.182 175.717 411.182C174.56 411.182 173.594 410.809 172.819 410.062C172.054 409.306 171.671 408.359 171.671 407.22C171.671 406.473 171.844 405.797 172.189 405.19C172.544 404.583 173.029 404.112 173.645 403.776C174.271 403.431 174.961 403.258 175.717 403.258C176.473 403.258 177.159 403.431 177.775 403.776C178.401 404.112 178.886 404.583 179.231 405.19C179.586 405.797 179.763 406.473 179.763 407.22C179.763 408.359 179.376 409.306 178.601 410.062ZM175.717 409.698C176.193 409.698 176.618 409.595 176.991 409.39C177.365 409.175 177.654 408.881 177.859 408.508C178.074 408.125 178.181 407.696 178.181 407.22C178.181 406.501 177.948 405.909 177.481 405.442C177.024 404.975 176.436 404.742 175.717 404.742C174.999 404.742 174.406 404.975 173.939 405.442C173.482 405.909 173.253 406.501 173.253 407.22C173.253 407.939 173.482 408.531 173.939 408.998C174.406 409.465 174.999 409.698 175.717 409.698ZM183.798 402.264V400.668H185.408V402.264H183.798ZM183.826 411V403.44H185.38V411H183.826ZM191.03 403.272C191.907 403.272 192.603 403.566 193.116 404.154C193.639 404.742 193.9 405.507 193.9 406.45V411H192.346V406.758C192.346 406.077 192.197 405.559 191.898 405.204C191.609 404.84 191.179 404.658 190.61 404.658C190.022 404.658 189.537 404.873 189.154 405.302C188.771 405.731 188.58 406.282 188.58 406.954V411H187.026V403.44H188.104L188.412 404.49C188.701 404.107 189.07 403.809 189.518 403.594C189.975 403.379 190.479 403.272 191.03 403.272ZM197.968 411.182C197.044 411.182 196.302 410.949 195.742 410.482C195.182 410.015 194.893 409.39 194.874 408.606H196.4C196.419 408.989 196.573 409.287 196.862 409.502C197.161 409.707 197.548 409.81 198.024 409.81C198.304 409.81 198.552 409.773 198.766 409.698C198.99 409.623 199.168 409.511 199.298 409.362C199.429 409.213 199.494 409.035 199.494 408.83C199.494 408.69 199.462 408.569 199.396 408.466C199.331 408.354 199.252 408.265 199.158 408.2C199.065 408.135 198.93 408.074 198.752 408.018C198.584 407.962 198.43 407.92 198.29 407.892C198.16 407.864 197.982 407.831 197.758 407.794C197.525 407.757 197.338 407.724 197.198 407.696C197.058 407.668 196.881 407.626 196.666 407.57C196.452 407.505 196.274 407.439 196.134 407.374C196.004 407.299 195.859 407.206 195.7 407.094C195.542 406.982 195.416 406.856 195.322 406.716C195.238 406.576 195.164 406.408 195.098 406.212C195.042 406.007 195.014 405.783 195.014 405.54C195.014 404.859 195.28 404.308 195.812 403.888C196.354 403.468 197.063 403.258 197.94 403.258C198.818 403.258 199.522 403.477 200.054 403.916C200.586 404.355 200.857 404.943 200.866 405.68H199.396C199.387 405.325 199.252 405.055 198.99 404.868C198.729 404.672 198.37 404.574 197.912 404.574C197.483 404.574 197.142 404.658 196.89 404.826C196.638 404.994 196.512 405.213 196.512 405.484C196.512 405.596 196.531 405.694 196.568 405.778C196.606 405.862 196.666 405.937 196.75 406.002C196.844 406.067 196.928 406.123 197.002 406.17C197.086 406.207 197.208 406.245 197.366 406.282C197.525 406.319 197.656 406.347 197.758 406.366C197.861 406.385 198.01 406.408 198.206 406.436C198.458 406.483 198.645 406.52 198.766 406.548C198.897 406.567 199.079 406.609 199.312 406.674C199.546 406.73 199.728 406.791 199.858 406.856C199.989 406.921 200.138 407.015 200.306 407.136C200.484 407.248 200.614 407.379 200.698 407.528C200.792 407.668 200.871 407.845 200.936 408.06C201.002 408.275 201.034 408.508 201.034 408.76C201.034 409.497 200.754 410.085 200.194 410.524C199.634 410.963 198.892 411.182 197.968 411.182ZM205.44 409.586H206.294V411H205.146C204.595 411 204.119 410.893 203.718 410.678C203.317 410.463 203.009 410.155 202.794 409.754C202.579 409.343 202.472 408.863 202.472 408.312V404.77H201.114V404.476L203.746 401.676H204.012V403.44H206.252V404.77H204.026V408.186C204.026 408.634 204.147 408.979 204.39 409.222C204.633 409.465 204.983 409.586 205.44 409.586ZM213.494 403.44H214.698V411H213.438L213.284 410.076C212.556 410.813 211.646 411.182 210.554 411.182C209.425 411.182 208.482 410.804 207.726 410.048C206.98 409.292 206.606 408.349 206.606 407.22C206.606 406.081 206.98 405.139 207.726 404.392C208.482 403.636 209.425 403.258 210.554 403.258C211.665 403.258 212.584 403.631 213.312 404.378L213.494 403.44ZM208.888 408.998C209.364 409.465 209.957 409.698 210.666 409.698C211.385 409.698 211.973 409.465 212.43 408.998C212.897 408.522 213.13 407.929 213.13 407.22C213.13 406.501 212.897 405.909 212.43 405.442C211.973 404.975 211.385 404.742 210.666 404.742C210.2 404.742 209.775 404.849 209.392 405.064C209.019 405.279 208.725 405.577 208.51 405.96C208.296 406.333 208.188 406.753 208.188 407.22C208.188 407.929 208.422 408.522 208.888 408.998ZM216.354 411V400.724H217.908V411H216.354ZM219.554 411V400.724H221.108V411H219.554ZM80.8803 422.44H82.0843V430H80.8243L80.6703 429.076C79.9423 429.813 79.0323 430.182 77.9403 430.182C76.811 430.182 75.8683 429.804 75.1123 429.048C74.3656 428.292 73.9923 427.349 73.9923 426.22C73.9923 425.081 74.3656 424.139 75.1123 423.392C75.8683 422.636 76.811 422.258 77.9403 422.258C79.051 422.258 79.9703 422.631 80.6983 423.378L80.8803 422.44ZM76.2743 427.998C76.7503 428.465 77.343 428.698 78.0523 428.698C78.771 428.698 79.359 428.465 79.8163 427.998C80.283 427.522 80.5163 426.929 80.5163 426.22C80.5163 425.501 80.283 424.909 79.8163 424.442C79.359 423.975 78.771 423.742 78.0523 423.742C77.5856 423.742 77.161 423.849 76.7783 424.064C76.405 424.279 76.111 424.577 75.8963 424.96C75.6816 425.333 75.5743 425.753 75.5743 426.22C75.5743 426.929 75.8076 427.522 76.2743 427.998ZM90.7117 422.272C91.589 422.272 92.2843 422.566 92.7977 423.154C93.3203 423.742 93.5817 424.507 93.5817 425.45V430H92.0277V425.758C92.0277 425.077 91.8783 424.559 91.5797 424.204C91.2903 423.84 90.861 423.658 90.2917 423.658C89.7037 423.658 89.2183 423.873 88.8357 424.302C88.453 424.731 88.2617 425.282 88.2617 425.954V430H86.7077V422.44H87.7857L88.0937 423.49C88.383 423.107 88.7517 422.809 89.1997 422.594C89.657 422.379 90.161 422.272 90.7117 422.272ZM102.312 426.234C102.312 426.374 102.303 426.547 102.284 426.752H96.1521C96.2454 427.359 96.4974 427.839 96.9081 428.194C97.3281 428.549 97.8461 428.726 98.4621 428.726C98.7608 428.726 99.0408 428.684 99.3021 428.6C99.5634 428.507 99.7921 428.381 99.9881 428.222C100.193 428.054 100.361 427.853 100.492 427.62H102.13C101.831 428.423 101.355 429.053 100.702 429.51C100.049 429.958 99.3021 430.182 98.4621 430.182C97.3514 430.182 96.4228 429.804 95.6761 429.048C94.9388 428.292 94.5701 427.349 94.5701 426.22C94.5701 425.091 94.9388 424.148 95.6761 423.392C96.4228 422.636 97.3514 422.258 98.4621 422.258C99.2181 422.258 99.8901 422.44 100.478 422.804C101.066 423.159 101.519 423.639 101.836 424.246C102.153 424.843 102.312 425.506 102.312 426.234ZM98.4621 423.658C97.8834 423.658 97.3888 423.821 96.9781 424.148C96.5768 424.475 96.3108 424.923 96.1801 425.492H100.758C100.665 425.109 100.511 424.783 100.296 424.512C100.081 424.232 99.8154 424.022 99.4981 423.882C99.1901 423.733 98.8448 423.658 98.4621 423.658ZM112.295 422.44H113.849L111.315 430H110.055L108.109 425.394L106.163 430H104.903L102.383 422.44H103.979L105.687 427.536L107.857 422.524H108.361L110.559 427.578L112.295 422.44ZM123.745 422.44H124.949V430H123.689L123.535 429.076C122.807 429.813 121.897 430.182 120.805 430.182C119.676 430.182 118.733 429.804 117.977 429.048C117.23 428.292 116.857 427.349 116.857 426.22C116.857 425.081 117.23 424.139 117.977 423.392C118.733 422.636 119.676 422.258 120.805 422.258C121.916 422.258 122.835 422.631 123.563 423.378L123.745 422.44ZM119.139 427.998C119.615 428.465 120.208 428.698 120.917 428.698C121.636 428.698 122.224 428.465 122.681 427.998C123.148 427.522 123.381 426.929 123.381 426.22C123.381 425.501 123.148 424.909 122.681 424.442C122.224 423.975 121.636 423.742 120.917 423.742C120.45 423.742 120.026 423.849 119.643 424.064C119.27 424.279 118.976 424.577 118.761 424.96C118.546 425.333 118.439 425.753 118.439 426.22C118.439 426.929 118.672 427.522 119.139 427.998ZM130.665 422.258C131.412 422.258 132.084 422.431 132.681 422.776C133.278 423.112 133.745 423.583 134.081 424.19C134.417 424.797 134.585 425.473 134.585 426.22C134.585 427.359 134.212 428.306 133.465 429.062C132.728 429.809 131.794 430.182 130.665 430.182C129.694 430.182 128.859 429.879 128.159 429.272V432.716H126.605V422.44H127.655L127.949 423.364C128.677 422.627 129.582 422.258 130.665 422.258ZM128.775 427.998C129.242 428.465 129.83 428.698 130.539 428.698C131.258 428.698 131.85 428.465 132.317 427.998C132.784 427.522 133.017 426.929 133.017 426.22C133.017 425.511 132.784 424.923 132.317 424.456C131.85 423.98 131.262 423.742 130.553 423.742C130.086 423.742 129.662 423.849 129.279 424.064C128.896 424.279 128.598 424.577 128.383 424.96C128.178 425.333 128.075 425.753 128.075 426.22C128.075 426.929 128.308 427.522 128.775 427.998ZM139.757 422.258C140.504 422.258 141.176 422.431 141.773 422.776C142.371 423.112 142.837 423.583 143.173 424.19C143.509 424.797 143.677 425.473 143.677 426.22C143.677 427.359 143.304 428.306 142.557 429.062C141.82 429.809 140.887 430.182 139.757 430.182C138.787 430.182 137.951 429.879 137.251 429.272V432.716H135.697V422.44H136.747L137.041 423.364C137.769 422.627 138.675 422.258 139.757 422.258ZM137.867 427.998C138.334 428.465 138.922 428.698 139.631 428.698C140.35 428.698 140.943 428.465 141.409 427.998C141.876 427.522 142.109 426.929 142.109 426.22C142.109 425.511 141.876 424.923 141.409 424.456C140.943 423.98 140.355 423.742 139.645 423.742C139.179 423.742 138.754 423.849 138.371 424.064C137.989 424.279 137.69 424.577 137.475 424.96C137.27 425.333 137.167 425.753 137.167 426.22C137.167 426.929 137.401 427.522 137.867 427.998ZM147.575 426.836V425.324H158.327V426.836H147.575ZM166.158 430.182C165.038 430.182 164.095 429.804 163.33 429.048C162.574 428.283 162.196 427.34 162.196 426.22C162.196 425.091 162.574 424.148 163.33 423.392C164.095 422.636 165.043 422.258 166.172 422.258C167.096 422.258 167.899 422.519 168.58 423.042C169.261 423.565 169.705 424.26 169.91 425.128H168.37C168.174 424.699 167.88 424.363 167.488 424.12C167.096 423.868 166.653 423.742 166.158 423.742C165.719 423.742 165.318 423.849 164.954 424.064C164.59 424.279 164.301 424.577 164.086 424.96C163.881 425.333 163.778 425.753 163.778 426.22C163.778 426.92 164.007 427.508 164.464 427.984C164.921 428.46 165.486 428.698 166.158 428.698C166.653 428.698 167.091 428.572 167.474 428.32C167.866 428.068 168.165 427.709 168.37 427.242H169.938C169.723 428.129 169.271 428.843 168.58 429.384C167.899 429.916 167.091 430.182 166.158 430.182ZM174.909 422.272C175.796 422.272 176.496 422.557 177.009 423.126C177.522 423.695 177.779 424.47 177.779 425.45V430H176.225V425.758C176.225 425.301 176.16 424.918 176.029 424.61C175.898 424.302 175.702 424.069 175.441 423.91C175.189 423.742 174.872 423.658 174.489 423.658C173.901 423.658 173.416 423.873 173.033 424.302C172.65 424.731 172.459 425.282 172.459 425.954V430H170.905V419.724H172.459V423.294C173.075 422.613 173.892 422.272 174.909 422.272ZM185.656 422.44H186.86V430H185.6L185.446 429.076C184.718 429.813 183.808 430.182 182.716 430.182C181.586 430.182 180.644 429.804 179.888 429.048C179.141 428.292 178.768 427.349 178.768 426.22C178.768 425.081 179.141 424.139 179.888 423.392C180.644 422.636 181.586 422.258 182.716 422.258C183.826 422.258 184.746 422.631 185.474 423.378L185.656 422.44ZM181.05 427.998C181.526 428.465 182.118 428.698 182.828 428.698C183.546 428.698 184.134 428.465 184.592 427.998C185.058 427.522 185.292 426.929 185.292 426.22C185.292 425.501 185.058 424.909 184.592 424.442C184.134 423.975 183.546 423.742 182.828 423.742C182.361 423.742 181.936 423.849 181.554 424.064C181.18 424.279 180.886 424.577 180.672 424.96C180.457 425.333 180.35 425.753 180.35 426.22C180.35 426.929 180.583 427.522 181.05 427.998ZM191.89 428.586H192.744V430H191.596C191.045 430 190.569 429.893 190.168 429.678C189.766 429.463 189.458 429.155 189.244 428.754C189.029 428.343 188.922 427.863 188.922 427.312V423.77H187.564V423.476L190.196 420.676H190.462V422.44H192.702V423.77H190.476V427.186C190.476 427.634 190.597 427.979 190.84 428.222C191.082 428.465 191.432 428.586 191.89 428.586ZM197.072 428.586H197.926V430H196.778C196.227 430 195.751 429.893 195.35 429.678C194.948 429.463 194.64 429.155 194.426 428.754C194.211 428.343 194.104 427.863 194.104 427.312V423.77H192.746V423.476L195.378 420.676H195.644V422.44H197.884V423.77H195.658V427.186C195.658 427.634 195.779 427.979 196.022 428.222C196.264 428.465 196.614 428.586 197.072 428.586ZM198.852 421.264V419.668H200.462V421.264H198.852ZM198.88 430V422.44H200.434V430H198.88ZM206.084 422.272C206.961 422.272 207.656 422.566 208.17 423.154C208.692 423.742 208.954 424.507 208.954 425.45V430H207.4V425.758C207.4 425.077 207.25 424.559 206.952 424.204C206.662 423.84 206.233 423.658 205.664 423.658C205.076 423.658 204.59 423.873 204.208 424.302C203.825 424.731 203.634 425.282 203.634 425.954V430H202.08V422.44H203.158L203.466 423.49C203.755 423.107 204.124 422.809 204.572 422.594C205.029 422.379 205.533 422.272 206.084 422.272ZM216.69 422.44H217.712V429.006C217.712 429.809 217.558 430.499 217.25 431.078C216.951 431.666 216.517 432.114 215.948 432.422C215.379 432.739 214.707 432.898 213.932 432.898C212.971 432.898 212.163 432.66 211.51 432.184C210.857 431.717 210.432 431.064 210.236 430.224H211.79C211.93 430.635 212.196 430.952 212.588 431.176C212.989 431.4 213.433 431.512 213.918 431.512C214.59 431.512 215.136 431.307 215.556 430.896C215.976 430.485 216.186 429.925 216.186 429.216V428.88C215.486 429.477 214.651 429.776 213.68 429.776C212.635 429.776 211.748 429.417 211.02 428.698C210.301 427.97 209.942 427.079 209.942 426.024C209.942 424.969 210.301 424.078 211.02 423.35C211.748 422.622 212.635 422.258 213.68 422.258C214.791 422.258 215.71 422.645 216.438 423.42L216.69 422.44ZM213.862 428.334C214.189 428.334 214.497 428.278 214.786 428.166C215.075 428.045 215.323 427.886 215.528 427.69C215.733 427.485 215.892 427.237 216.004 426.948C216.125 426.659 216.186 426.351 216.186 426.024C216.186 425.352 215.967 424.797 215.528 424.358C215.089 423.919 214.534 423.7 213.862 423.7C213.19 423.7 212.63 423.924 212.182 424.372C211.743 424.811 211.524 425.361 211.524 426.024C211.524 426.687 211.743 427.237 212.182 427.676C212.63 428.115 213.19 428.334 213.862 428.334ZM224.849 430.182C223.925 430.182 223.183 429.949 222.623 429.482C222.063 429.015 221.774 428.39 221.755 427.606H223.281C223.3 427.989 223.454 428.287 223.743 428.502C224.042 428.707 224.429 428.81 224.905 428.81C225.185 428.81 225.433 428.773 225.647 428.698C225.871 428.623 226.049 428.511 226.179 428.362C226.31 428.213 226.375 428.035 226.375 427.83C226.375 427.69 226.343 427.569 226.277 427.466C226.212 427.354 226.133 427.265 226.039 427.2C225.946 427.135 225.811 427.074 225.633 427.018C225.465 426.962 225.311 426.92 225.171 426.892C225.041 426.864 224.863 426.831 224.639 426.794C224.406 426.757 224.219 426.724 224.079 426.696C223.939 426.668 223.762 426.626 223.547 426.57C223.333 426.505 223.155 426.439 223.015 426.374C222.885 426.299 222.74 426.206 222.581 426.094C222.423 425.982 222.297 425.856 222.203 425.716C222.119 425.576 222.045 425.408 221.979 425.212C221.923 425.007 221.895 424.783 221.895 424.54C221.895 423.859 222.161 423.308 222.693 422.888C223.235 422.468 223.944 422.258 224.821 422.258C225.699 422.258 226.403 422.477 226.935 422.916C227.467 423.355 227.738 423.943 227.747 424.68H226.277C226.268 424.325 226.133 424.055 225.871 423.868C225.61 423.672 225.251 423.574 224.793 423.574C224.364 423.574 224.023 423.658 223.771 423.826C223.519 423.994 223.393 424.213 223.393 424.484C223.393 424.596 223.412 424.694 223.449 424.778C223.487 424.862 223.547 424.937 223.631 425.002C223.725 425.067 223.809 425.123 223.883 425.17C223.967 425.207 224.089 425.245 224.247 425.282C224.406 425.319 224.537 425.347 224.639 425.366C224.742 425.385 224.891 425.408 225.087 425.436C225.339 425.483 225.526 425.52 225.647 425.548C225.778 425.567 225.96 425.609 226.193 425.674C226.427 425.73 226.609 425.791 226.739 425.856C226.87 425.921 227.019 426.015 227.187 426.136C227.365 426.248 227.495 426.379 227.579 426.528C227.673 426.668 227.752 426.845 227.817 427.06C227.883 427.275 227.915 427.508 227.915 427.76C227.915 428.497 227.635 429.085 227.075 429.524C226.515 429.963 225.773 430.182 224.849 430.182ZM232.321 428.586H233.175V430H232.027C231.476 430 231 429.893 230.599 429.678C230.198 429.463 229.89 429.155 229.675 428.754C229.46 428.343 229.353 427.863 229.353 427.312V423.77H227.995V423.476L230.627 420.676H230.893V422.44H233.133V423.77H230.907V427.186C230.907 427.634 231.028 427.979 231.271 428.222C231.514 428.465 231.864 428.586 232.321 428.586ZM240.375 422.44H241.579V430H240.319L240.165 429.076C239.437 429.813 238.527 430.182 237.435 430.182C236.306 430.182 235.363 429.804 234.607 429.048C233.861 428.292 233.487 427.349 233.487 426.22C233.487 425.081 233.861 424.139 234.607 423.392C235.363 422.636 236.306 422.258 237.435 422.258C238.546 422.258 239.465 422.631 240.193 423.378L240.375 422.44ZM235.769 427.998C236.245 428.465 236.838 428.698 237.547 428.698C238.266 428.698 238.854 428.465 239.311 427.998C239.778 427.522 240.011 426.929 240.011 426.22C240.011 425.501 239.778 424.909 239.311 424.442C238.854 423.975 238.266 423.742 237.547 423.742C237.081 423.742 236.656 423.849 236.273 424.064C235.9 424.279 235.606 424.577 235.391 424.96C235.177 425.333 235.069 425.753 235.069 426.22C235.069 426.929 235.303 427.522 235.769 427.998ZM246.861 422.398H247.533V423.868H246.721C245.433 423.868 244.789 424.568 244.789 425.968V430H243.235V422.44H244.285L244.551 423.476C245.093 422.757 245.863 422.398 246.861 422.398ZM251.573 428.586H252.427V430H251.279C250.728 430 250.252 429.893 249.851 429.678C249.449 429.463 249.141 429.155 248.927 428.754C248.712 428.343 248.605 427.863 248.605 427.312V423.77H247.247V423.476L249.879 420.676H250.145V422.44H252.385V423.77H250.159V427.186C250.159 427.634 250.28 427.979 250.523 428.222C250.765 428.465 251.115 428.586 251.573 428.586ZM255.901 430.182C254.977 430.182 254.235 429.949 253.675 429.482C253.115 429.015 252.826 428.39 252.807 427.606H254.333C254.352 427.989 254.506 428.287 254.795 428.502C255.094 428.707 255.481 428.81 255.957 428.81C256.237 428.81 256.484 428.773 256.699 428.698C256.923 428.623 257.1 428.511 257.231 428.362C257.362 428.213 257.427 428.035 257.427 427.83C257.427 427.69 257.394 427.569 257.329 427.466C257.264 427.354 257.184 427.265 257.091 427.2C256.998 427.135 256.862 427.074 256.685 427.018C256.517 426.962 256.363 426.92 256.223 426.892C256.092 426.864 255.915 426.831 255.691 426.794C255.458 426.757 255.271 426.724 255.131 426.696C254.991 426.668 254.814 426.626 254.599 426.57C254.384 426.505 254.207 426.439 254.067 426.374C253.936 426.299 253.792 426.206 253.633 426.094C253.474 425.982 253.348 425.856 253.255 425.716C253.171 425.576 253.096 425.408 253.031 425.212C252.975 425.007 252.947 424.783 252.947 424.54C252.947 423.859 253.213 423.308 253.745 422.888C254.286 422.468 254.996 422.258 255.873 422.258C256.75 422.258 257.455 422.477 257.987 422.916C258.519 423.355 258.79 423.943 258.799 424.68H257.329C257.32 424.325 257.184 424.055 256.923 423.868C256.662 423.672 256.302 423.574 255.845 423.574C255.416 423.574 255.075 423.658 254.823 423.826C254.571 423.994 254.445 424.213 254.445 424.484C254.445 424.596 254.464 424.694 254.501 424.778C254.538 424.862 254.599 424.937 254.683 425.002C254.776 425.067 254.86 425.123 254.935 425.17C255.019 425.207 255.14 425.245 255.299 425.282C255.458 425.319 255.588 425.347 255.691 425.366C255.794 425.385 255.943 425.408 256.139 425.436C256.391 425.483 256.578 425.52 256.699 425.548C256.83 425.567 257.012 425.609 257.245 425.674C257.478 425.73 257.66 425.791 257.791 425.856C257.922 425.921 258.071 426.015 258.239 426.136C258.416 426.248 258.547 426.379 258.631 426.528C258.724 426.668 258.804 426.845 258.869 427.06C258.934 427.275 258.967 427.508 258.967 427.76C258.967 428.497 258.687 429.085 258.127 429.524C257.567 429.963 256.825 430.182 255.901 430.182ZM90.8496 440.264V438.668H92.4596V440.264H90.8496ZM90.8776 449V441.44H92.4316V449H90.8776ZM98.0814 441.272C98.9587 441.272 99.654 441.566 100.167 442.154C100.69 442.742 100.951 443.507 100.951 444.45V449H99.3974V444.758C99.3974 444.077 99.248 443.559 98.9494 443.204C98.66 442.84 98.2307 442.658 97.6614 442.658C97.0734 442.658 96.588 442.873 96.2054 443.302C95.8227 443.731 95.6314 444.282 95.6314 444.954V449H94.0774V441.44H95.1554L95.4634 442.49C95.7527 442.107 96.1214 441.809 96.5694 441.594C97.0267 441.379 97.5307 441.272 98.0814 441.272ZM111.795 441.44H112.999V449H111.739L111.585 448.076C110.857 448.813 109.947 449.182 108.855 449.182C107.726 449.182 106.783 448.804 106.027 448.048C105.28 447.292 104.907 446.349 104.907 445.22C104.907 444.081 105.28 443.139 106.027 442.392C106.783 441.636 107.726 441.258 108.855 441.258C109.966 441.258 110.885 441.631 111.613 442.378L111.795 441.44ZM107.189 446.998C107.665 447.465 108.258 447.698 108.967 447.698C109.686 447.698 110.274 447.465 110.731 446.998C111.198 446.522 111.431 445.929 111.431 445.22C111.431 444.501 111.198 443.909 110.731 443.442C110.274 442.975 109.686 442.742 108.967 442.742C108.5 442.742 108.076 442.849 107.693 443.064C107.32 443.279 107.026 443.577 106.811 443.96C106.596 444.333 106.489 444.753 106.489 445.22C106.489 445.929 106.722 446.522 107.189 446.998ZM121.907 441.51V442.798H119.779V449H118.225V442.798H116.811V441.51H118.225V440.866C118.225 439.27 119.027 438.472 120.633 438.472H121.893V439.718H120.941C120.511 439.718 120.199 439.811 120.003 439.998C119.816 440.185 119.723 440.488 119.723 440.908V441.51H121.907ZM128.791 441.44H129.995V449H128.735L128.581 448.076C127.853 448.813 126.943 449.182 125.851 449.182C124.722 449.182 123.779 448.804 123.023 448.048C122.276 447.292 121.903 446.349 121.903 445.22C121.903 444.081 122.276 443.139 123.023 442.392C123.779 441.636 124.722 441.258 125.851 441.258C126.962 441.258 127.881 441.631 128.609 442.378L128.791 441.44ZM124.185 446.998C124.661 447.465 125.254 447.698 125.963 447.698C126.682 447.698 127.27 447.465 127.727 446.998C128.194 446.522 128.427 445.929 128.427 445.22C128.427 444.501 128.194 443.909 127.727 443.442C127.27 442.975 126.682 442.742 125.963 442.742C125.496 442.742 125.072 442.849 124.689 443.064C124.316 443.279 124.022 443.577 123.807 443.96C123.592 444.333 123.485 444.753 123.485 445.22C123.485 445.929 123.718 446.522 124.185 446.998ZM140.107 441.272C140.9 441.272 141.544 441.543 142.039 442.084C142.534 442.625 142.781 443.33 142.781 444.198V449H141.227V444.576C141.227 444.175 141.166 443.829 141.045 443.54C140.933 443.251 140.765 443.031 140.541 442.882C140.326 442.733 140.065 442.658 139.757 442.658C139.244 442.658 138.819 442.868 138.483 443.288C138.147 443.699 137.979 444.226 137.979 444.87V449H136.453V444.576C136.453 443.96 136.327 443.489 136.075 443.162C135.823 442.826 135.459 442.658 134.983 442.658C134.479 442.658 134.054 442.868 133.709 443.288C133.373 443.699 133.205 444.226 133.205 444.87V449H131.651V441.44H132.757L133.023 442.42C133.312 442.056 133.662 441.776 134.073 441.58C134.484 441.375 134.918 441.272 135.375 441.272C135.879 441.272 136.327 441.389 136.719 441.622C137.111 441.855 137.419 442.177 137.643 442.588C137.914 442.177 138.268 441.855 138.707 441.622C139.146 441.389 139.612 441.272 140.107 441.272ZM144.297 440.264V438.668H145.907V440.264H144.297ZM144.325 449V441.44H145.879V449H144.325ZM147.525 449V438.724H149.079V449H147.525ZM150.697 440.264V438.668H152.307V440.264H150.697ZM150.725 449V441.44H152.279V449H150.725ZM160.253 441.44H161.457V449H160.197L160.043 448.076C159.315 448.813 158.405 449.182 157.313 449.182C156.183 449.182 155.241 448.804 154.485 448.048C153.738 447.292 153.365 446.349 153.365 445.22C153.365 444.081 153.738 443.139 154.485 442.392C155.241 441.636 156.183 441.258 157.313 441.258C158.423 441.258 159.343 441.631 160.071 442.378L160.253 441.44ZM155.647 446.998C156.123 447.465 156.715 447.698 157.425 447.698C158.143 447.698 158.731 447.465 159.189 446.998C159.655 446.522 159.889 445.929 159.889 445.22C159.889 444.501 159.655 443.909 159.189 443.442C158.731 442.975 158.143 442.742 157.425 442.742C156.958 442.742 156.533 442.849 156.151 443.064C155.777 443.279 155.483 443.577 155.269 443.96C155.054 444.333 154.947 444.753 154.947 445.22C154.947 445.929 155.18 446.522 155.647 446.998ZM166.739 441.398H167.411V442.868H166.599C165.311 442.868 164.667 443.568 164.667 444.968V449H163.113V441.44H164.163L164.429 442.476C164.97 441.757 165.74 441.398 166.739 441.398ZM179.103 441.272C179.896 441.272 180.54 441.543 181.035 442.084C181.53 442.625 181.777 443.33 181.777 444.198V449H180.223V444.576C180.223 444.175 180.162 443.829 180.041 443.54C179.929 443.251 179.761 443.031 179.537 442.882C179.322 442.733 179.061 442.658 178.753 442.658C178.24 442.658 177.815 442.868 177.479 443.288C177.143 443.699 176.975 444.226 176.975 444.87V449H175.449V444.576C175.449 443.96 175.323 443.489 175.071 443.162C174.819 442.826 174.455 442.658 173.979 442.658C173.475 442.658 173.05 442.868 172.705 443.288C172.369 443.699 172.201 444.226 172.201 444.87V449H170.647V441.44H171.753L172.019 442.42C172.308 442.056 172.658 441.776 173.069 441.58C173.48 441.375 173.914 441.272 174.371 441.272C174.875 441.272 175.323 441.389 175.715 441.622C176.107 441.855 176.415 442.177 176.639 442.588C176.91 442.177 177.264 441.855 177.703 441.622C178.142 441.389 178.608 441.272 179.103 441.272ZM190.503 445.234C190.503 445.374 190.494 445.547 190.475 445.752H184.343C184.437 446.359 184.689 446.839 185.099 447.194C185.519 447.549 186.037 447.726 186.653 447.726C186.952 447.726 187.232 447.684 187.493 447.6C187.755 447.507 187.983 447.381 188.179 447.222C188.385 447.054 188.553 446.853 188.683 446.62H190.321C190.023 447.423 189.547 448.053 188.893 448.51C188.24 448.958 187.493 449.182 186.653 449.182C185.543 449.182 184.614 448.804 183.867 448.048C183.13 447.292 182.761 446.349 182.761 445.22C182.761 444.091 183.13 443.148 183.867 442.392C184.614 441.636 185.543 441.258 186.653 441.258C187.409 441.258 188.081 441.44 188.669 441.804C189.257 442.159 189.71 442.639 190.027 443.246C190.345 443.843 190.503 444.506 190.503 445.234ZM186.653 442.658C186.075 442.658 185.58 442.821 185.169 443.148C184.768 443.475 184.502 443.923 184.371 444.492H188.949C188.856 444.109 188.702 443.783 188.487 443.512C188.273 443.232 188.007 443.022 187.689 442.882C187.381 442.733 187.036 442.658 186.653 442.658ZM194.113 449.182C193.189 449.182 192.447 448.949 191.887 448.482C191.327 448.015 191.038 447.39 191.019 446.606H192.545C192.564 446.989 192.718 447.287 193.007 447.502C193.306 447.707 193.693 447.81 194.169 447.81C194.449 447.81 194.697 447.773 194.911 447.698C195.135 447.623 195.313 447.511 195.443 447.362C195.574 447.213 195.639 447.035 195.639 446.83C195.639 446.69 195.607 446.569 195.541 446.466C195.476 446.354 195.397 446.265 195.303 446.2C195.21 446.135 195.075 446.074 194.897 446.018C194.729 445.962 194.575 445.92 194.435 445.892C194.305 445.864 194.127 445.831 193.903 445.794C193.67 445.757 193.483 445.724 193.343 445.696C193.203 445.668 193.026 445.626 192.811 445.57C192.597 445.505 192.419 445.439 192.279 445.374C192.149 445.299 192.004 445.206 191.845 445.094C191.687 444.982 191.561 444.856 191.467 444.716C191.383 444.576 191.309 444.408 191.243 444.212C191.187 444.007 191.159 443.783 191.159 443.54C191.159 442.859 191.425 442.308 191.957 441.888C192.499 441.468 193.208 441.258 194.085 441.258C194.963 441.258 195.667 441.477 196.199 441.916C196.731 442.355 197.002 442.943 197.011 443.68H195.541C195.532 443.325 195.397 443.055 195.135 442.868C194.874 442.672 194.515 442.574 194.057 442.574C193.628 442.574 193.287 442.658 193.035 442.826C192.783 442.994 192.657 443.213 192.657 443.484C192.657 443.596 192.676 443.694 192.713 443.778C192.751 443.862 192.811 443.937 192.895 444.002C192.989 444.067 193.073 444.123 193.147 444.17C193.231 444.207 193.353 444.245 193.511 444.282C193.67 444.319 193.801 444.347 193.903 444.366C194.006 444.385 194.155 444.408 194.351 444.436C194.603 444.483 194.79 444.52 194.911 444.548C195.042 444.567 195.224 444.609 195.457 444.674C195.691 444.73 195.873 444.791 196.003 444.856C196.134 444.921 196.283 445.015 196.451 445.136C196.629 445.248 196.759 445.379 196.843 445.528C196.937 445.668 197.016 445.845 197.081 446.06C197.147 446.275 197.179 446.508 197.179 446.76C197.179 447.497 196.899 448.085 196.339 448.524C195.779 448.963 195.037 449.182 194.113 449.182ZM200.799 449.182C199.875 449.182 199.133 448.949 198.573 448.482C198.013 448.015 197.724 447.39 197.705 446.606H199.231C199.25 446.989 199.404 447.287 199.693 447.502C199.992 447.707 200.379 447.81 200.855 447.81C201.135 447.81 201.383 447.773 201.597 447.698C201.821 447.623 201.999 447.511 202.129 447.362C202.26 447.213 202.325 447.035 202.325 446.83C202.325 446.69 202.293 446.569 202.227 446.466C202.162 446.354 202.083 446.265 201.989 446.2C201.896 446.135 201.761 446.074 201.583 446.018C201.415 445.962 201.261 445.92 201.121 445.892C200.991 445.864 200.813 445.831 200.589 445.794C200.356 445.757 200.169 445.724 200.029 445.696C199.889 445.668 199.712 445.626 199.497 445.57C199.283 445.505 199.105 445.439 198.965 445.374C198.835 445.299 198.69 445.206 198.531 445.094C198.373 444.982 198.247 444.856 198.153 444.716C198.069 444.576 197.995 444.408 197.929 444.212C197.873 444.007 197.845 443.783 197.845 443.54C197.845 442.859 198.111 442.308 198.643 441.888C199.185 441.468 199.894 441.258 200.771 441.258C201.649 441.258 202.353 441.477 202.885 441.916C203.417 442.355 203.688 442.943 203.697 443.68H202.227C202.218 443.325 202.083 443.055 201.821 442.868C201.56 442.672 201.201 442.574 200.743 442.574C200.314 442.574 199.973 442.658 199.721 442.826C199.469 442.994 199.343 443.213 199.343 443.484C199.343 443.596 199.362 443.694 199.399 443.778C199.437 443.862 199.497 443.937 199.581 444.002C199.675 444.067 199.759 444.123 199.833 444.17C199.917 444.207 200.039 444.245 200.197 444.282C200.356 444.319 200.487 444.347 200.589 444.366C200.692 444.385 200.841 444.408 201.037 444.436C201.289 444.483 201.476 444.52 201.597 444.548C201.728 444.567 201.91 444.609 202.143 444.674C202.377 444.73 202.559 444.791 202.689 444.856C202.82 444.921 202.969 445.015 203.137 445.136C203.315 445.248 203.445 445.379 203.529 445.528C203.623 445.668 203.702 445.845 203.767 446.06C203.833 446.275 203.865 446.508 203.865 446.76C203.865 447.497 203.585 448.085 203.025 448.524C202.465 448.963 201.723 449.182 200.799 449.182ZM212.148 445.234C212.148 445.374 212.138 445.547 212.12 445.752H205.988C206.081 446.359 206.333 446.839 206.744 447.194C207.164 447.549 207.682 447.726 208.298 447.726C208.596 447.726 208.876 447.684 209.138 447.6C209.399 447.507 209.628 447.381 209.824 447.222C210.029 447.054 210.197 446.853 210.328 446.62H211.966C211.667 447.423 211.191 448.053 210.538 448.51C209.884 448.958 209.138 449.182 208.298 449.182C207.187 449.182 206.258 448.804 205.512 448.048C204.774 447.292 204.406 446.349 204.406 445.22C204.406 444.091 204.774 443.148 205.512 442.392C206.258 441.636 207.187 441.258 208.298 441.258C209.054 441.258 209.726 441.44 210.314 441.804C210.902 442.159 211.354 442.639 211.672 443.246C211.989 443.843 212.148 444.506 212.148 445.234ZM208.298 442.658C207.719 442.658 207.224 442.821 206.814 443.148C206.412 443.475 206.146 443.923 206.016 444.492H210.594C210.5 444.109 210.346 443.783 210.132 443.512C209.917 443.232 209.651 443.022 209.334 442.882C209.026 442.733 208.68 442.658 208.298 442.658ZM217.242 441.272C218.119 441.272 218.814 441.566 219.328 442.154C219.85 442.742 220.112 443.507 220.112 444.45V449H218.558V444.758C218.558 444.077 218.408 443.559 218.11 443.204C217.82 442.84 217.391 442.658 216.822 442.658C216.234 442.658 215.748 442.873 215.366 443.302C214.983 443.731 214.792 444.282 214.792 444.954V449H213.238V441.44H214.316L214.624 442.49C214.913 442.107 215.282 441.809 215.73 441.594C216.187 441.379 216.691 441.272 217.242 441.272ZM227.848 441.44H228.87V448.006C228.87 448.809 228.716 449.499 228.408 450.078C228.109 450.666 227.675 451.114 227.106 451.422C226.537 451.739 225.865 451.898 225.09 451.898C224.129 451.898 223.321 451.66 222.668 451.184C222.015 450.717 221.59 450.064 221.394 449.224H222.948C223.088 449.635 223.354 449.952 223.746 450.176C224.147 450.4 224.591 450.512 225.076 450.512C225.748 450.512 226.294 450.307 226.714 449.896C227.134 449.485 227.344 448.925 227.344 448.216V447.88C226.644 448.477 225.809 448.776 224.838 448.776C223.793 448.776 222.906 448.417 222.178 447.698C221.459 446.97 221.1 446.079 221.1 445.024C221.1 443.969 221.459 443.078 222.178 442.35C222.906 441.622 223.793 441.258 224.838 441.258C225.949 441.258 226.868 441.645 227.596 442.42L227.848 441.44ZM225.02 447.334C225.347 447.334 225.655 447.278 225.944 447.166C226.233 447.045 226.481 446.886 226.686 446.69C226.891 446.485 227.05 446.237 227.162 445.948C227.283 445.659 227.344 445.351 227.344 445.024C227.344 444.352 227.125 443.797 226.686 443.358C226.247 442.919 225.692 442.7 225.02 442.7C224.348 442.7 223.788 442.924 223.34 443.372C222.901 443.811 222.682 444.361 222.682 445.024C222.682 445.687 222.901 446.237 223.34 446.676C223.788 447.115 224.348 447.334 225.02 447.334ZM237.702 445.234C237.702 445.374 237.693 445.547 237.674 445.752H231.542C231.635 446.359 231.887 446.839 232.298 447.194C232.718 447.549 233.236 447.726 233.852 447.726C234.151 447.726 234.431 447.684 234.692 447.6C234.953 447.507 235.182 447.381 235.378 447.222C235.583 447.054 235.751 446.853 235.882 446.62H237.52C237.221 447.423 236.745 448.053 236.092 448.51C235.439 448.958 234.692 449.182 233.852 449.182C232.741 449.182 231.813 448.804 231.066 448.048C230.329 447.292 229.96 446.349 229.96 445.22C229.96 444.091 230.329 443.148 231.066 442.392C231.813 441.636 232.741 441.258 233.852 441.258C234.608 441.258 235.28 441.44 235.868 441.804C236.456 442.159 236.909 442.639 237.226 443.246C237.543 443.843 237.702 444.506 237.702 445.234ZM233.852 442.658C233.273 442.658 232.779 442.821 232.368 443.148C231.967 443.475 231.701 443.923 231.57 444.492H236.148C236.055 444.109 235.901 443.783 235.686 443.512C235.471 443.232 235.205 443.022 234.888 442.882C234.58 442.733 234.235 442.658 233.852 442.658ZM242.418 441.398H243.09V442.868H242.278C240.99 442.868 240.346 443.568 240.346 444.968V449H238.792V441.44H239.842L240.108 442.476C240.649 441.757 241.419 441.398 242.418 441.398Z" fill="#2A1B00"/>
<defs>
<linearGradient id="paint0_linear_985_4914" x1="0" y1="300" x2="121.965" y2="579.733" gradientUnits="userSpaceOnUse">
<stop stop-color="white"/>
<stop offset="1" stop-color="white" stop-opacity="0.8"/>
</linearGradient>
</defs>
</svg>
