<svg width="331" height="479" viewBox="0 0 331 479" fill="none" xmlns="http://www.w3.org/2000/svg">
<mask id="path-1-inside-1_609_2033" fill="white">
<path d="M330 447C330 464.673 315.673 479 298 479H32C14.3269 479 0 464.673 0 447V332C0 314.327 14.3269 300 32 300H298C315.673 300 330 314.327 330 332V447Z"/>
</mask>
<path d="M330 447C330 464.673 315.673 479 298 479H32C14.3269 479 0 464.673 0 447V332C0 314.327 14.3269 300 32 300H298C315.673 300 330 314.327 330 332V447Z" fill="url(#paint0_linear_609_2033)"/>
<path d="M298 479V477H32V479V481H298V479ZM0 447H2V332H0H-2V447H0ZM32 300V302H298V300V298H32V300ZM330 332H328V447H330H332V332H330ZM298 300V302C314.569 302 328 315.431 328 332H330H332C332 313.222 316.778 298 298 298V300ZM0 332H2C2 315.431 15.4315 302 32 302V300V298C13.2223 298 -2 313.222 -2 332H0ZM32 479V477C15.4315 477 2 463.569 2 447H0H-2C-2 465.778 13.2223 481 32 481V479ZM298 479V481C316.778 481 332 465.778 332 447H330H328C328 463.569 314.569 477 298 477V479Z" fill="white" mask="url(#path-1-inside-1_609_2033)"/>
<rect opacity="0.1" width="330.305" height="26.5544" rx="13.2772" fill="white"/>
<rect opacity="0.2" y="31.5544" width="330.305" height="26.5544" rx="13.2772" fill="white"/>
<rect opacity="0.3" y="63.1086" width="330.305" height="26.5544" rx="13.2772" fill="white"/>
<rect opacity="0.4" y="94.6631" width="330.305" height="26.5544" rx="13.2772" fill="white"/>
<rect opacity="0.4" y="126.218" width="330.305" height="26.5544" rx="13.2772" fill="white"/>
<rect opacity="0.5" y="157.772" width="330.305" height="26.5544" rx="13.2772" fill="white"/>
<rect opacity="0.6" y="189.326" width="330.305" height="26.5544" rx="13.2772" fill="white"/>
<rect opacity="0.7" y="220.881" width="330.305" height="26.5544" rx="13.2772" fill="white"/>
<rect opacity="0.8" y="252.435" width="330.305" height="40" rx="20" fill="white"/>
<path d="M69.7135 348C69.7882 347.533 69.8908 347.001 70.0215 346.404C70.1335 345.788 70.2642 345.116 70.4135 344.388C70.6562 343.044 70.8988 341.747 71.1415 340.496C71.3842 339.245 71.5802 338.191 71.7295 337.332C72.2148 334.588 72.7935 331.023 73.4655 326.636H83.4335C85.3562 326.636 86.9055 326.757 88.0815 327C89.2762 327.224 90.1815 327.709 90.7975 328.456C91.4135 329.184 91.6002 330.285 91.3575 331.76C91.1522 332.88 90.7788 333.785 90.2375 334.476C89.6962 335.148 88.8468 335.68 87.6895 336.072C86.5508 336.445 84.9642 336.679 82.9295 336.772L82.8455 337.192C84.9362 337.285 86.5228 337.509 87.6055 337.864C88.6882 338.219 89.4068 338.741 89.7615 339.432C90.1162 340.104 90.1908 341.009 89.9855 342.148C89.7055 343.735 89.1362 344.957 88.2775 345.816C87.4375 346.656 86.3548 347.235 85.0295 347.552C83.7228 347.851 82.0895 348 80.1295 348H69.7135ZM79.8775 343.184C80.4935 343.184 81.0255 343.119 81.4735 342.988C81.9402 342.839 82.3228 342.596 82.6215 342.26C82.9388 341.905 83.1535 341.429 83.2655 340.832C83.3962 339.955 83.2095 339.357 82.7055 339.04C82.2202 338.704 81.5015 338.536 80.5495 338.536H78.1975L77.3575 343.184H79.8775ZM81.1095 335.484C81.8562 335.484 82.4815 335.307 82.9855 334.952C83.5082 334.597 83.8348 334.009 83.9655 333.188C84.0775 332.609 84.0495 332.161 83.8815 331.844C83.7322 331.508 83.4802 331.275 83.1255 331.144C82.7708 331.013 82.3415 330.948 81.8375 330.948H79.5415L78.7295 335.484H81.1095ZM99.9476 348.392C97.6516 348.392 95.8596 348 94.5716 347.216C93.3022 346.432 92.4716 345.237 92.0796 343.632C91.7062 342.008 91.7436 339.899 92.1916 337.304C92.6582 334.747 93.3582 332.665 94.2916 331.06C95.2436 329.436 96.4942 328.232 98.0436 327.448C99.5929 326.664 101.525 326.272 103.84 326.272C106.136 326.272 107.909 326.636 109.16 327.364C110.429 328.073 111.241 329.1 111.596 330.444C111.969 331.788 111.997 333.459 111.68 335.456L104.708 336.156C104.894 335.017 104.932 334.084 104.82 333.356C104.726 332.628 104.456 332.087 104.008 331.732C103.56 331.359 102.897 331.172 102.02 331.172C101.777 331.172 101.534 331.2 101.292 331.256C101.068 331.312 100.844 331.396 100.62 331.508C100.284 332.423 99.9756 333.431 99.6956 334.532C99.4156 335.633 99.1822 336.772 98.9956 337.948C98.7716 339.255 98.6969 340.309 98.7716 341.112C98.8649 341.896 99.1449 342.493 99.6116 342.904C100.078 343.315 100.778 343.52 101.712 343.52C101.973 343.52 102.216 343.492 102.44 343.436C102.664 343.38 102.878 343.305 103.084 343.212C103.345 342.335 103.541 341.765 103.672 341.504C103.802 341.187 103.942 340.571 104.092 339.656H110.952C110.373 342.531 109.197 344.705 107.424 346.18C105.669 347.655 103.177 348.392 99.9476 348.392ZM111.522 348C111.746 346.955 112.063 345.349 112.474 343.184C112.885 341.019 113.249 339.068 113.566 337.332C113.865 335.652 114.173 333.795 114.49 331.76C114.826 329.725 115.087 328.017 115.274 326.636H131.626L130.758 331.648H121.294L120.622 335.764L129.358 335.568L128.742 339.04L120.034 338.816L119.278 342.988H128.826L127.958 348H111.522ZM127.342 324.816C126.278 324.816 125.541 324.648 125.13 324.312C124.738 323.976 124.607 323.463 124.738 322.772C124.85 322.063 125.167 321.549 125.69 321.232C126.213 320.915 126.997 320.756 128.042 320.756C129.087 320.756 129.815 320.915 130.226 321.232C130.637 321.549 130.777 322.063 130.646 322.772C130.515 323.463 130.189 323.976 129.666 324.312C129.143 324.648 128.369 324.816 127.342 324.816ZM120.118 324.816C119.054 324.816 118.317 324.648 117.906 324.312C117.514 323.976 117.383 323.463 117.514 322.772C117.626 322.063 117.943 321.549 118.466 321.232C118.989 320.915 119.773 320.756 120.818 320.756C121.863 320.756 122.591 320.915 123.002 321.232C123.413 321.549 123.553 322.063 123.422 322.772C123.291 323.463 122.965 323.976 122.442 324.312C121.919 324.648 121.145 324.816 120.118 324.816ZM136.323 348C136.398 347.533 136.5 347.001 136.631 346.404C136.743 345.788 136.874 345.116 137.023 344.388C137.266 343.044 137.508 341.747 137.751 340.496C137.994 339.245 138.19 338.191 138.339 337.332C138.824 334.588 139.403 331.023 140.075 326.636H150.043C151.966 326.636 153.515 326.757 154.691 327C155.886 327.224 156.791 327.709 157.407 328.456C158.023 329.184 158.21 330.285 157.967 331.76C157.762 332.88 157.388 333.785 156.847 334.476C156.306 335.148 155.456 335.68 154.299 336.072C153.16 336.445 151.574 336.679 149.539 336.772L149.455 337.192C151.546 337.285 153.132 337.509 154.215 337.864C155.298 338.219 156.016 338.741 156.371 339.432C156.726 340.104 156.8 341.009 156.595 342.148C156.315 343.735 155.746 344.957 154.887 345.816C154.047 346.656 152.964 347.235 151.639 347.552C150.332 347.851 148.699 348 146.739 348H136.323ZM146.487 343.184C147.103 343.184 147.635 343.119 148.083 342.988C148.55 342.839 148.932 342.596 149.231 342.26C149.548 341.905 149.763 341.429 149.875 340.832C150.006 339.955 149.819 339.357 149.315 339.04C148.83 338.704 148.111 338.536 147.159 338.536H144.807L143.967 343.184H146.487ZM147.719 335.484C148.466 335.484 149.091 335.307 149.595 334.952C150.118 334.597 150.444 334.009 150.575 333.188C150.687 332.609 150.659 332.161 150.491 331.844C150.342 331.508 150.09 331.275 149.735 331.144C149.38 331.013 148.951 330.948 148.447 330.948H146.151L145.339 335.484H147.719ZM180.221 326.636C179.941 328.017 179.465 330.584 178.793 334.336L178.261 337.332C177.309 342.727 176.712 346.283 176.469 348H169.553C170.02 345.723 170.561 342.867 171.177 339.432H165.941C165.344 342.867 164.858 345.723 164.485 348H157.569C158.428 343.613 159.1 340.057 159.585 337.332C159.996 335.111 160.472 332.189 161.013 328.568C161.069 328.251 161.125 327.933 161.181 327.616C161.237 327.28 161.284 326.953 161.321 326.636H168.237C167.565 330.22 167.07 333.001 166.753 334.98H171.989C172.568 331.527 173.006 328.745 173.305 326.636H180.221ZM182.504 343.016H187.656L189.7 338.536H188.272L189.532 337.864C188.786 339.003 188.02 339.777 187.236 340.188C186.471 340.599 185.612 340.804 184.66 340.804C183.914 340.804 183.298 340.552 182.812 340.048C182.327 339.544 182.038 338.788 181.944 337.78C181.888 336.865 181.832 335.988 181.776 335.148C181.739 334.289 181.692 333.449 181.636 332.628C181.599 331.676 181.552 330.705 181.496 329.716C181.44 328.727 181.384 327.7 181.328 326.636H188.552L189 337.78H189.532L194.124 326.636H201.404L194.936 342.932C194.339 344.631 193.443 345.9 192.248 346.74C191.072 347.58 189.728 348 188.216 348H180.628L182.504 343.016ZM202.333 348C203.173 343.688 203.826 340.225 204.293 337.612C204.909 334.065 205.235 332.133 205.273 331.816C204.881 331.797 204.461 331.797 204.013 331.816C203.565 331.816 203.098 331.825 202.613 331.844C202.165 331.863 201.726 331.881 201.297 331.9C200.867 331.9 200.457 331.9 200.065 331.9L200.989 326.636H218.265L217.341 331.9C215.735 331.9 213.999 331.872 212.133 331.816C211.983 332.693 211.787 333.795 211.545 335.12C211.302 336.427 211.106 337.463 210.957 338.228C210.453 341.047 209.911 344.304 209.333 348H202.333ZM215.592 348L216.544 342.764C216.824 341.252 217.151 339.432 217.524 337.304C217.73 336.128 217.935 334.952 218.14 333.776C218.346 332.581 218.551 331.415 218.756 330.276C218.906 329.231 219.102 328.017 219.344 326.636H229.732C231.58 326.636 233.092 326.897 234.268 327.42C235.444 327.943 236.275 328.792 236.76 329.968C237.246 331.144 237.32 332.703 236.984 334.644C236.63 336.641 236.116 338.256 235.444 339.488C234.772 340.72 233.886 341.625 232.784 342.204C231.702 342.764 230.348 343.044 228.724 343.044C227.94 343.044 227.324 343.016 226.876 342.96C226.428 342.904 226.046 342.801 225.728 342.652C225.168 342.447 224.767 342.111 224.524 341.644C224.282 341.177 224.104 340.58 223.992 339.852C223.974 339.815 223.964 339.777 223.964 339.74C223.964 339.684 223.964 339.647 223.964 339.628L223.6 339.712C223.619 340.235 223.61 340.711 223.572 341.14C223.554 341.551 223.507 341.98 223.432 342.428C223.264 343.38 223.087 344.388 222.9 345.452C222.732 346.516 222.611 347.365 222.536 348H215.592ZM226.26 338.816C227.194 338.816 227.968 338.527 228.584 337.948C229.219 337.351 229.658 336.361 229.9 334.98C230.143 333.58 230.04 332.619 229.592 332.096C229.163 331.555 228.472 331.284 227.52 331.284H225.392C224.683 335.111 224.235 337.621 224.048 338.816H226.26ZM250.704 348C251.581 343.483 252.272 339.74 252.776 336.772C252.832 336.436 252.925 335.932 253.056 335.26C253.186 334.569 253.317 333.888 253.448 333.216C253.522 332.805 253.569 332.572 253.588 332.516H253.168C252.925 333.225 252.58 334.131 252.132 335.232C251.926 335.736 251.702 336.249 251.46 336.772C251.236 337.295 251.002 337.808 250.76 338.312L245.748 348H236.62C236.937 346.301 237.217 344.799 237.46 343.492C237.665 342.409 237.861 341.345 238.048 340.3C238.253 339.236 238.44 338.2 238.608 337.192C239.074 334.635 239.429 332.572 239.672 331.004C240.026 328.857 240.26 327.401 240.372 326.636H246.7L245.86 331.06C245.15 334.924 244.684 337.463 244.46 338.676C244.404 339.012 244.338 339.357 244.264 339.712C244.189 340.048 244.124 340.403 244.068 340.776C243.956 341.392 243.872 341.812 243.816 342.036H244.208C244.32 341.756 244.441 341.457 244.572 341.14C244.702 340.804 244.833 340.459 244.964 340.104C245.262 339.451 245.57 338.751 245.888 338.004L251.684 326.636H260.812L259.888 331.424C259.72 332.283 259.561 333.123 259.412 333.944C259.262 334.747 259.113 335.531 258.964 336.296C258.516 338.853 258.18 340.851 257.956 342.288C257.564 344.64 257.256 346.544 257.032 348H250.704ZM86.901 377C87.741 372.688 88.3943 369.225 88.861 366.612C89.477 363.065 89.8037 361.133 89.841 360.816C89.449 360.797 89.029 360.797 88.581 360.816C88.133 360.816 87.6663 360.825 87.181 360.844C86.733 360.863 86.2943 360.881 85.865 360.9C85.4357 360.9 85.025 360.9 84.633 360.9L85.557 355.636H102.833L101.909 360.9C100.304 360.9 98.5677 360.872 96.701 360.816C96.5517 361.693 96.3557 362.795 96.113 364.12C95.8703 365.427 95.6743 366.463 95.525 367.228C95.021 370.047 94.4797 373.304 93.901 377H86.901ZM100.161 377C100.385 375.955 100.702 374.349 101.113 372.184C101.523 370.019 101.887 368.068 102.205 366.332C102.503 364.652 102.811 362.795 103.129 360.76C103.465 358.725 103.726 357.017 103.913 355.636H120.265L119.397 360.648H109.933L109.261 364.764L117.997 364.568L117.381 368.04L108.673 367.816L107.917 371.988H117.465L116.597 377H100.161ZM118.59 377C119.262 373.584 119.925 370.028 120.578 366.332C120.896 364.652 121.316 362.188 121.838 358.94L122.342 355.636H129.398C128.745 358.959 128.138 362.244 127.578 365.492C127.13 367.993 126.776 370.056 126.514 371.68C129.296 371.68 131.778 371.661 133.962 371.624L132.562 377H118.59ZM135.024 377C135.248 375.955 135.565 374.349 135.976 372.184C136.387 370.019 136.751 368.068 137.068 366.332C137.367 364.652 137.675 362.795 137.992 360.76C138.328 358.725 138.589 357.017 138.776 355.636H155.128L154.26 360.648H144.796L144.124 364.764L152.86 364.568L152.244 368.04L143.536 367.816L142.78 371.988H152.328L151.46 377H135.024ZM160.706 377.392C158.932 377.392 157.523 376.972 156.478 376.132C155.451 375.273 154.788 374.023 154.49 372.38C154.21 370.719 154.275 368.693 154.686 366.304C155.152 363.747 155.852 361.665 156.786 360.06C157.738 358.436 158.979 357.232 160.51 356.448C162.04 355.664 163.935 355.272 166.194 355.272C168.602 355.272 170.422 355.589 171.654 356.224C172.904 356.84 173.707 357.82 174.062 359.164C174.435 360.508 174.463 362.347 174.146 364.68L167.202 365.38C167.706 361.945 167.034 360.228 165.186 360.228C164.812 360.228 164.458 360.256 164.122 360.312C163.786 360.368 163.459 360.452 163.142 360.564C162.787 361.311 162.479 362.113 162.218 362.972C161.956 363.831 161.723 364.848 161.518 366.024C161.312 367.275 161.228 368.385 161.266 369.356C161.322 370.308 161.536 371.073 161.91 371.652C162.302 372.231 162.862 372.52 163.59 372.52C163.944 372.52 164.28 372.501 164.598 372.464C164.934 372.408 165.251 372.333 165.55 372.24C165.755 372.165 165.96 372.063 166.166 371.932C166.371 371.783 166.558 371.643 166.726 371.512C166.912 371.363 167.08 371.241 167.23 371.148C167.36 370.401 167.314 369.832 167.09 369.44C166.884 369.048 166.464 368.796 165.83 368.684H164.066L164.206 367.9H174.37C174.239 368.516 174.127 369.104 174.034 369.664C173.94 370.224 173.847 370.756 173.754 371.26C173.567 372.268 173.24 374.181 172.774 377H166.138L167.118 372.24H166.698C166.212 373.957 165.447 375.245 164.402 376.104C163.375 376.963 162.143 377.392 160.706 377.392ZM174.727 377C174.82 376.533 174.923 376.057 175.035 375.572C175.128 375.087 175.222 374.592 175.315 374.088C175.558 372.763 175.8 371.447 176.043 370.14C176.304 368.833 176.538 367.564 176.743 366.332C177.098 364.409 177.508 361.964 177.975 358.996C178.068 358.417 178.152 357.848 178.227 357.288C178.32 356.728 178.404 356.177 178.479 355.636H188.755C190.566 355.636 192.068 355.767 193.263 356.028C194.476 356.289 195.4 356.84 196.035 357.68C196.67 358.52 196.838 359.752 196.539 361.376C196.296 362.832 195.858 363.98 195.223 364.82C194.607 365.66 193.776 366.267 192.731 366.64C191.686 366.995 190.351 367.181 188.727 367.2L188.615 367.732C190.948 367.769 192.572 368.124 193.487 368.796C194.402 369.449 194.775 370.513 194.607 371.988C194.551 372.567 194.523 373.416 194.523 374.536C194.523 375.656 194.56 376.477 194.635 377H187.187C187.206 376.739 187.224 376.216 187.243 375.432C187.318 374.032 187.42 372.94 187.551 372.156C187.607 371.409 187.579 370.859 187.467 370.504C187.374 370.149 187.187 369.907 186.907 369.776C186.646 369.627 186.226 369.552 185.647 369.552H182.987C182.95 369.664 182.698 370.971 182.231 373.472L181.643 377H174.727ZM185.815 365.744C186.73 365.744 187.467 365.529 188.027 365.1C188.606 364.652 188.97 363.943 189.119 362.972C189.25 362.263 189.231 361.712 189.063 361.32C188.914 360.928 188.643 360.657 188.251 360.508C187.878 360.359 187.392 360.284 186.795 360.284H184.527L183.575 365.744H185.815ZM195.145 377C195.612 375.693 196.741 372.669 198.533 367.928C199.392 365.819 200.204 363.784 200.969 361.824C201.753 359.864 202.556 357.801 203.377 355.636H215.249C215.324 362.487 215.594 369.608 216.061 377H208.837C208.856 375.675 208.837 373.379 208.781 370.112C208.744 367.835 208.744 365.707 208.781 363.728C208.818 361.749 208.884 359.799 208.977 357.876H208.697C207.577 361.068 206.41 364.577 205.197 368.404C204.693 369.636 203.694 372.501 202.201 377H195.145ZM204.553 369.16H209.257L209.229 372.856C208.93 372.856 208.632 372.856 208.333 372.856C208.034 372.856 207.726 372.856 207.409 372.856H206.205C205.664 372.856 205.141 372.856 204.637 372.856C204.133 372.856 203.629 372.856 203.125 372.856L204.553 369.16ZM217.137 377C217.473 375.376 217.791 373.733 218.089 372.072C218.407 370.411 218.724 368.731 219.041 367.032C219.452 364.829 219.816 362.86 220.133 361.124C220.208 360.601 220.404 359.416 220.721 357.568C220.777 357.176 220.833 356.812 220.889 356.476C220.945 356.14 220.992 355.86 221.029 355.636H230.997L231.081 370.672H231.641L236.849 355.636H246.845L246.509 357.428C246.099 359.724 245.875 360.956 245.837 361.124C244.773 367.657 243.98 372.949 243.457 377H237.185C237.409 375.675 237.68 374.041 237.997 372.1C238.091 371.447 238.193 370.784 238.305 370.112C238.417 369.421 238.529 368.74 238.641 368.068C239.22 364.521 239.593 362.197 239.761 361.096H239.369L233.433 377H227.105L226.601 361.096H226.209C226.097 361.675 225.985 362.281 225.873 362.916C225.761 363.532 225.64 364.167 225.509 364.82C225.397 365.492 225.201 366.584 224.921 368.096C224.847 368.563 224.763 369.029 224.669 369.496C224.595 369.963 224.511 370.429 224.417 370.896C224.081 372.688 223.727 374.723 223.353 377H217.137Z" fill="#2A1B00"/>
<path d="M65.3391 401.2H66.9491V411H65.3391V406.73H60.8591V411H59.2491V401.2H60.8591V405.204H65.3391V401.2ZM75.8073 407.234C75.8073 407.374 75.7979 407.547 75.7793 407.752H69.6473C69.7406 408.359 69.9926 408.839 70.4033 409.194C70.8233 409.549 71.3413 409.726 71.9573 409.726C72.2559 409.726 72.5359 409.684 72.7973 409.6C73.0586 409.507 73.2873 409.381 73.4833 409.222C73.6886 409.054 73.8566 408.853 73.9873 408.62H75.6253C75.3266 409.423 74.8506 410.053 74.1973 410.51C73.5439 410.958 72.7973 411.182 71.9573 411.182C70.8466 411.182 69.9179 410.804 69.1713 410.048C68.4339 409.292 68.0653 408.349 68.0653 407.22C68.0653 406.091 68.4339 405.148 69.1713 404.392C69.9179 403.636 70.8466 403.258 71.9573 403.258C72.7133 403.258 73.3853 403.44 73.9733 403.804C74.5613 404.159 75.0139 404.639 75.3313 405.246C75.6486 405.843 75.8073 406.506 75.8073 407.234ZM71.9573 404.658C71.3786 404.658 70.8839 404.821 70.4733 405.148C70.0719 405.475 69.8059 405.923 69.6753 406.492H74.2533C74.1599 406.109 74.0059 405.783 73.7913 405.512C73.5766 405.232 73.3106 405.022 72.9933 404.882C72.6853 404.733 72.3399 404.658 71.9573 404.658ZM84.9046 403.44H86.4306V411H84.9046V407.836H81.4046V411H79.8646V403.44H81.4046V406.408H84.9046V403.44ZM93.472 403.44H95.138L91.666 411.14C91.2273 412.101 90.7793 412.769 90.322 413.142C89.874 413.525 89.272 413.716 88.516 413.716H87.746V412.316H88.39C88.8846 412.316 89.2486 412.218 89.482 412.022C89.7153 411.826 89.972 411.42 90.252 410.804L90.42 410.454L87.13 403.44H88.824L91.218 408.718L93.472 403.44ZM104.319 411L102.107 407.78H101.211V411H99.7128V407.78H98.8028L96.6048 411H94.7148L97.5148 407.024L94.9948 403.44H96.7728L98.8168 406.394H99.7128V403.44H101.211V406.394H102.107L104.137 403.44H105.929L103.409 407.024L106.209 411H104.319ZM111.785 403.44H113.311V411H111.785V407.836H108.285V411H106.745V403.44H108.285V406.408H111.785V403.44ZM121.333 410.062C120.567 410.809 119.606 411.182 118.449 411.182C117.291 411.182 116.325 410.809 115.551 410.062C114.785 409.306 114.403 408.359 114.403 407.22C114.403 406.473 114.575 405.797 114.921 405.19C115.275 404.583 115.761 404.112 116.377 403.776C117.002 403.431 117.693 403.258 118.449 403.258C119.205 403.258 119.891 403.431 120.507 403.776C121.132 404.112 121.617 404.583 121.963 405.19C122.317 405.797 122.495 406.473 122.495 407.22C122.495 408.359 122.107 409.306 121.333 410.062ZM118.449 409.698C118.925 409.698 119.349 409.595 119.723 409.39C120.096 409.175 120.385 408.881 120.591 408.508C120.805 408.125 120.913 407.696 120.913 407.22C120.913 406.501 120.679 405.909 120.213 405.442C119.755 404.975 119.167 404.742 118.449 404.742C117.73 404.742 117.137 404.975 116.671 405.442C116.213 405.909 115.985 406.501 115.985 407.22C115.985 407.939 116.213 408.531 116.671 408.998C117.137 409.465 117.73 409.698 118.449 409.698ZM131.947 403.44H133.613L130.141 411.14C129.703 412.101 129.255 412.769 128.797 413.142C128.349 413.525 127.747 413.716 126.991 413.716H126.221V412.316H126.865C127.36 412.316 127.724 412.218 127.957 412.022C128.191 411.826 128.447 411.42 128.727 410.804L128.895 410.454L125.605 403.44H127.299L129.693 408.718L131.947 403.44ZM137.397 411.182C136.277 411.182 135.335 410.804 134.569 410.048C133.813 409.283 133.435 408.34 133.435 407.22C133.435 406.091 133.813 405.148 134.569 404.392C135.335 403.636 136.282 403.258 137.411 403.258C138.335 403.258 139.138 403.519 139.819 404.042C140.501 404.565 140.944 405.26 141.149 406.128H139.609C139.413 405.699 139.119 405.363 138.727 405.12C138.335 404.868 137.892 404.742 137.397 404.742C136.959 404.742 136.557 404.849 136.193 405.064C135.829 405.279 135.54 405.577 135.325 405.96C135.12 406.333 135.017 406.753 135.017 407.22C135.017 407.92 135.246 408.508 135.703 408.984C136.161 409.46 136.725 409.698 137.397 409.698C137.892 409.698 138.331 409.572 138.713 409.32C139.105 409.068 139.404 408.709 139.609 408.242H141.177C140.963 409.129 140.51 409.843 139.819 410.384C139.138 410.916 138.331 411.182 137.397 411.182ZM148.054 403.44V404.84H145.394V411H143.882V404.84H141.208V403.44H148.054ZM154.967 403.44H156.171V411H154.911L154.757 410.076C154.029 410.813 153.119 411.182 152.027 411.182C150.898 411.182 149.955 410.804 149.199 410.048C148.452 409.292 148.079 408.349 148.079 407.22C148.079 406.081 148.452 405.139 149.199 404.392C149.955 403.636 150.898 403.258 152.027 403.258C153.138 403.258 154.057 403.631 154.785 404.378L154.967 403.44ZM150.361 408.998C150.837 409.465 151.43 409.698 152.139 409.698C152.858 409.698 153.446 409.465 153.903 408.998C154.37 408.522 154.603 407.929 154.603 407.22C154.603 406.501 154.37 405.909 153.903 405.442C153.446 404.975 152.858 404.742 152.139 404.742C151.672 404.742 151.248 404.849 150.865 405.064C150.492 405.279 150.198 405.577 149.983 405.96C149.768 406.333 149.661 406.753 149.661 407.22C149.661 407.929 149.894 408.522 150.361 408.998ZM162.867 403.44H164.393V411H162.867V407.836H159.367V411H157.827V403.44H159.367V406.408H162.867V403.44ZM172.372 403.44H173.576V411H172.316L172.162 410.076C171.434 410.813 170.524 411.182 169.432 411.182C168.303 411.182 167.36 410.804 166.604 410.048C165.858 409.292 165.484 408.349 165.484 407.22C165.484 406.081 165.858 405.139 166.604 404.392C167.36 403.636 168.303 403.258 169.432 403.258C170.543 403.258 171.462 403.631 172.19 404.378L172.372 403.44ZM167.766 408.998C168.242 409.465 168.835 409.698 169.544 409.698C170.263 409.698 170.851 409.465 171.308 408.998C171.775 408.522 172.008 407.929 172.008 407.22C172.008 406.501 171.775 405.909 171.308 405.442C170.851 404.975 170.263 404.742 169.544 404.742C169.078 404.742 168.653 404.849 168.27 405.064C167.897 405.279 167.603 405.577 167.388 405.96C167.174 406.333 167.066 406.753 167.066 407.22C167.066 407.929 167.3 408.522 167.766 408.998ZM180.357 407.052C180.534 407.127 180.693 407.225 180.833 407.346C180.982 407.458 181.108 407.593 181.211 407.752C181.313 407.901 181.393 408.069 181.449 408.256C181.505 408.443 181.533 408.634 181.533 408.83C181.533 409.446 181.309 409.964 180.861 410.384C180.413 410.795 179.853 411 179.181 411H175.233V403.44H179.125C179.759 403.44 180.277 403.622 180.679 403.986C181.089 404.341 181.295 404.803 181.295 405.372C181.295 405.727 181.211 406.053 181.043 406.352C180.875 406.651 180.646 406.884 180.357 407.052ZM179.755 405.624C179.755 405.363 179.666 405.153 179.489 404.994C179.321 404.835 179.097 404.756 178.817 404.756H176.759V406.492H178.817C179.097 406.492 179.321 406.413 179.489 406.254C179.666 406.095 179.755 405.885 179.755 405.624ZM178.901 409.642C179.209 409.642 179.456 409.553 179.643 409.376C179.839 409.199 179.937 408.975 179.937 408.704C179.937 408.424 179.839 408.195 179.643 408.018C179.447 407.841 179.195 407.752 178.887 407.752H176.759V409.642H178.901ZM184.055 403.44H189.193V411H187.667V404.784H185.329L184.993 408.13C184.891 409.194 184.615 409.945 184.167 410.384C183.729 410.823 183.061 411.042 182.165 411.042H181.899V409.614H182.263C183.001 409.614 183.416 409.152 183.509 408.228L184.055 403.44ZM196.391 403.44H197.259V411H195.775V406.198L191.743 411H190.847V403.44H192.345V408.2L196.391 403.44ZM204.038 407.052C204.215 407.127 204.374 407.225 204.514 407.346C204.663 407.458 204.789 407.593 204.892 407.752C204.995 407.901 205.074 408.069 205.13 408.256C205.186 408.443 205.214 408.634 205.214 408.83C205.214 409.446 204.99 409.964 204.542 410.384C204.094 410.795 203.534 411 202.862 411H198.914V403.44H202.806C203.441 403.44 203.959 403.622 204.36 403.986C204.771 404.341 204.976 404.803 204.976 405.372C204.976 405.727 204.892 406.053 204.724 406.352C204.556 406.651 204.327 406.884 204.038 407.052ZM203.436 405.624C203.436 405.363 203.347 405.153 203.17 404.994C203.002 404.835 202.778 404.756 202.498 404.756H200.44V406.492H202.498C202.778 406.492 203.002 406.413 203.17 406.254C203.347 406.095 203.436 405.885 203.436 405.624ZM202.582 409.642C202.89 409.642 203.137 409.553 203.324 409.376C203.52 409.199 203.618 408.975 203.618 408.704C203.618 408.424 203.52 408.195 203.324 408.018C203.128 407.841 202.876 407.752 202.568 407.752H200.44V409.642H202.582ZM212.735 403.44H213.939V411H212.679L212.525 410.076C211.797 410.813 210.887 411.182 209.795 411.182C208.665 411.182 207.723 410.804 206.967 410.048C206.22 409.292 205.847 408.349 205.847 407.22C205.847 406.081 206.22 405.139 206.967 404.392C207.723 403.636 208.665 403.258 209.795 403.258C210.905 403.258 211.825 403.631 212.553 404.378L212.735 403.44ZM208.129 408.998C208.605 409.465 209.197 409.698 209.907 409.698C210.625 409.698 211.213 409.465 211.671 408.998C212.137 408.522 212.371 407.929 212.371 407.22C212.371 406.501 212.137 405.909 211.671 405.442C211.213 404.975 210.625 404.742 209.907 404.742C209.44 404.742 209.015 404.849 208.633 405.064C208.259 405.279 207.965 405.577 207.751 405.96C207.536 406.333 207.429 406.753 207.429 407.22C207.429 407.929 207.662 408.522 208.129 408.998ZM221.573 403.44V404.84H218.913V411H217.401V404.84H214.727V403.44H221.573ZM225.512 405.68C226.343 405.68 227.015 405.927 227.528 406.422C228.042 406.917 228.298 407.561 228.298 408.354C228.298 409.138 228.042 409.777 227.528 410.272C227.015 410.757 226.343 411 225.512 411H222.376V403.44H223.902V405.68H225.512ZM225.33 409.656C225.75 409.656 226.091 409.539 226.352 409.306C226.614 409.063 226.744 408.746 226.744 408.354C226.744 408.093 226.684 407.864 226.562 407.668C226.45 407.463 226.287 407.304 226.072 407.192C225.858 407.08 225.61 407.024 225.33 407.024H223.902V409.656H225.33ZM236.906 403.44H238.432V411H236.906V407.836H233.406V411H231.866V403.44H233.406V406.408H236.906V403.44ZM246.453 410.062C245.688 410.809 244.726 411.182 243.569 411.182C242.412 411.182 241.446 410.809 240.671 410.062C239.906 409.306 239.523 408.359 239.523 407.22C239.523 406.473 239.696 405.797 240.041 405.19C240.396 404.583 240.881 404.112 241.497 403.776C242.122 403.431 242.813 403.258 243.569 403.258C244.325 403.258 245.011 403.431 245.627 403.776C246.252 404.112 246.738 404.583 247.083 405.19C247.438 405.797 247.615 406.473 247.615 407.22C247.615 408.359 247.228 409.306 246.453 410.062ZM243.569 409.698C244.045 409.698 244.47 409.595 244.843 409.39C245.216 409.175 245.506 408.881 245.711 408.508C245.926 408.125 246.033 407.696 246.033 407.22C246.033 406.501 245.8 405.909 245.333 405.442C244.876 404.975 244.288 404.742 243.569 404.742C242.85 404.742 242.258 404.975 241.791 405.442C241.334 405.909 241.105 406.501 241.105 407.22C241.105 407.939 241.334 408.531 241.791 408.998C242.258 409.465 242.85 409.698 243.569 409.698ZM253.835 407.052C254.012 407.127 254.171 407.225 254.311 407.346C254.46 407.458 254.586 407.593 254.689 407.752C254.791 407.901 254.871 408.069 254.927 408.256C254.983 408.443 255.011 408.634 255.011 408.83C255.011 409.446 254.787 409.964 254.339 410.384C253.891 410.795 253.331 411 252.659 411H248.711V403.44H252.603C253.237 403.44 253.755 403.622 254.157 403.986C254.567 404.341 254.773 404.803 254.773 405.372C254.773 405.727 254.689 406.053 254.521 406.352C254.353 406.651 254.124 406.884 253.835 407.052ZM253.233 405.624C253.233 405.363 253.144 405.153 252.967 404.994C252.799 404.835 252.575 404.756 252.295 404.756H250.237V406.492H252.295C252.575 406.492 252.799 406.413 252.967 406.254C253.144 406.095 253.233 405.885 253.233 405.624ZM252.379 409.642C252.687 409.642 252.934 409.553 253.121 409.376C253.317 409.199 253.415 408.975 253.415 408.704C253.415 408.424 253.317 408.195 253.121 408.018C252.925 407.841 252.673 407.752 252.365 407.752H250.237V409.642H252.379ZM262.573 410.062C261.808 410.809 260.847 411.182 259.689 411.182C258.532 411.182 257.566 410.809 256.791 410.062C256.026 409.306 255.643 408.359 255.643 407.22C255.643 406.473 255.816 405.797 256.161 405.19C256.516 404.583 257.001 404.112 257.617 403.776C258.243 403.431 258.933 403.258 259.689 403.258C260.445 403.258 261.131 403.431 261.747 403.776C262.373 404.112 262.858 404.583 263.203 405.19C263.558 405.797 263.735 406.473 263.735 407.22C263.735 408.359 263.348 409.306 262.573 410.062ZM259.689 409.698C260.165 409.698 260.59 409.595 260.963 409.39C261.337 409.175 261.626 408.881 261.831 408.508C262.046 408.125 262.153 407.696 262.153 407.22C262.153 406.501 261.92 405.909 261.453 405.442C260.996 404.975 260.408 404.742 259.689 404.742C258.971 404.742 258.378 404.975 257.911 405.442C257.454 405.909 257.225 406.501 257.225 407.22C257.225 407.939 257.454 408.531 257.911 408.998C258.378 409.465 258.971 409.698 259.689 409.698ZM272.013 407.234C272.013 407.374 272.004 407.547 271.985 407.752H265.853C265.946 408.359 266.198 408.839 266.609 409.194C267.029 409.549 267.547 409.726 268.163 409.726C268.462 409.726 268.742 409.684 269.003 409.6C269.264 409.507 269.493 409.381 269.689 409.222C269.894 409.054 270.062 408.853 270.193 408.62H271.831C271.532 409.423 271.056 410.053 270.403 410.51C269.75 410.958 269.003 411.182 268.163 411.182C267.052 411.182 266.124 410.804 265.377 410.048C264.64 409.292 264.271 408.349 264.271 407.22C264.271 406.091 264.64 405.148 265.377 404.392C266.124 403.636 267.052 403.258 268.163 403.258C268.919 403.258 269.591 403.44 270.179 403.804C270.767 404.159 271.22 404.639 271.537 405.246C271.854 405.843 272.013 406.506 272.013 407.234ZM268.163 404.658C267.584 404.658 267.09 404.821 266.679 405.148C266.278 405.475 266.012 405.923 265.881 406.492H270.459C270.366 406.109 270.212 405.783 269.997 405.512C269.782 405.232 269.516 405.022 269.199 404.882C268.891 404.733 268.546 404.658 268.163 404.658ZM36.7337 422.44H43.3277V430H41.7877V423.854H38.2877V430H36.7337V422.44ZM49.0384 422.258C49.7851 422.258 50.4571 422.431 51.0544 422.776C51.6517 423.112 52.1184 423.583 52.4544 424.19C52.7904 424.797 52.9584 425.473 52.9584 426.22C52.9584 427.359 52.5851 428.306 51.8384 429.062C51.1011 429.809 50.1677 430.182 49.0384 430.182C48.0677 430.182 47.2324 429.879 46.5324 429.272V432.716H44.9784V422.44H46.0284L46.3224 423.364C47.0504 422.627 47.9557 422.258 49.0384 422.258ZM47.1484 427.998C47.6151 428.465 48.2031 428.698 48.9124 428.698C49.6311 428.698 50.2237 428.465 50.6904 427.998C51.1571 427.522 51.3904 426.929 51.3904 426.22C51.3904 425.511 51.1571 424.923 50.6904 424.456C50.2237 423.98 49.6357 423.742 48.9264 423.742C48.4597 423.742 48.0351 423.849 47.6524 424.064C47.2697 424.279 46.9711 424.577 46.7564 424.96C46.5511 425.333 46.4484 425.753 46.4484 426.22C46.4484 426.929 46.6817 427.522 47.1484 427.998ZM59.6147 422.44H60.4827V430H58.9987V425.198L54.9667 430H54.0707V422.44H55.5687V427.2L59.6147 422.44ZM63.4677 422.44H68.6057V430H67.0797V423.784H64.7417L64.4057 427.13C64.303 428.194 64.0277 428.945 63.5797 429.384C63.141 429.823 62.4737 430.042 61.5777 430.042H61.3117V428.614H61.6757C62.413 428.614 62.8284 428.152 62.9217 427.228L63.4677 422.44ZM76.6293 429.062C75.864 429.809 74.9027 430.182 73.7453 430.182C72.588 430.182 71.622 429.809 70.8473 429.062C70.082 428.306 69.6993 427.359 69.6993 426.22C69.6993 425.473 69.872 424.797 70.2173 424.19C70.572 423.583 71.0573 423.112 71.6733 422.776C72.2987 422.431 72.9893 422.258 73.7453 422.258C74.5013 422.258 75.1873 422.431 75.8033 422.776C76.4287 423.112 76.914 423.583 77.2593 424.19C77.614 424.797 77.7913 425.473 77.7913 426.22C77.7913 427.359 77.404 428.306 76.6293 429.062ZM73.7453 428.698C74.2213 428.698 74.646 428.595 75.0193 428.39C75.3927 428.175 75.682 427.881 75.8873 427.508C76.102 427.125 76.2093 426.696 76.2093 426.22C76.2093 425.501 75.976 424.909 75.5093 424.442C75.052 423.975 74.464 423.742 73.7453 423.742C73.0267 423.742 72.434 423.975 71.9673 424.442C71.51 424.909 71.2813 425.501 71.2813 426.22C71.2813 426.939 71.51 427.531 71.9673 427.998C72.434 428.465 73.0267 428.698 73.7453 428.698ZM87.1251 430L84.9131 426.78H84.0171V430H82.5191V426.78H81.6091L79.4111 430H77.5211L80.3211 426.024L77.8011 422.44H79.5791L81.6231 425.394H82.5191V422.44H84.0171V425.394H84.9131L86.9431 422.44H88.7351L86.2151 426.024L89.0151 430H87.1251ZM96.4737 426.234C96.4737 426.374 96.4643 426.547 96.4457 426.752H90.3137C90.407 427.359 90.659 427.839 91.0697 428.194C91.4897 428.549 92.0077 428.726 92.6237 428.726C92.9223 428.726 93.2023 428.684 93.4637 428.6C93.725 428.507 93.9537 428.381 94.1497 428.222C94.355 428.054 94.523 427.853 94.6537 427.62H96.2917C95.993 428.423 95.517 429.053 94.8637 429.51C94.2103 429.958 93.4637 430.182 92.6237 430.182C91.513 430.182 90.5843 429.804 89.8377 429.048C89.1003 428.292 88.7317 427.349 88.7317 426.22C88.7317 425.091 89.1003 424.148 89.8377 423.392C90.5843 422.636 91.513 422.258 92.6237 422.258C93.3797 422.258 94.0517 422.44 94.6397 422.804C95.2277 423.159 95.6803 423.639 95.9977 424.246C96.315 424.843 96.4737 425.506 96.4737 426.234ZM92.6237 423.658C92.045 423.658 91.5503 423.821 91.1397 424.148C90.7383 424.475 90.4723 424.923 90.3417 425.492H94.9197C94.8263 425.109 94.6723 424.783 94.4577 424.512C94.243 424.232 93.977 424.022 93.6597 423.882C93.3517 423.733 93.0063 423.658 92.6237 423.658ZM102.604 422.44H104.13V430H102.604V426.836H99.1037V430H97.5637V422.44H99.1037V425.408H102.604V422.44ZM111.325 422.44H112.193V430H110.709V425.198L106.677 430H105.781V422.44H107.279V427.2L111.325 422.44ZM121.03 426.234C121.03 426.374 121.021 426.547 121.002 426.752H114.87C114.963 427.359 115.215 427.839 115.626 428.194C116.046 428.549 116.564 428.726 117.18 428.726C117.479 428.726 117.759 428.684 118.02 428.6C118.281 428.507 118.51 428.381 118.706 428.222C118.911 428.054 119.079 427.853 119.21 427.62H120.848C120.549 428.423 120.073 429.053 119.42 429.51C118.767 429.958 118.02 430.182 117.18 430.182C116.069 430.182 115.141 429.804 114.394 429.048C113.657 428.292 113.288 427.349 113.288 426.22C113.288 425.091 113.657 424.148 114.394 423.392C115.141 422.636 116.069 422.258 117.18 422.258C117.936 422.258 118.608 422.44 119.196 422.804C119.784 423.159 120.237 423.639 120.554 424.246C120.871 424.843 121.03 425.506 121.03 426.234ZM117.18 423.658C116.601 423.658 116.107 423.821 115.696 424.148C115.295 424.475 115.029 424.923 114.898 425.492H119.476C119.383 425.109 119.229 424.783 119.014 424.512C118.799 424.232 118.533 424.022 118.216 423.882C117.908 423.733 117.563 423.658 117.18 423.658ZM124.905 426.836V425.324H135.657V426.836H124.905ZM146.457 429.062C145.691 429.809 144.73 430.182 143.573 430.182C142.415 430.182 141.449 429.809 140.675 429.062C139.909 428.306 139.527 427.359 139.527 426.22C139.527 425.473 139.699 424.797 140.045 424.19C140.399 423.583 140.885 423.112 141.501 422.776C142.126 422.431 142.817 422.258 143.573 422.258C144.329 422.258 145.015 422.431 145.631 422.776C146.256 423.112 146.741 423.583 147.087 424.19C147.441 424.797 147.619 425.473 147.619 426.22C147.619 427.359 147.231 428.306 146.457 429.062ZM143.573 428.698C144.049 428.698 144.473 428.595 144.847 428.39C145.22 428.175 145.509 427.881 145.715 427.508C145.929 427.125 146.037 426.696 146.037 426.22C146.037 425.501 145.803 424.909 145.337 424.442C144.879 423.975 144.291 423.742 143.573 423.742C142.854 423.742 142.261 423.975 141.795 424.442C141.337 424.909 141.109 425.501 141.109 426.22C141.109 426.939 141.337 427.531 141.795 427.998C142.261 428.465 142.854 428.698 143.573 428.698ZM152.564 422.804C153.656 422.804 154.543 423.14 155.224 423.812C155.915 424.484 156.26 425.357 156.26 426.43C156.26 427.541 155.896 428.446 155.168 429.146C154.449 429.837 153.507 430.182 152.34 430.182C151.108 430.182 150.137 429.799 149.428 429.034C148.728 428.259 148.378 427.2 148.378 425.856C148.378 424.017 148.728 422.622 149.428 421.67C150.137 420.709 151.318 420.027 152.97 419.626L155.336 419.052V420.592L152.998 421.152C151.383 421.535 150.427 422.379 150.128 423.686C150.781 423.098 151.593 422.804 152.564 422.804ZM152.34 428.712C153.012 428.712 153.567 428.497 154.006 428.068C154.454 427.629 154.678 427.083 154.678 426.43C154.678 425.991 154.575 425.599 154.37 425.254C154.165 424.899 153.885 424.624 153.53 424.428C153.175 424.223 152.779 424.12 152.34 424.12C151.901 424.12 151.5 424.223 151.136 424.428C150.781 424.624 150.501 424.899 150.296 425.254C150.1 425.599 150.002 425.991 150.002 426.43C150.002 427.083 150.221 427.629 150.66 428.068C151.108 428.497 151.668 428.712 152.34 428.712ZM166.959 428.572H167.981V431.904H166.567V430H157.369V422.44H158.895V428.572H161.429V422.44H162.913V428.572H165.433V422.44H166.959V428.572ZM176.104 426.234C176.104 426.374 176.095 426.547 176.076 426.752H169.944C170.037 427.359 170.289 427.839 170.7 428.194C171.12 428.549 171.638 428.726 172.254 428.726C172.553 428.726 172.833 428.684 173.094 428.6C173.355 428.507 173.584 428.381 173.78 428.222C173.985 428.054 174.153 427.853 174.284 427.62H175.922C175.623 428.423 175.147 429.053 174.494 429.51C173.841 429.958 173.094 430.182 172.254 430.182C171.143 430.182 170.215 429.804 169.468 429.048C168.731 428.292 168.362 427.349 168.362 426.22C168.362 425.091 168.731 424.148 169.468 423.392C170.215 422.636 171.143 422.258 172.254 422.258C173.01 422.258 173.682 422.44 174.27 422.804C174.858 423.159 175.311 423.639 175.628 424.246C175.945 424.843 176.104 425.506 176.104 426.234ZM172.254 423.658C171.675 423.658 171.181 423.821 170.77 424.148C170.369 424.475 170.103 424.923 169.972 425.492H174.55C174.457 425.109 174.303 424.783 174.088 424.512C173.873 424.232 173.607 424.022 173.29 423.882C172.982 423.733 172.637 423.658 172.254 423.658ZM182.234 422.44H183.76V430H182.234V426.836H178.734V430H177.194V422.44H178.734V425.408H182.234V422.44ZM190.956 422.44H191.824V430H190.34V425.198L186.308 430H185.412V422.44H186.91V427.2L190.956 422.44ZM200.66 426.234C200.66 426.374 200.651 426.547 200.632 426.752H194.5C194.594 427.359 194.846 427.839 195.256 428.194C195.676 428.549 196.194 428.726 196.81 428.726C197.109 428.726 197.389 428.684 197.65 428.6C197.912 428.507 198.14 428.381 198.336 428.222C198.542 428.054 198.71 427.853 198.84 427.62H200.478C200.18 428.423 199.704 429.053 199.05 429.51C198.397 429.958 197.65 430.182 196.81 430.182C195.7 430.182 194.771 429.804 194.024 429.048C193.287 428.292 192.918 427.349 192.918 426.22C192.918 425.091 193.287 424.148 194.024 423.392C194.771 422.636 195.7 422.258 196.81 422.258C197.566 422.258 198.238 422.44 198.826 422.804C199.414 423.159 199.867 423.639 200.184 424.246C200.502 424.843 200.66 425.506 200.66 426.234ZM196.81 423.658C196.232 423.658 195.737 423.821 195.326 424.148C194.925 424.475 194.659 424.923 194.528 425.492H199.106C199.013 425.109 198.859 424.783 198.644 424.512C198.43 424.232 198.164 424.022 197.846 423.882C197.538 423.733 197.193 423.658 196.81 423.658ZM209.758 422.44H211.284V430H209.758V426.836H206.258V430H204.718V422.44H206.258V425.408H209.758V422.44ZM219.263 422.44H220.467V430H219.207L219.053 429.076C218.325 429.813 217.415 430.182 216.323 430.182C215.194 430.182 214.251 429.804 213.495 429.048C212.749 428.292 212.375 427.349 212.375 426.22C212.375 425.081 212.749 424.139 213.495 423.392C214.251 422.636 215.194 422.258 216.323 422.258C217.434 422.258 218.353 422.631 219.081 423.378L219.263 422.44ZM214.657 427.998C215.133 428.465 215.726 428.698 216.435 428.698C217.154 428.698 217.742 428.465 218.199 427.998C218.666 427.522 218.899 426.929 218.899 426.22C218.899 425.501 218.666 424.909 218.199 424.442C217.742 423.975 217.154 423.742 216.435 423.742C215.969 423.742 215.544 423.849 215.161 424.064C214.788 424.279 214.494 424.577 214.279 424.96C214.065 425.333 213.957 425.753 213.957 426.22C213.957 426.929 214.191 427.522 214.657 427.998ZM226.239 422.44H227.751V430H226.239V427.298C225.726 427.485 225.185 427.578 224.615 427.578C223.691 427.578 222.949 427.307 222.389 426.766C221.829 426.225 221.549 425.478 221.549 424.526V422.44H223.075V424.47C223.075 425.011 223.215 425.427 223.495 425.716C223.785 426.005 224.2 426.15 224.741 426.15C225.283 426.15 225.782 426.029 226.239 425.786V422.44ZM234.941 422.44H235.809V430H234.325V425.198L230.293 430H229.397V422.44H230.895V427.2L234.941 422.44ZM242.504 422.44H244.03V430H242.504V426.836H239.004V430H237.464V422.44H239.004V425.408H242.504V422.44ZM252.01 422.44H253.214V430H251.954L251.8 429.076C251.072 429.813 250.162 430.182 249.07 430.182C247.94 430.182 246.998 429.804 246.242 429.048C245.495 428.292 245.122 427.349 245.122 426.22C245.122 425.081 245.495 424.139 246.242 423.392C246.998 422.636 247.94 422.258 249.07 422.258C250.18 422.258 251.1 422.631 251.828 423.378L252.01 422.44ZM247.404 427.998C247.88 428.465 248.472 428.698 249.182 428.698C249.9 428.698 250.488 428.465 250.946 427.998C251.412 427.522 251.646 426.929 251.646 426.22C251.646 425.501 251.412 424.909 250.946 424.442C250.488 423.975 249.9 423.742 249.182 423.742C248.715 423.742 248.29 423.849 247.908 424.064C247.534 424.279 247.24 424.577 247.026 424.96C246.811 425.333 246.704 425.753 246.704 426.22C246.704 426.929 246.937 427.522 247.404 427.998ZM262.052 426.234C262.052 426.374 262.042 426.547 262.024 426.752H255.892C255.985 427.359 256.237 427.839 256.648 428.194C257.068 428.549 257.586 428.726 258.202 428.726C258.5 428.726 258.78 428.684 259.042 428.6C259.303 428.507 259.532 428.381 259.728 428.222C259.933 428.054 260.101 427.853 260.232 427.62H261.87C261.571 428.423 261.095 429.053 260.442 429.51C259.788 429.958 259.042 430.182 258.202 430.182C257.091 430.182 256.162 429.804 255.416 429.048C254.678 428.292 254.31 427.349 254.31 426.22C254.31 425.091 254.678 424.148 255.416 423.392C256.162 422.636 257.091 422.258 258.202 422.258C258.958 422.258 259.63 422.44 260.218 422.804C260.806 423.159 261.258 423.639 261.576 424.246C261.893 424.843 262.052 425.506 262.052 426.234ZM258.202 423.658C257.623 423.658 257.128 423.821 256.718 424.148C256.316 424.475 256.05 424.923 255.92 425.492H260.498C260.404 425.109 260.25 424.783 260.036 424.512C259.821 424.232 259.555 424.022 259.238 423.882C258.93 423.733 258.584 423.658 258.202 423.658ZM268.915 422.44V423.84H266.255V430H264.743V423.84H262.069V422.44H268.915ZM272.902 430.182C271.782 430.182 270.839 429.804 270.074 429.048C269.318 428.283 268.94 427.34 268.94 426.22C268.94 425.091 269.318 424.148 270.074 423.392C270.839 422.636 271.786 422.258 272.916 422.258C273.84 422.258 274.642 422.519 275.324 423.042C276.005 423.565 276.448 424.26 276.654 425.128H275.114C274.918 424.699 274.624 424.363 274.232 424.12C273.84 423.868 273.396 423.742 272.902 423.742C272.463 423.742 272.062 423.849 271.698 424.064C271.334 424.279 271.044 424.577 270.83 424.96C270.624 425.333 270.522 425.753 270.522 426.22C270.522 426.92 270.75 427.508 271.208 427.984C271.665 428.46 272.23 428.698 272.902 428.698C273.396 428.698 273.835 428.572 274.218 428.32C274.61 428.068 274.908 427.709 275.114 427.242H276.682C276.467 428.129 276.014 428.843 275.324 429.384C274.642 429.916 273.835 430.182 272.902 430.182ZM279.749 422.44H283.361V430H281.849V427.228H280.267L278.615 430H276.921L278.727 426.976C278.27 426.789 277.91 426.509 277.649 426.136C277.388 425.763 277.257 425.329 277.257 424.834C277.257 424.153 277.495 423.583 277.971 423.126C278.447 422.669 279.04 422.44 279.749 422.44ZM279.959 425.87H281.849V423.812H279.959C279.735 423.812 279.534 423.859 279.357 423.952C279.189 424.036 279.058 424.157 278.965 424.316C278.872 424.465 278.825 424.643 278.825 424.848C278.825 425.147 278.928 425.394 279.133 425.59C279.338 425.777 279.614 425.87 279.959 425.87ZM293.11 426.052C293.287 426.127 293.446 426.225 293.586 426.346C293.735 426.458 293.861 426.593 293.964 426.752C294.066 426.901 294.146 427.069 294.202 427.256C294.258 427.443 294.286 427.634 294.286 427.83C294.286 428.446 294.062 428.964 293.614 429.384C293.166 429.795 292.606 430 291.934 430H287.986V422.44H291.878C292.512 422.44 293.03 422.622 293.432 422.986C293.842 423.341 294.048 423.803 294.048 424.372C294.048 424.727 293.964 425.053 293.796 425.352C293.628 425.651 293.399 425.884 293.11 426.052ZM292.508 424.624C292.508 424.363 292.419 424.153 292.242 423.994C292.074 423.835 291.85 423.756 291.57 423.756H289.512V425.492H291.57C291.85 425.492 292.074 425.413 292.242 425.254C292.419 425.095 292.508 424.885 292.508 424.624ZM291.654 428.642C291.962 428.642 292.209 428.553 292.396 428.376C292.592 428.199 292.69 427.975 292.69 427.704C292.69 427.424 292.592 427.195 292.396 427.018C292.2 426.841 291.948 426.752 291.64 426.752H289.512V428.642H291.654ZM77.0214 441.44H83.6154V449H82.0754V442.854H78.5754V449H77.0214V441.44ZM89.3261 441.258C90.0728 441.258 90.7448 441.431 91.3421 441.776C91.9394 442.112 92.4061 442.583 92.7421 443.19C93.0781 443.797 93.2461 444.473 93.2461 445.22C93.2461 446.359 92.8728 447.306 92.1261 448.062C91.3888 448.809 90.4554 449.182 89.3261 449.182C88.3554 449.182 87.5201 448.879 86.8201 448.272V451.716H85.2661V441.44H86.3161L86.6101 442.364C87.3381 441.627 88.2434 441.258 89.3261 441.258ZM87.4361 446.998C87.9028 447.465 88.4908 447.698 89.2001 447.698C89.9188 447.698 90.5114 447.465 90.9781 446.998C91.4448 446.522 91.6781 445.929 91.6781 445.22C91.6781 444.511 91.4448 443.923 90.9781 443.456C90.5114 442.98 89.9234 442.742 89.2141 442.742C88.7474 442.742 88.3228 442.849 87.9401 443.064C87.5574 443.279 87.2588 443.577 87.0441 443.96C86.8388 444.333 86.7361 444.753 86.7361 445.22C86.7361 445.929 86.9694 446.522 87.4361 446.998ZM99.9025 441.44H100.77V449H99.2865V444.198L95.2545 449H94.3585V441.44H95.8565V446.2L99.9025 441.44ZM107.549 445.052C107.727 445.127 107.885 445.225 108.025 445.346C108.175 445.458 108.301 445.593 108.403 445.752C108.506 445.901 108.585 446.069 108.641 446.256C108.697 446.443 108.725 446.634 108.725 446.83C108.725 447.446 108.501 447.964 108.053 448.384C107.605 448.795 107.045 449 106.373 449H102.425V441.44H106.317C106.952 441.44 107.47 441.622 107.871 441.986C108.282 442.341 108.487 442.803 108.487 443.372C108.487 443.727 108.403 444.053 108.235 444.352C108.067 444.651 107.839 444.884 107.549 445.052ZM106.947 443.624C106.947 443.363 106.859 443.153 106.681 442.994C106.513 442.835 106.289 442.756 106.009 442.756H103.951V444.492H106.009C106.289 444.492 106.513 444.413 106.681 444.254C106.859 444.095 106.947 443.885 106.947 443.624ZM106.093 447.642C106.401 447.642 106.649 447.553 106.835 447.376C107.031 447.199 107.129 446.975 107.129 446.704C107.129 446.424 107.031 446.195 106.835 446.018C106.639 445.841 106.387 445.752 106.079 445.752H103.951V447.642H106.093ZM113.054 443.68C113.885 443.68 114.557 443.927 115.07 444.422C115.583 444.917 115.84 445.561 115.84 446.354C115.84 447.138 115.583 447.777 115.07 448.272C114.557 448.757 113.885 449 113.054 449H109.918V441.44H111.444V443.68H113.054ZM117.156 441.44H118.71V449H117.156V441.44ZM112.872 447.656C113.292 447.656 113.633 447.539 113.894 447.306C114.155 447.063 114.286 446.746 114.286 446.354C114.286 446.093 114.225 445.864 114.104 445.668C113.992 445.463 113.829 445.304 113.614 445.192C113.399 445.08 113.152 445.024 112.872 445.024H111.444V447.656H112.872ZM124.48 441.44H125.992V449H124.48V446.298C123.967 446.485 123.425 446.578 122.856 446.578C121.932 446.578 121.19 446.307 120.63 445.766C120.07 445.225 119.79 444.478 119.79 443.526V441.44H121.316V443.47C121.316 444.011 121.456 444.427 121.736 444.716C122.025 445.005 122.441 445.15 122.982 445.15C123.523 445.15 124.023 445.029 124.48 444.786V441.44ZM132.678 441.44H134.204V449H132.678V445.836H129.178V449H127.638V441.44H129.178V444.408H132.678V441.44ZM142.225 448.062C141.46 448.809 140.499 449.182 139.341 449.182C138.184 449.182 137.218 448.809 136.443 448.062C135.678 447.306 135.295 446.359 135.295 445.22C135.295 444.473 135.468 443.797 135.813 443.19C136.168 442.583 136.653 442.112 137.269 441.776C137.895 441.431 138.585 441.258 139.341 441.258C140.097 441.258 140.783 441.431 141.399 441.776C142.025 442.112 142.51 442.583 142.855 443.19C143.21 443.797 143.387 444.473 143.387 445.22C143.387 446.359 143 447.306 142.225 448.062ZM139.341 447.698C139.817 447.698 140.242 447.595 140.615 447.39C140.989 447.175 141.278 446.881 141.483 446.508C141.698 446.125 141.805 445.696 141.805 445.22C141.805 444.501 141.572 443.909 141.105 443.442C140.648 442.975 140.06 442.742 139.341 442.742C138.623 442.742 138.03 442.975 137.563 443.442C137.106 443.909 136.877 444.501 136.877 445.22C136.877 445.939 137.106 446.531 137.563 446.998C138.03 447.465 138.623 447.698 139.341 447.698ZM154.018 449H152.52L151.61 443.848L149.076 448.916H148.754L146.234 443.848L145.324 449H143.826L145.184 441.44H146.5L148.922 446.27L151.358 441.44H152.66L154.018 449ZM167.623 449H166.125L165.215 443.848L162.681 448.916H162.359L159.839 443.848L158.929 449H157.431L158.789 441.44H160.105L162.527 446.27L164.963 441.44H166.265L167.623 449ZM175.797 445.234C175.797 445.374 175.788 445.547 175.769 445.752H169.637C169.731 446.359 169.983 446.839 170.393 447.194C170.813 447.549 171.331 447.726 171.947 447.726C172.246 447.726 172.526 447.684 172.787 447.6C173.049 447.507 173.277 447.381 173.473 447.222C173.679 447.054 173.847 446.853 173.977 446.62H175.615C175.317 447.423 174.841 448.053 174.187 448.51C173.534 448.958 172.787 449.182 171.947 449.182C170.837 449.182 169.908 448.804 169.161 448.048C168.424 447.292 168.055 446.349 168.055 445.22C168.055 444.091 168.424 443.148 169.161 442.392C169.908 441.636 170.837 441.258 171.947 441.258C172.703 441.258 173.375 441.44 173.963 441.804C174.551 442.159 175.004 442.639 175.321 443.246C175.639 443.843 175.797 444.506 175.797 445.234ZM171.947 442.658C171.369 442.658 170.874 442.821 170.463 443.148C170.062 443.475 169.796 443.923 169.665 444.492H174.243C174.15 444.109 173.996 443.783 173.781 443.512C173.567 443.232 173.301 443.022 172.983 442.882C172.675 442.733 172.33 442.658 171.947 442.658ZM180.289 449.182C179.169 449.182 178.227 448.804 177.461 448.048C176.705 447.283 176.327 446.34 176.327 445.22C176.327 444.091 176.705 443.148 177.461 442.392C178.227 441.636 179.174 441.258 180.303 441.258C181.227 441.258 182.03 441.519 182.711 442.042C183.393 442.565 183.836 443.26 184.041 444.128H182.501C182.305 443.699 182.011 443.363 181.619 443.12C181.227 442.868 180.784 442.742 180.289 442.742C179.851 442.742 179.449 442.849 179.085 443.064C178.721 443.279 178.432 443.577 178.217 443.96C178.012 444.333 177.909 444.753 177.909 445.22C177.909 445.92 178.138 446.508 178.595 446.984C179.053 447.46 179.617 447.698 180.289 447.698C180.784 447.698 181.223 447.572 181.605 447.32C181.997 447.068 182.296 446.709 182.501 446.242H184.069C183.855 447.129 183.402 447.843 182.711 448.384C182.03 448.916 181.223 449.182 180.289 449.182ZM188.438 449.182C187.318 449.182 186.376 448.804 185.61 448.048C184.854 447.283 184.476 446.34 184.476 445.22C184.476 444.091 184.854 443.148 185.61 442.392C186.376 441.636 187.323 441.258 188.452 441.258C189.376 441.258 190.179 441.519 190.86 442.042C191.542 442.565 191.985 443.26 192.19 444.128H190.65C190.454 443.699 190.16 443.363 189.768 443.12C189.376 442.868 188.933 442.742 188.438 442.742C188 442.742 187.598 442.849 187.234 443.064C186.87 443.279 186.581 443.577 186.366 443.96C186.161 444.333 186.058 444.753 186.058 445.22C186.058 445.92 186.287 446.508 186.744 446.984C187.202 447.46 187.766 447.698 188.438 447.698C188.933 447.698 189.372 447.572 189.754 447.32C190.146 447.068 190.445 446.709 190.65 446.242H192.218C192.004 447.129 191.551 447.843 190.86 448.384C190.179 448.916 189.372 449.182 188.438 449.182ZM200.367 445.234C200.367 445.374 200.358 445.547 200.339 445.752H194.207C194.301 446.359 194.553 446.839 194.963 447.194C195.383 447.549 195.901 447.726 196.517 447.726C196.816 447.726 197.096 447.684 197.357 447.6C197.619 447.507 197.847 447.381 198.043 447.222C198.249 447.054 198.417 446.853 198.547 446.62H200.185C199.887 447.423 199.411 448.053 198.757 448.51C198.104 448.958 197.357 449.182 196.517 449.182C195.407 449.182 194.478 448.804 193.731 448.048C192.994 447.292 192.625 446.349 192.625 445.22C192.625 444.091 192.994 443.148 193.731 442.392C194.478 441.636 195.407 441.258 196.517 441.258C197.273 441.258 197.945 441.44 198.533 441.804C199.121 442.159 199.574 442.639 199.891 443.246C200.209 443.843 200.367 444.506 200.367 445.234ZM196.517 442.658C195.939 442.658 195.444 442.821 195.033 443.148C194.632 443.475 194.366 443.923 194.235 444.492H198.813C198.72 444.109 198.566 443.783 198.351 443.512C198.137 443.232 197.871 443.022 197.553 442.882C197.245 442.733 196.9 442.658 196.517 442.658ZM206.497 441.44H208.023V449H206.497V445.836H202.997V449H201.457V441.44H202.997V444.408H206.497V441.44ZM216.241 447.53H217.221V450.904H215.807V449H210.291V450.904H208.877V447.53H209.675C209.889 447.353 210.053 447.082 210.165 446.718C210.286 446.354 210.393 445.803 210.487 445.066C210.58 444.319 210.701 443.111 210.851 441.44H216.241V447.53ZM212.223 442.812C212.12 444.333 212.003 445.425 211.873 446.088C211.742 446.751 211.551 447.231 211.299 447.53H214.715V442.812H212.223ZM226.828 449L224.616 445.78H223.72V449H222.222V445.78H221.312L219.114 449H217.224L220.024 445.024L217.504 441.44H219.282L221.326 444.394H222.222V441.44H223.72V444.394H224.616L226.646 441.44H228.438L225.918 445.024L228.718 449H226.828ZM236.176 445.234C236.176 445.374 236.167 445.547 236.148 445.752H230.016C230.109 446.359 230.361 446.839 230.772 447.194C231.192 447.549 231.71 447.726 232.326 447.726C232.625 447.726 232.905 447.684 233.166 447.6C233.427 447.507 233.656 447.381 233.852 447.222C234.057 447.054 234.225 446.853 234.356 446.62H235.994C235.695 447.423 235.219 448.053 234.566 448.51C233.913 448.958 233.166 449.182 232.326 449.182C231.215 449.182 230.287 448.804 229.54 448.048C228.803 447.292 228.434 446.349 228.434 445.22C228.434 444.091 228.803 443.148 229.54 442.392C230.287 441.636 231.215 441.258 232.326 441.258C233.082 441.258 233.754 441.44 234.342 441.804C234.93 442.159 235.383 442.639 235.7 443.246C236.017 443.843 236.176 444.506 236.176 445.234ZM232.326 442.658C231.747 442.658 231.253 442.821 230.842 443.148C230.441 443.475 230.175 443.923 230.044 444.492H234.622C234.529 444.109 234.375 443.783 234.16 443.512C233.945 443.232 233.679 443.022 233.362 442.882C233.054 442.733 232.709 442.658 232.326 442.658ZM241.326 441.258C242.073 441.258 242.745 441.431 243.342 441.776C243.94 442.112 244.406 442.583 244.742 443.19C245.078 443.797 245.246 444.473 245.246 445.22C245.246 446.359 244.873 447.306 244.126 448.062C243.389 448.809 242.456 449.182 241.326 449.182C240.356 449.182 239.52 448.879 238.82 448.272V451.716H237.266V441.44H238.316L238.61 442.364C239.338 441.627 240.244 441.258 241.326 441.258ZM239.436 446.998C239.903 447.465 240.491 447.698 241.2 447.698C241.919 447.698 242.512 447.465 242.978 446.998C243.445 446.522 243.678 445.929 243.678 445.22C243.678 444.511 243.445 443.923 242.978 443.456C242.512 442.98 241.924 442.742 241.214 442.742C240.748 442.742 240.323 442.849 239.94 443.064C239.558 443.279 239.259 443.577 239.044 443.96C238.839 444.333 238.736 444.753 238.736 445.22C238.736 445.929 238.97 446.522 239.436 446.998ZM253.541 445.234C253.541 445.374 253.531 445.547 253.513 445.752H247.381C247.474 446.359 247.726 446.839 248.137 447.194C248.557 447.549 249.075 447.726 249.691 447.726C249.989 447.726 250.269 447.684 250.531 447.6C250.792 447.507 251.021 447.381 251.217 447.222C251.422 447.054 251.59 446.853 251.721 446.62H253.359C253.06 447.423 252.584 448.053 251.931 448.51C251.277 448.958 250.531 449.182 249.691 449.182C248.58 449.182 247.651 448.804 246.905 448.048C246.167 447.292 245.799 446.349 245.799 445.22C245.799 444.091 246.167 443.148 246.905 442.392C247.651 441.636 248.58 441.258 249.691 441.258C250.447 441.258 251.119 441.44 251.707 441.804C252.295 442.159 252.747 442.639 253.065 443.246C253.382 443.843 253.541 444.506 253.541 445.234ZM249.691 442.658C249.112 442.658 248.617 442.821 248.207 443.148C247.805 443.475 247.539 443.923 247.409 444.492H251.987C251.893 444.109 251.739 443.783 251.525 443.512C251.31 443.232 251.044 443.022 250.727 442.882C250.419 442.733 250.073 442.658 249.691 442.658Z" fill="#2A1B00"/>
<defs>
<linearGradient id="paint0_linear_609_2033" x1="0" y1="300" x2="121.965" y2="579.733" gradientUnits="userSpaceOnUse">
<stop stop-color="white"/>
<stop offset="1" stop-color="white" stop-opacity="0.8"/>
</linearGradient>
</defs>
</svg>
